
<svg xmlns="http://www.w3.org/2000/svg" version="1.1" xmlns:xlink="http://www.w3.org/1999/xlink" preserveAspectRatio="none" x="0px" y="0px" width="212px" height="118px" viewBox="0 0 212 118">
<defs>
<filter id="Filter_1" x="-20%" y="-20%" width="140%" height="140%" color-interpolation-filters="sRGB">
<feColorMatrix in="SourceGraphic" type="matrix" values="1 0 0 0 0 0 1 0 0 0 0 0 1 0 0 0 0 0 0.4 0" result="result1"/>
</filter>

<g id="sunPath_ground_surface_0_Layer4_0_FILL">
<path fill="#45DA77" stroke="none" d="
M 117.65 37.95
Q 117.6744140625 23.2734375 82.65 12.85 47.686328125 2.4748046875 -1.85 2.45 -51.348828125 2.4748046875 -86.4 12.85 -121.349609375 23.2734375 -121.35 37.95 -121.349609375 52.676171875 -86.4 63.05 -51.348828125 73.474609375 -1.85 73.45 47.686328125 73.474609375 82.65 63.05 117.6744140625 52.676171875 117.65 37.95 Z"/>
</g>

<g id="sunPath_dude_0_Layer0_0_FILL">
<path fill="#333333" stroke="none" d="
M -3.45 -2.3
Q -3.508984375 -1.89609375 -3.6 -1.5 -3.52578125 -1.3744140625 -3.45 -1.25
L -3.45 -2.3
M 3.55 -0.3
L 3.2 -2.55 3.5 -5.95
Q 3.3349609375 -6.762890625 2.85 -6.85 2.366015625 -6.9390625 2.15 -7 1.9302734375 -7.00703125 1.45 -7 1.0603515625 -7.9337890625 1.45 -7.95 1.8552734375 -7.9650390625 1.8 -9.55 1.7310546875 -11.1431640625 0.3 -11.15 -1.07578125 -11.1462890625 -1.05 -9.7 -1.0154296875 -8.20234375 -0.5 -7.85 -0.5 -7.7876953125 -0.5 -7.75 -0.33828125 -7.308984375 -0.35 -6.95 -1.5716796875 -6.8564453125 -2.1 -6.45 -2.6 -5.85 -2.85 -5 -3 -4.55 -3.1 -4.05 -3.25 -3.5 -3.35 -2.95 -3.397265625 -2.6197265625 -3.45 -2.3
L -3.45 -1.25
Q -3.174609375 -0.7314453125 -2.55 -0.05
L -2.55 -0.05
Q -2.0900390625 1.053125 -1.45 1 -1.52890625 2.225390625 -1.5 3.5 -1.4673828125 4.8208984375 -1.4 5.2 -1.2939453125 5.587890625 -1.3 5.85 -1.1208984375 9.5802734375 -0.95 11.2 -1.3150390625 11.22421875 -1.6 11.85 -1.8365234375 12.465234375 -0.5 12.45 0.891796875 12.44375 0.9 11.95 0.951953125 11.4453125 1.05 11.2 0.766796875 10.5287109375 0.75 8.9 0.7333984375 7.318359375 0.6 6.45 0.9568359375 5.8412109375 0.85 3.5
L 2 6.45
Q 2.114453125 6.132421875 2.1 8.05 2.146484375 9.9646484375 2.3 10.6 2.44921875 11.2876953125 2.45 11.55 2.39453125 12.204296875 3 12.2 3.6130859375 12.23671875 3.8 12.2 3.9908203125 12.163671875 5 12.2 6.049609375 12.2439453125 6.05 11.65 6.05078125 11.0556640625 4.4 10.75 4.136328125 9.555078125 4.05 8.35 3.949609375 7.155078125 3.8 6.35 3.6607421875 5.5837890625 3.65 5.4 3.6341796875 5.2310546875 3.45 3.8 3.25859375 2.37265625 2.8 0.85 3.5265625 0.6564453125 3.55 -0.3 Z"/>
</g>

<g id="Mask_sunPath_path_Wanganui_0_2_MASK_0_FILL">
<path fill="#FFFFFF" stroke="none" d="
M -1.3 34.25
L -1.9 34.15 -52.95 70.15
Q -29.7 73.45 -1.8 73.5 3.1 73.5 7.9 73.35 -8.6 66.95 -19.45 52.9 -20.1 52.1 -20.05 51.4 -19.4 44.35 -12.55 44.1
L -1.3 34.25
M -32.1 30.4
L -36.35 29.9
Q -37.95 32 -40.65 32.4 -47.35 32.7 -53.85 31.35 -79.8 25.55 -106.05 21.6 -108.5 27.35 -106.8 33.5 -105.35 38.65 -109.35 41.95 -111.3 43.5 -113.65 43.4 -119.65 42.5 -121.2 35.95 -121.35 36.95 -121.35 38 -121.35 52.7 -86.35 63.05 -71.05 67.6 -52.95 70.15
L -1.9 34.15 -17.3 32.25
Q -18.5 32.55 -19.95 32.55 -27.5 32.55 -32.1 30.4
M 7.9 73.35
Q 14.55 74.75 20.9 72.1 25.9 70 24.9 64.5 24 59.5 18.7 58.85 9.15 59.05 2.35 52.8 -4.3 46.8 -12.55 44.1 -19.4 44.35 -20.05 51.4 -20.1 52.1 -19.45 52.9 -8.6 66.95 7.9 73.35
M 117.2 34.6
Q 115.1 27.2 103.4 20.95 101.85 20.1 100.1 19.3 100.3 19.4 100.5 19.55 107.65 23.8 112.35 28.35 115.85 31.8 117.2 34.6
M 120.5 -106.85
Q 101.8 -103.9 82.9 -104.3 78.6 -104.4 74.4 -105 44.4 -108.3 14.4 -107.85
L -42.75 -106.55
Q -54.8 -106.7 -66.85 -107.75 -82.1 -109.05 -97.45 -110.25 -108.15 -110.4 -118.25 -107.4 -121 -106.65 -122.4 -104.1 -123.05 -102.95 -123.1 -101.7 -123.45 -91.85 -123.25 -81.95 -122.75 -56.95 -122 -32.05 -121.45 -14.4 -122.65 3.2 -123.8 19.75 -121.2 35.95 -119.65 42.5 -113.65 43.4 -111.3 43.5 -109.35 41.95 -105.35 38.65 -106.8 33.5 -108.5 27.35 -106.05 21.6 -79.8 25.55 -53.85 31.35 -47.35 32.7 -40.65 32.4 -37.95 32 -36.35 29.9
L -35.35 28.35 -32.1 30.4
Q -27.5 32.55 -19.95 32.55 -18.5 32.55 -17.3 32.25 -12.7 31.2 -11.8 26.65 -11.65 26 -11.55 25.35 -17.75 13.45 -25.05 2.25 -2.85 1.55 19.3 3.15 29.95 3.5 40.55 4.25 65.45 6.6 89.1 14.9 94.95 16.95 100.5 19.55 100.3 19.4 100.1 19.3 101.85 20.1 103.4 20.95 112.3 25.4 120.2 31.15 123.3 31.35 125.3 28.75 128.05 25.25 127.75 20.5 126.55 1.95 126.15 -16.7 126.1 -19.1 126.15 -21.5 126.3 -26.3 126.7 -31.05 128.9 -56.4 127.4 -81.8 127.15 -85.9 127.55 -90 128 -94.7 128.65 -99.5 129.15 -103.25 126.2 -105.45 123.65 -107.4 120.5 -106.85 Z"/>
</g>

<g id="earth_0_Layer1_0_FILL">
<path fill="#FFFF00" stroke="none" d="
M 6.35 -6.4
Q 3.75 -9 0 -9 -3.75 -9 -6.4 -6.4 -9 -3.75 -9 0 -9 3.75 -6.4 6.35 -3.75 9 0 9 3.75 9 6.35 6.35 9 3.75 9 0 9 -3.75 6.35 -6.4 Z"/>
</g>

<g id="sunPath_sun_path_0_Layer2_0_STROKES_1_FILL">
<path fill="#FFFF00" stroke="none" d="
M 95.4 199.2
Q 95.1169921875 198.91953125 94.7 198.9 91.7251953125 198.7494140625 88.8 198.45 88.39375 198.4107421875 88.05 198.65 87.7478515625 198.93828125 87.7 199.35 87.6603515625 199.7568359375 87.9 200.05 88.187890625 200.4017578125 88.6 200.45 91.5748046875 200.7505859375 94.6 200.9 95.0146484375 200.92421875 95.3 200.65 95.630859375 200.366796875 95.65 199.95 95.674609375 199.53515625 95.4 199.2
M 106.95 200.8
Q 107.3822265625 200.766796875 107.65 200.45 107.925390625 200.137109375 107.9 199.7 107.8671875 199.3181640625 107.55 199.05 107.23671875 198.775 106.8 198.8 103.86171875 198.998828125 100.8 199 100.3892578125 199.003515625 100.1 199.3 99.803515625 199.5892578125 99.8 200 99.803515625 200.4107421875 100.1 200.7 100.3892578125 200.996484375 100.8 201 103.937890625 201.0009765625 106.95 200.8
M 153 185
Q 152.778125 184.670703125 152.35 184.55 151.975 184.4810546875 151.6 184.7 149.099609375 186.286328125 146.5 187.65 146.16484375 187.8767578125 146.05 188.25 145.929296875 188.665234375 146.1 189 146.326171875 189.3853515625 146.7 189.5 147.11484375 189.6201171875 147.45 189.4 150.100390625 188.0134765625 152.65 186.4 153.028515625 186.1775390625 153.1 185.75 153.2193359375 185.3744140625 153 185
M 135.15 193.95
Q 135.3234375 194.3587890625 135.7 194.5 136.0849609375 194.683984375 136.45 194.5 139.3001953125 193.41328125 142.05 192.15 142.439453125 191.9822265625 142.55 191.6 142.721484375 191.220703125 142.55 190.85 142.3822265625 190.471875 142 190.3 141.609375 190.178515625 141.2 190.35 138.499609375 191.58671875 135.7 192.65 135.34140625 192.8236328125 135.15 193.2 135.0158203125 193.5853515625 135.15 193.95
M 131.4 195.25
Q 131.27109375 194.8615234375 130.9 194.65 130.5369140625 194.4794921875 130.15 194.6 127.337109375 195.486328125 124.45 196.15 124.0697265625 196.272265625 123.85 196.6 123.63046875 196.9765625 123.7 197.35 123.821875 197.7798828125 124.15 198 124.526953125 198.219140625 124.9 198.1 127.8626953125 197.4134765625 130.75 196.5 131.1392578125 196.370703125 131.3 196 131.5208984375 195.6376953125 131.4 195.25
M 119.4 197.55
Q 119.0841796875 197.3453125 118.65 197.4 115.749609375 197.91171875 112.7 198.25 112.3234375 198.29921875 112.05 198.6 111.8095703125 198.9576171875 111.85 199.35 111.898828125 199.7759765625 112.2 200 112.558203125 200.28984375 112.95 200.25 116.050390625 199.8880859375 119 199.35 119.433203125 199.308984375 119.65 198.95 119.9048828125 198.634375 119.8 198.2 119.759375 197.816796875 119.4 197.55
M 76.4 196.7
Q 76.0703125 196.9224609375 75.95 197.3 75.880859375 197.726171875 76.1 198.05 76.3224609375 198.429296875 76.7 198.5 79.6498046875 199.1755859375 82.6 199.65 83.0341796875 199.7546875 83.35 199.5 83.709375 199.283203125 83.75 198.85 83.8548828125 198.4658203125 83.6 198.1 83.383203125 197.791015625 82.95 197.7 80.0501953125 197.2244140625 77.15 196.55 76.773828125 196.48125 76.4 196.7
M 65.8 193.25
Q 65.44296875 193.1162109375 65.05 193.3 64.6951171875 193.4822265625 64.55 193.85 64.416015625 194.25703125 64.6 194.6 64.7822265625 195.0046875 65.15 195.15 67.999609375 196.1505859375 70.9 197 71.315625 197.1201171875 71.65 196.9 72.0357421875 196.7234375 72.15 196.3 72.2705078125 195.933984375 72.05 195.55 71.873828125 195.214453125 71.45 195.1 68.600390625 194.24921875 65.8 193.25
M 53.6 188.85
Q 53.4291015625 189.2486328125 53.55 189.65 53.6662109375 190.037109375 54 190.2 56.7119140625 191.651171875 59.5 192.85 59.8857421875 193.03359375 60.25 192.85 60.6587890625 192.7265625 60.8 192.35 60.9841796875 191.9646484375 60.8 191.55 60.676171875 191.1916015625 60.3 191 57.5880859375 189.848828125 54.95 188.45 54.60078125 188.2794921875 54.2 188.4 53.8125 188.515625 53.6 188.85
M 43.4 182.55
Q 43.1947265625 182.9171875 43.25 183.3 43.3416015625 183.73359375 43.65 183.95 46.149609375 185.6880859375 48.7 187.25 49.0767578125 187.4689453125 49.45 187.35 49.8798828125 187.2779296875 50.1 186.9 50.3197265625 186.5734375 50.2 186.15 50.127734375 185.770703125 49.75 185.55 47.250390625 184.0119140625 44.8 182.3 44.4828125 182.095703125 44.05 182.15 43.665625 182.2416015625 43.4 182.55
M 40.05 178.85
Q 37.7251953125 177.073828125 35.45 175.1 35.1369140625 174.825390625 34.7 174.85 34.3181640625 174.8828125 34.05 175.2 33.7744140625 175.5130859375 33.8 175.9 33.8328125 176.330859375 34.15 176.6 36.474609375 178.6259765625 38.85 180.45 39.1736328125 180.7033203125 39.55 180.65 39.9908203125 180.587109375 40.25 180.25 40.503515625 179.9271484375 40.45 179.5 40.3861328125 179.1091796875 40.05 178.85
M 23.2 163.05
Q 23.2384765625 162.6421875 22.95 162.3 21.08828125 160.0369140625 19.35 157.65 19.105859375 157.3275390625 18.7 157.25 18.288671875 157.2080078125 17.95 157.45 17.6271484375 157.6935546875 17.55 158.1 17.50859375 158.5107421875 17.75 158.85 19.51171875 161.2630859375 21.4 163.55 21.690234375 163.90234375 22.1 163.95 22.5080078125 163.9892578125 22.8 163.7 23.152734375 163.460546875 23.2 163.05
M 26.75 166.7
Q 26.4876953125 166.4177734375 26.05 166.4 25.6697265625 166.3890625 25.35 166.65 25.0677734375 166.961328125 25.05 167.35 25.0400390625 167.7802734375 25.3 168.05 26.9373046875 169.7875 28.6 171.45 29.1125 171.9759765625 29.6 172.45 29.9369140625 172.724609375 30.35 172.7 30.7673828125 172.6806640625 31.05 172.35 31.3248046875 172.0642578125 31.3 171.65 31.2794921875 171.2326171875 30.95 170.95 30.4875 170.52421875 30 170.05 28.3626953125 168.4123046875 26.75 166.7
M 11.6 147.35
Q 11.26328125 147.577734375 11.15 147.95 11.0298828125 148.36640625 11.2 148.7 12.68671875 151.3630859375 14.3 153.9 14.5234375 154.241796875 14.9 154.3 15.3392578125 154.419140625 15.7 154.2 16.042578125 153.976953125 16.1 153.55 16.2185546875 153.161328125 16 152.8 14.41328125 150.3369140625 12.95 147.75 12.771875 147.4142578125 12.35 147.3 11.9826171875 147.1794921875 11.6 147.35
M 6 137.15
Q 5.8662109375 137.537109375 6 137.9 7.1361328125 140.7130859375 8.45 143.4 8.6341796875 143.7681640625 9 143.9 9.421484375 144.0337890625 9.8 143.85 10.1689453125 143.6662109375 10.3 143.25 10.4333984375 142.879296875 10.25 142.5 8.963671875 139.88671875 7.85 137.15 7.7251953125 136.7896484375 7.35 136.6 6.9634765625 136.4658203125 6.55 136.6 6.190234375 136.7744140625 6 137.15
M 3 125.25
Q 2.60546875 125.3861328125 2.4 125.75 2.18046875 126.105078125 2.25 126.5 3.0365234375 129.425390625 3.95 132.25 4.0796875 132.651953125 4.45 132.85 4.8130859375 133.03359375 5.2 132.9 5.6015625 132.770703125 5.8 132.4 5.983203125 132.036328125 5.85 131.65 4.9630859375 128.8744140625 4.2 126 4.11328125 125.6046875 3.75 125.4 3.395703125 125.180078125 3 125.25
M 2.85 120.2
Q 2.33828125 117.299609375 1.95 114.25 1.8873046875 113.86015625 1.55 113.6 1.227734375 113.3466796875 0.8 113.4 0.4095703125 113.4625 0.15 113.8 -0.103125 114.1216796875 -0.05 114.5 0.36171875 117.600390625 0.9 120.55 0.992578125 120.9861328125 1.3 121.2 1.668359375 121.45546875 2.05 121.35 2.485546875 121.3078125 2.7 120.95 2.955078125 120.6310546875 2.85 120.2
M 0.75 101.65
Q 0.4447265625 101.38984375 0 101.4 -0.3869140625 101.404296875 -0.7 101.7 -0.959765625 102.0046875 -0.95 102.4 -0.90078125 105.45 -0.7 108.45 -0.666796875 108.8822265625 -0.35 109.15 -0.037109375 109.425390625 0.35 109.4 0.7818359375 109.3671875 1.05 109.05 1.325 108.73671875 1.3 108.3 1.10078125 105.35 1.05 102.35 1.0455078125 101.963671875 0.75 101.65
M 1.15 89.3
Q 0.8966796875 88.983984375 0.45 88.95 0.065625 88.9111328125 -0.25 89.15 -0.565625 89.4529296875 -0.6 89.85 -0.85078125 92.849609375 -0.95 95.85 -0.9609375 96.280078125 -0.7 96.55 -0.389453125 96.88203125 0 96.9 0.4298828125 96.9111328125 0.7 96.6 1.0318359375 96.3390625 1.05 95.9 1.1505859375 92.9501953125 1.4 90 1.4384765625 89.6158203125 1.15 89.3
M 2.35 77.2
Q 1.94609375 77.1439453125 1.6 77.35 1.2564453125 77.5998046875 1.15 78 0.56171875 80.9248046875 0.1 83.9 0.0458984375 84.312109375 0.3 84.65 0.544140625 84.9857421875 0.95 85.05 1.3619140625 85.104296875 1.7 84.85 2.035546875 84.6056640625 2.1 84.2 2.5380859375 81.2751953125 3.1 78.4 3.205859375 77.9958984375 2.95 77.65 2.750390625 77.30625 2.35 77.2
M 6.3 66.2
Q 6.1177734375 65.8451171875 5.7 65.7 5.34296875 65.566015625 4.95 65.75 4.5953125 65.9322265625 4.45 66.3 3.436328125 69.1494140625 2.6 72.05 2.5173828125 72.4814453125 2.7 72.85 2.9287109375 73.2125 3.3 73.3 3.73125 73.4328125 4.1 73.2 4.4623046875 73.0208984375 4.55 72.6 5.363671875 69.7505859375 6.35 66.95 6.48359375 66.59296875 6.3 66.2
M 11 55.35
Q 10.8703125 54.9478515625 10.5 54.75 10.136328125 54.56640625 9.75 54.7 9.3478515625 54.83125 9.15 55.2 7.786328125 57.88671875 6.6 60.65 6.466015625 61.0515625 6.6 61.4 6.787890625 61.8107421875 7.15 61.95 7.550390625 62.1341796875 7.9 61.95 8.310546875 61.8109375 8.45 61.4 9.613671875 58.7130859375 10.95 56.1 11.13359375 55.734765625 11 55.35
M 31.8 25.85
Q 31.40625 25.8404296875 31.1 26.1 29.85 27.3375 28.6 28.6 27.5875 29.599609375 26.55 30.65 26.2900390625 30.95703125 26.3 31.35 26.3048828125 31.7880859375 26.6 32.05 26.9064453125 32.3607421875 27.3 32.35 27.7373046875 32.3447265625 28 32.05 29.0125 31.0001953125 30 30 31.25 28.7626953125 32.5 27.55 32.794921875 27.28671875 32.8 26.85 32.8103515625 26.455859375 32.5 26.15 32.2375 25.8546875 31.8 25.85
M 15.9 44.3
Q 15.5015625 44.40625 15.25 44.75 13.548828125 47.27421875 12 49.9 11.8171875 50.2568359375 11.9 50.65 12.0369140625 51.058203125 12.4 51.25 12.75546875 51.4828125 13.15 51.35 13.5580078125 51.2615234375 13.75 50.9 15.251171875 48.3255859375 16.9 45.85 17.15546875 45.5048828125 17.05 45.1 16.994921875 44.7015625 16.65 44.45 16.3060546875 44.2443359375 15.9 44.3
M 19 41.2
Q 19.33671875 41.45390625 19.75 41.4 20.1541015625 41.3357421875 20.4 41 22.1880859375 38.625390625 24.1 36.35 24.387890625 36.0349609375 24.35 35.6 24.3162109375 35.2162109375 24 34.95 23.68515625 34.673828125 23.25 34.7 22.8546875 34.733984375 22.55 35.05 20.61171875 37.3744140625 18.8 39.8 18.546484375 40.1373046875 18.6 40.55 18.6634765625 40.9546875 19 41.2
M 41.7 18.6
Q 41.4552734375 18.2638671875 41.05 18.2 40.6380859375 18.14609375 40.3 18.4 37.924609375 20.161328125 35.6 22.1 35.283984375 22.4046875 35.25 22.8 35.223828125 23.23515625 35.5 23.55 35.7662109375 23.8662109375 36.15 23.9 36.5849609375 23.937890625 36.9 23.65 39.1751953125 21.7384765625 41.5 20 41.8353515625 19.7548828125 41.9 19.35 41.9541015625 18.9373046875 41.7 18.6
M 51.75 12.1
Q 51.558203125 11.7369140625 51.15 11.6 50.7568359375 11.5171875 50.4 11.7 47.7744140625 13.24921875 45.25 14.9 44.9072265625 15.1498046875 44.8 15.55 44.74375 15.9541015625 44.95 16.3 45.199609375 16.64375 45.6 16.7 46.003125 16.805859375 46.35 16.55 48.8255859375 14.95078125 51.4 13.45 51.7615234375 13.2580078125 51.85 12.85 51.9828125 12.45546875 51.75 12.1
M 62.55 6.9
Q 62.4107421875 6.537890625 62 6.35 61.6515625 6.216015625 61.25 6.35 58.487109375 7.536328125 55.75 8.9 55.3806640625 9.0853515625 55.25 9.45 55.11640625 9.8728515625 55.3 10.25 55.484765625 10.6197265625 55.85 10.75 56.2724609375 10.883203125 56.65 10.7 59.3126953125 9.3634765625 62 8.2 62.4109375 8.060546875 62.55 7.65 62.7341796875 7.300390625 62.55 6.9
M 73.3 4.4
Q 73.7208984375 4.3123046875 73.9 3.95 74.1328125 3.58125 74 3.15 73.9125 2.7787109375 73.55 2.55 73.1814453125 2.3673828125 72.75 2.45 69.8498046875 3.28671875 66.95 4.25 66.5849609375 4.3802734375 66.4 4.75 66.21640625 5.1271484375 66.35 5.5 66.4802734375 5.915234375 66.85 6.1 67.2267578125 6.2833984375 67.6 6.15 70.45 5.2130859375 73.3 4.4
M 84.95 2.05
Q 85.3912109375 1.98671875 85.65 1.65 85.9037109375 1.3271484375 85.85 0.9 85.787109375 0.508984375 85.45 0.25 85.126953125 -0.0033203125 84.7 0.05 81.687109375 0.4615234375 78.7 1.05 78.30078125 1.1560546875 78.05 1.5 77.8439453125 1.8455078125 77.9 2.25 78.005859375 2.6498046875 78.35 2.85 78.6947265625 3.105859375 79.1 3 82.0126953125 2.438671875 84.95 2.05
M 113.7 0.85
Q 113.646484375 1.2771484375 113.9 1.6 114.1587890625 1.93671875 114.55 2 117.5369140625 2.388671875 120.4 2.95 120.8041015625 3.055859375 121.15 2.8 121.49375 2.600390625 121.55 2.2 121.6560546875 1.79609375 121.4 1.45 121.2 1.1064453125 120.8 1 117.8630859375 0.4111328125 114.8 0 114.4228515625 -0.0533203125 114.1 0.2 113.762890625 0.458984375 113.7 0.85
M 131.85 6
Q 132.273046875 6.1333984375 132.65 5.95 133.0197265625 5.765234375 133.15 5.35 133.28359375 4.9771484375 133.1 4.6 132.91484375 4.2302734375 132.5 4.1 129.6376953125 3.136328125 126.7 2.35 126.305078125 2.28046875 125.95 2.5 125.5861328125 2.70546875 125.45 3.1 125.380078125 3.495703125 125.6 3.85 125.8046875 4.21328125 126.2 4.3 129.062109375 5.063671875 131.85 6
M 144.25 9.95
Q 144.433984375 9.60703125 144.3 9.2 144.1544921875 8.8328125 143.75 8.65 141.0001953125 7.33671875 138.15 6.15 137.8009765625 6.0162109375 137.4 6.15 137.0376953125 6.3392578125 136.85 6.7 136.7158203125 7.0994140625 136.85 7.45 137.0388671875 7.86171875 137.4 8 140.1998046875 9.1630859375 142.9 10.45 143.293359375 10.6333984375 143.65 10.5 144.0677734375 10.3548828125 144.25 9.95
M 149.25 11.5
Q 148.8931640625 11.3171875 148.5 11.4 148.0919921875 11.5369140625 147.85 11.9 147.6671875 12.25546875 147.75 12.65 147.88828125 13.0580078125 148.25 13.25 150.8248046875 14.7630859375 153.35 16.4 153.6982421875 16.6185546875 154.1 16.5 154.5140625 16.44296875 154.75 16.1 154.9689453125 15.7525390625 154.85 15.35 154.7921875 14.936328125 154.45 14.7 151.8751953125 13.0369140625 149.25 11.5
M 162.85 178.75
Q 162.8900390625 178.34375 162.6 178 162.3623046875 177.6982421875 161.95 177.65 161.5447265625 177.61015625 161.2 177.85 158.8998046875 179.748828125 156.5 181.4 156.191015625 181.6673828125 156.1 182.05 156.0451171875 182.4841796875 156.25 182.8 156.516796875 183.159375 156.9 183.2 157.333984375 183.304296875 157.65 183.05 160.1001953125 181.3509765625 162.45 179.4 162.80078125 179.162109375 162.85 178.75
M 171.35 171.45
L 171.45 171.4
Q 173.1830078125 169.666015625 174.85 167.85 175.1603515625 167.5798828125 175.15 167.15 175.132421875 166.761328125 174.8 166.45 174.53046875 166.1890625 174.1 166.2 173.7119140625 166.2181640625 173.4 166.5 171.753515625 168.294921875 170 170
L 169.95 170.05
Q 167.8943359375 172.1396484375 165.7 174.05 165.419921875 174.3328125 165.4 174.75 165.3748046875 175.16328125 165.65 175.45 165.9318359375 175.7802734375 166.35 175.8 166.7630859375 175.82421875 167.05 175.55 169.2705078125 173.59140625 171.35 171.45
M 182.8 157.5
Q 182.7595703125 157.1298828125 182.4 156.9 182.0849609375 156.6576171875 181.65 156.7 181.26796875 156.790625 181 157.1 179.298828125 159.549609375 177.35 161.9 177.1109375 162.24375 177.15 162.65 177.198046875 163.06171875 177.5 163.3 177.8431640625 163.58984375 178.25 163.55 178.6609375 163.5015625 178.9 163.15 180.901171875 160.7501953125 182.65 158.25 182.9041015625 157.934765625 182.8 157.5
M 188 146.6
Q 187.6267578125 146.715234375 187.4 147.05 185.9865234375 149.6994140625 184.4 152.2 184.1810546875 152.575 184.25 152.95 184.370703125 153.378125 184.7 153.6 185.0744140625 153.8193359375 185.45 153.7 185.8775390625 153.628515625 186.1 153.25 187.71328125 150.700390625 189.15 148 189.3703125 147.66484375 189.25 147.25 189.1359375 146.8765625 188.75 146.65 188.416015625 146.4794921875 188 146.6
M 193.75 135.7
Q 193.3853515625 135.5658203125 193 135.7 192.6236328125 135.89140625 192.45 136.25 191.38671875 139.0494140625 190.15 141.7 189.96640625 142.107421875 190.1 142.5 190.24609375 142.88125 190.6 143.05 191.0068359375 143.233984375 191.4 143.1 191.780859375 142.9533203125 191.95 142.55 193.2130859375 139.850390625 194.3 137 194.483984375 136.6349609375 194.3 136.25 194.1587890625 135.8734375 193.75 135.7
M 198 125.45
Q 198.11953125 125.055078125 197.9 124.7 197.69453125 124.3361328125 197.3 124.2 196.9041015625 124.130078125 196.55 124.35 196.1865234375 124.5546875 196.05 124.95 195.33671875 127.8248046875 194.45 130.65 194.3294921875 131.0369140625 194.5 131.4 194.7115234375 131.77109375 195.1 131.9 195.4876953125 132.0208984375 195.85 131.8 196.220703125 131.6392578125 196.35 131.25 197.2630859375 128.3751953125 198 125.45
M 200.2 113.55
Q 200.23984375 113.157421875 199.95 112.8 199.726171875 112.498828125 199.3 112.45 198.9076171875 112.409765625 198.55 112.65 198.24921875 112.9240234375 198.2 113.3 197.861328125 116.29921875 197.3 119.15 197.24453125 119.5822265625 197.45 119.9 197.714453125 120.2578125 198.1 120.3 198.5314453125 120.4056640625 198.85 120.15 199.2076171875 119.9349609375 199.25 119.5 199.838671875 116.6005859375 200.2 113.55
M 201 101.5
Q 201.009765625 101.1046875 200.7 100.8 200.4369140625 100.504296875 200 100.5 199.6052734375 100.48984375 199.3 100.75 199.0044921875 101.063671875 199 101.45 198.94921875 104.449609375 198.75 107.35 198.7248046875 107.7869140625 199 108.1 199.2681640625 108.4171875 199.65 108.45 200.087109375 108.4755859375 200.4 108.2 200.716796875 107.9318359375 200.75 107.5 200.9505859375 104.55 201 101.5
M 200.55 89.7
Q 200.515625 89.3029296875 200.2 89 199.884375 88.7611328125 199.45 88.8 199.0533203125 88.833984375 198.75 89.15 198.511328125 89.4658203125 198.55 89.85 198.79921875 92.8001953125 198.9 95.75 198.9181640625 96.1890625 199.2 96.45 199.5203125 96.7611328125 199.9 96.75 200.339453125 96.73203125 200.6 96.4 200.9107421875 96.130078125 200.9 95.7 200.8005859375 92.699609375 200.55 89.7
M 198.65 77.55
Q 198.5923828125 77.1732421875 198.25 76.95 197.8892578125 76.7310546875 197.45 76.8 197.0728515625 76.907421875 196.85 77.25 196.63125 77.6103515625 196.7 78 197.361328125 80.937890625 197.8 83.9 197.864453125 84.3064453125 198.2 84.55 198.5380859375 84.804296875 198.95 84.75 199.355859375 84.6859375 199.6 84.35 199.85390625 84.011328125 199.8 83.6 199.3384765625 80.5623046875 198.65 77.55
M 195.4 65.85
Q 195.255078125 65.482421875 194.85 65.3 194.5078125 65.1162109375 194.1 65.25 193.7328125 65.39453125 193.55 65.75 193.3666015625 66.142578125 193.5 66.5 194.486328125 69.35 195.25 72.2 195.3876953125 72.6208984375 195.75 72.8 196.1189453125 73.0328125 196.5 72.9 196.9212890625 72.8125 197.1 72.45 197.332421875 72.0814453125 197.2 71.65 196.4134765625 68.749609375 195.4 65.85
M 193.15 60.9
Q 193.33359375 60.5357421875 193.15 60.15 191.9630859375 57.3748046875 190.6 54.65 190.4146484375 54.2806640625 190 54.15 189.6271484375 54.01640625 189.25 54.2 188.8802734375 54.384765625 188.75 54.75 188.616796875 55.1724609375 188.8 55.55 190.1369140625 58.2251953125 191.3 60.95 191.4916015625 61.326171875 191.85 61.45 192.2646484375 61.6341796875 192.65 61.45 193.0265625 61.3087890625 193.15 60.9
M 182.6 44.55
Q 182.5443359375 44.9548828125 182.75 45.3 184.461328125 47.7751953125 185.95 50.3 186.15546875 50.6626953125 186.55 50.75 186.9458984375 50.869921875 187.3 50.65 187.6638671875 50.44453125 187.75 50.05 187.869921875 49.6552734375 187.65 49.3 186.1384765625 46.724609375 184.4 44.2 184.1984375 43.85625 183.8 43.75 183.3939453125 43.6943359375 183.05 43.9 182.705078125 44.1515625 182.6 44.55
M 175.25 35.1
Q 175.225390625 35.5369140625 175.5 35.85 177.473828125 38.1251953125 179.25 40.45 179.5091796875 40.7861328125 179.9 40.85 180.3271484375 40.903515625 180.65 40.65 180.987109375 40.3908203125 181.05 39.95 181.1033203125 39.5736328125 180.85 39.25 179.0259765625 36.874609375 177 34.55 176.730859375 34.2328125 176.3 34.2 175.9130859375 34.1744140625 175.6 34.45 175.2828125 34.7181640625 175.25 35.1
M 172.2 31.8
Q 172.6107421875 31.796484375 172.9 31.5 173.196484375 31.2107421875 173.2 30.8 173.196484375 30.3892578125 172.9 30.1 172.15 29.35 171.4 28.6 170.0876953125 27.287109375 168.7 26 168.4287109375 25.739453125 168 25.75 167.6099609375 25.7681640625 167.3 26.05 167.0384765625 26.3833984375 167.05 26.8 167.0685546875 27.2015625 167.35 27.45 168.712109375 28.7126953125 170 30 170.75 30.75 171.5 31.5 171.7892578125 31.796484375 172.2 31.8
M 164.6 22.65
Q 164.5642578125 22.2396484375 164.25 21.95 161.8751953125 20.0119140625 159.45 18.2 159.1126953125 17.946484375 158.7 18 158.2953125 18.0634765625 158.05 18.4 157.79609375 18.73671875 157.85 19.15 157.9140625 19.5541015625 158.25 19.8 160.624609375 21.5880859375 162.95 23.5 163.280078125 23.7890625 163.7 23.75 164.110546875 23.702734375 164.35 23.35 164.6392578125 23.058203125 164.6 22.65
M 109.5 -0.3
Q 109.246875 -0.615625 108.8 -0.65 105.8501953125 -0.9013671875 102.8 -0.95 102.4046875 -0.959765625 102.1 -0.7 101.804296875 -0.3869140625 101.8 0 101.78984375 0.4447265625 102.05 0.75 102.363671875 1.0455078125 102.75 1.05 105.749609375 1.101171875 108.65 1.35 109.0841796875 1.3884765625 109.4 1.1 109.716015625 0.8466796875 109.75 0.4 109.7888671875 0.015625 109.5 -0.3
M 97.65 -0.7
Q 97.3794921875 -0.9607421875 96.95 -0.95 93.849609375 -0.85078125 90.8 -0.6 90.40234375 -0.565625 90.1 -0.25 89.8611328125 0.0654296875 89.9 0.45 89.933984375 0.8966796875 90.25 1.15 90.5662109375 1.4384765625 90.95 1.4 93.950390625 1.1505859375 97 1.05 97.439453125 1.0318359375 97.7 0.7 98.0111328125 0.4296875 98 0 97.9822265625 -0.3892578125 97.65 -0.7 Z"/>
</g>

<path id="sunPath_ground_surface_0_Layer3_0_1_STROKES" stroke="#333333" stroke-width="1" stroke-linejoin="round" stroke-linecap="round" fill="none" d="
M -53.05 70.25
L 40.8 4.1"/>

<path id="sunPath_ground_surface_0_Layer2_0_1_STROKES" stroke="#333333" stroke-width="1" stroke-linejoin="round" stroke-linecap="round" fill="none" d="
M -108.15 21
L 112.85 48.4"/>
</defs>

<g id="thing" transform="matrix( 0.871063232421875, 0, 0, 0.7967529296875, 107.45,55.35) ">
<g transform="matrix( 1, 0, 0, 1, 0,0) ">
<g transform="matrix( 1, 0, 0, 1, 0,0) ">
<use xlink:href="#sunPath_ground_surface_0_Layer4_0_FILL"/>
</g>

<g transform="matrix( 1, 0, 0, 1, 0,0) ">
<use xlink:href="#sunPath_ground_surface_0_Layer3_0_1_STROKES"/>
</g>

<g transform="matrix( 1, 0, 0, 1, 0,0) ">
<use xlink:href="#sunPath_ground_surface_0_Layer2_0_1_STROKES"/>
</g>

<g id="dude" transform="matrix( -1.30084228515625, 0, 0, 1.30084228515625, -0.55,18.6) ">
<g transform="matrix( 1, 0, 0, 1, 0,0) ">
<use xlink:href="#sunPath_dude_0_Layer0_0_FILL"/>
</g>
</g>
</g>

<mask id="Mask_Mask_1">
<g transform="matrix( 1, 0, 0, 1, 0,0) ">
<use xlink:href="#Mask_sunPath_path_Wanganui_0_2_MASK_0_FILL"/>
</g>
</mask>

<g mask="url(#Mask_Mask_1)">
<g id="path" transform="matrix( 0.4691314697265625, -0.3266143798828125, 0.7120513916015625, 0.9642333984375, -124.45,-26.4) ">
<g id="earth" transform="matrix( 0.032257080078125, -0.0230865478515625, 0.02325439453125, 0.0324859619140625, 100,199.95) ">
<g transform="matrix( 1, 0, 0, 1, 0,0) ">
<use filter="url(#Filter_1)" xlink:href="#earth_0_Layer1_0_FILL"/>
</g>
</g>

<g transform="matrix( 1, 0, 0, 1, 0,0) ">
<use xlink:href="#sunPath_sun_path_0_Layer2_0_STROKES_1_FILL"/>
</g>
</g>
</g>
</g>
</svg>
