
<svg xmlns="http://www.w3.org/2000/svg" version="1.1" xmlns:xlink="http://www.w3.org/1999/xlink" preserveAspectRatio="none" x="0px" y="0px" width="10px" height="30px" viewBox="0 0 10 30">
<defs>
<linearGradient id="Gradient_1" gradientUnits="userSpaceOnUse" x1="9.25" y1="11.2" x2="-1.25" y2="11.2" spreadMethod="pad">
<stop  offset="0%" stop-color="#FFFFFF"/>

<stop  offset="86.27450980392157%" stop-color="#003366"/>
</linearGradient>

<radialGradient id="Gradient_2" gradientUnits="userSpaceOnUse" cx="0" cy="0" r="2.9000000000000004" fx="0" fy="0" gradientTransform="matrix( 0, -1, 0.6939655172413793, 0, 6.9,10.55) " spreadMethod="pad">
<stop  offset="0%" stop-color="#FFFFFF"/>

<stop  offset="100%" stop-color="#FFFFFF" stop-opacity="0"/>
</radialGradient>

<radialGradient id="Gradient_3" gradientUnits="userSpaceOnUse" cx="0" cy="0" r="6.6375" fx="0" fy="0" gradientTransform="matrix( 0, -1, 0.2900188323917138, 0, 1.8,12.6) " spreadMethod="pad">
<stop  offset="0%" stop-color="#FFFFFF"/>

<stop  offset="100%" stop-color="#FFFFFF" stop-opacity="0"/>
</radialGradient>

<filter id="Filter_1" x="-20%" y="-20%" width="140%" height="140%" color-interpolation-filters="sRGB">
<feColorMatrix in="SourceGraphic" type="matrix" values="1 0 0 0 0 0 1 0 0 0 0 0 1 0 0 0 0 0 0 0" result="result1"/>
</filter>

<g id="agdf_0_Layer0_0_FILL">
<path fill="#FF0000" stroke="none" d="
M -48.2 98.05
L -48.2 66.25 -94.65 66.25 -94.65 98.05 -48.2 98.05 Z"/>
</g>

<g id="Layer3_0_FILL">
<path fill="#001E3C" stroke="none" d="
M 8.15 5.4
Q 8 3.95 6.95 2.9 5.75 1.7 4.1 1.7 2.35 1.7 1.2 2.9 0.15 3.95 0.05 5.4
L 0.05 5.8
Q 0 12.1 0.05 18.35 0 18.5 0.05 18.55
L 0.05 19.2 0 19.2
Q 0.1 20.7 1.2 21.75 2.35 23 4.1 22.95 5.75 23 6.95 21.75 8 20.7 8.15 19.2
L 8.15 5.4 Z"/>
</g>

<g id="Layer2_0_FILL">
<path fill="url(#Gradient_1)" stroke="none" d="
M 6.75 4.2
Q 6.55 3.95 6.35 3.75 5.4 2.8 4.05 2.8 2.7 2.8 1.75 3.75 1.4 4.05 1.2 4.5
L 0.85 5.35
Q 0.8 5.55 0.8 5.75
L 0.8 19.45
Q 0.9 20.6 1.75 21.45 2.7 22.35 4.05 22.4 5.4 22.35 6.35 21.45 7.2 20.6 7.3 19.45
L 7.3 19.15
Q 7.3 17.8 7.3 16.5 7.3 14.65 7.3 12.9 7.3 12.7 7.3 12.55 7.3 10.6 7.3 8.7 7.3 8.5 7.3 8.35
L 7.3 7.15
Q 7.3 6.55 7.3 5.75 7.25 4.85 6.75 4.2 Z"/>
</g>

<g id="Layer1_0_FILL">
<path fill="url(#Gradient_2)" stroke="none" d="
M 5.45 8.05
Q 4.7 8.85 4.5 9.85 4.5 9.9 4.55 9.95 4.5 10.05 4.45 10.15 4.4 10.4 4.4 10.65 4.4 11.05 4.5 11.4 4.65 12.4 5.45 13.2 6.25 14 7.3 14.25
L 7.3 7.1
Q 6.25 7.3 5.45 8.05 Z"/>
</g>

<g id="Layer1_1_FILL">
<path fill="url(#Gradient_3)" stroke="none" d="
M 3.1 6.4
Q 2.7 6 2.1 5.9 1.35 6.1 0.75 7.45
L 0.75 18.15
Q 0.9 18.5 1.1 18.85 1.4 18.9 1.7 18.9
L 1.75 18.9
Q 2.55 18.9 3.1 18.35 3.65 17.8 3.65 17
L 3.65 7.75
Q 3.65 6.95 3.1 6.4 Z"/>
</g>
</defs>

<g transform="matrix( 0.332489013671875, 0, 0, 0.918243408203125, -2.75,14.95) ">
<g transform="matrix( 1, 0, 0, 1, 94.65,-82.15) ">
<use filter="url(#Filter_1)" xlink:href="#agdf_0_Layer0_0_FILL"/>
</g>
</g>

<g transform="matrix( 1, 0, 0, 1, 1.25,2.95) ">
<use xlink:href="#Layer3_0_FILL"/>
</g>

<g transform="matrix( 1, 0, 0, 1, 1.25,2.95) ">
<use xlink:href="#Layer2_0_FILL"/>
</g>

<g transform="matrix( 1, 0, 0, 1, 1.25,2.95) ">
<use xlink:href="#Layer1_0_FILL"/>
</g>

<g transform="matrix( 1, 0, 0, 1, 1.25,2.95) ">
<use xlink:href="#Layer1_1_FILL"/>
</g>
</svg>
