
<svg xmlns="http://www.w3.org/2000/svg" version="1.1" xmlns:xlink="http://www.w3.org/1999/xlink" preserveAspectRatio="none" x="0px" y="0px" width="10px" height="30px" viewBox="0 0 10 30">
<defs>
<linearGradient id="Gradient_1" gradientUnits="userSpaceOnUse" x1="0.2999999999999998" y1="14.85" x2="7.7" y2="14.85" spreadMethod="pad">
<stop  offset="51.76470588235294%" stop-color="#3399FF"/>

<stop  offset="100%" stop-color="#31F3F4"/>
</linearGradient>

<linearGradient id="Gradient_2" gradientUnits="userSpaceOnUse" x1="9.775" y1="11.45" x2="-1.7750000000000004" y2="11.45" spreadMethod="pad">
<stop  offset="0%" stop-color="#FFFFFF"/>

<stop  offset="86.27450980392157%" stop-color="#003366"/>
</linearGradient>

<radialGradient id="Gradient_3" gradientUnits="userSpaceOnUse" cx="0" cy="0" r="3.8875" fx="0" fy="0" gradientTransform="matrix( 0, -1, 0.5176848874598071, 0, 7.15,9.8) " spreadMethod="pad">
<stop  offset="0%" stop-color="#FFFFFF"/>

<stop  offset="100%" stop-color="#FFFFFF" stop-opacity="0"/>
</radialGradient>

<radialGradient id="Gradient_4" gradientUnits="userSpaceOnUse" cx="0" cy="0" r="8.9" fx="0" fy="0" gradientTransform="matrix( 0, -1, 0.21629213483146068, 0, 1.55,12.55) " spreadMethod="pad">
<stop  offset="0%" stop-color="#FFFFFF"/>

<stop  offset="100%" stop-color="#FFFFFF" stop-opacity="0"/>
</radialGradient>

<filter id="Filter_1" x="-20%" y="-20%" width="140%" height="140%" color-interpolation-filters="sRGB">
<feColorMatrix in="SourceGraphic" type="matrix" values="1 0 0 0 0 0 1 0 0 0 0 0 1 0 0 0 0 0 0 0" result="result1"/>
</filter>

<g id="agdf_0_Layer0_0_FILL">
<path fill="#FF0000" stroke="none" d="
M -48.2 98.05
L -48.2 66.25 -94.65 66.25 -94.65 98.05 -48.2 98.05 Z"/>
</g>

<g id="Layer3_0_FILL">
<path fill="#001E3C" stroke="none" d="
M 6.95 -0.05
Q 5.75 -1.65 4.1 -1.65 2.35 -1.65 1.2 -0.05 0.15 1.35 0.05 3.3
L 0.05 3.8
Q 0 12.2 0.05 20.6 0 20.75 0.05 20.85
L 0.05 21.7 0 21.7
Q 0.1 23.7 1.2 25.1 2.35 26.75 4.1 26.7 5.75 26.75 6.95 25.1 8 23.7 8.15 21.7
L 8.15 3.3
Q 8 1.35 6.95 -0.05 Z"/>
</g>

<g id="Layer2_0_FILL">
<path fill="url(#Gradient_1)" stroke="none" d="
M 7.6 4.9
Q 7.6 4.4 7.6 3.9
L 7.6 3.45
Q 7.57578125 2.8203125 7.4 2.25 7.28671875 1.7048828125 7 1.2 7.0171875 1.18125 7 1.15 6.8 0.8 6.6 0.5 5.55 -0.95 4.05 -0.95 2.55 -0.95 1.55 0.5 1.15 1 0.9 1.6
L 0.55 2.9
Q 0.5 3.15 0.5 3.45
L 0.5 21.55
Q 0.6 23.2 1.55 24.5 2.55 25.85 4.05 25.85 5.55 25.85 6.6 24.5 7.5 23.2 7.6 21.55
L 7.6 21.05
Q 7.6 19.65 7.6 18.25 7.6 17.7 7.6 17.2
L 7.6 17.1
Q 7.6 15.05 7.6 12.95 7.6 12.7 7.6 12.5 7.6 10.35 7.6 8.25 7.6 8.05 7.6 7.8 7.6 7.5 7.6 7.3
L 7.6 4.9 Z"/>

<path fill="url(#Gradient_2)" stroke="none" d="
M 7.65 3.5
Q 7.6009765625 2.8369140625 7.4 2.25 7.57578125 2.8203125 7.6 3.45
L 7.6 3.9
Q 7.6 4.4 7.6 4.9 7.6166015625 4.266796875 7.65 3.5 Z"/>
</g>

<g id="Layer1_0_FILL">
<path fill="url(#Gradient_3)" stroke="none" d="
M 5.7 6.45
Q 4.95 7.5 4.75 8.85 4.75 8.95 4.8 9 4.75 9.15 4.7 9.25 4.65 9.6 4.65 9.95 4.65 10.45 4.75 10.95 4.9 12.3 5.7 13.35 6.5 14.45 7.55 14.75
L 7.55 5.15
Q 6.5 5.45 5.7 6.45 Z"/>
</g>

<g id="Layer1_1_FILL">
<path fill="url(#Gradient_4)" stroke="none" d="
M 2.85 4.25
Q 2.45 3.7 1.85 3.55 1.1 3.85 0.5 5.65
L 0.5 20
Q 0.65 20.45 0.85 20.95 1.15 21 1.45 21
L 1.5 21
Q 2.3 21 2.85 20.25 3.4 19.55 3.4 18.45
L 3.4 6.05
Q 3.4 4.95 2.85 4.25 Z"/>
</g>
</defs>

<g transform="matrix( 0.332489013671875, 0, 0, 0.918243408203125, -2.75,14.95) ">
<g transform="matrix( 1, 0, 0, 1, 94.65,-82.15) ">
<use filter="url(#Filter_1)" xlink:href="#agdf_0_Layer0_0_FILL"/>
</g>
</g>

<g transform="matrix( 1, 0, 0, 1, 1.25,2.95) ">
<use xlink:href="#Layer3_0_FILL"/>
</g>

<g transform="matrix( 1, 0, 0, 1, 1.25,2.95) ">
<use xlink:href="#Layer2_0_FILL"/>
</g>

<g transform="matrix( 1, 0, 0, 1, 1.25,2.95) ">
<use xlink:href="#Layer1_0_FILL"/>
</g>

<g transform="matrix( 1, 0, 0, 1, 1.25,2.95) ">
<use xlink:href="#Layer1_1_FILL"/>
</g>
</svg>
