
<svg xmlns="http://www.w3.org/2000/svg" version="1.1" xmlns:xlink="http://www.w3.org/1999/xlink" preserveAspectRatio="none" x="0px" y="0px" width="10px" height="30px" viewBox="0 0 10 30">
<defs>
<linearGradient id="Gradient_1" gradientUnits="userSpaceOnUse" x1="0.2999999999999998" y1="14.35" x2="7.7" y2="14.35" spreadMethod="pad">
<stop  offset="51.76470588235294%" stop-color="#3399FF"/>

<stop  offset="100%" stop-color="#31F3F4"/>
</linearGradient>

<linearGradient id="Gradient_2" gradientUnits="userSpaceOnUse" x1="9.775" y1="11.8" x2="-1.7750000000000004" y2="11.8" spreadMethod="pad">
<stop  offset="0%" stop-color="#FFFFFF"/>

<stop  offset="86.27450980392157%" stop-color="#003366"/>
</linearGradient>

<radialGradient id="Gradient_3" gradientUnits="userSpaceOnUse" cx="0" cy="0" r="2.9000000000000004" fx="0" fy="0" gradientTransform="matrix( 0, -1, 0.6939655172413793, 0, 7.15,10.55) " spreadMethod="pad">
<stop  offset="0%" stop-color="#FFFFFF"/>

<stop  offset="100%" stop-color="#FFFFFF" stop-opacity="0"/>
</radialGradient>

<radialGradient id="Gradient_4" gradientUnits="userSpaceOnUse" cx="0" cy="0" r="6.6375" fx="0" fy="0" gradientTransform="matrix( 0, -1, 0.2900188323917138, 0, 1.55,12.6) " spreadMethod="pad">
<stop  offset="0%" stop-color="#FFFFFF"/>

<stop  offset="100%" stop-color="#FFFFFF" stop-opacity="0"/>
</radialGradient>

<filter id="Filter_1" x="-20%" y="-20%" width="140%" height="140%" color-interpolation-filters="sRGB">
<feColorMatrix in="SourceGraphic" type="matrix" values="1 0 0 0 0 0 1 0 0 0 0 0 1 0 0 0 0 0 0 0" result="result1"/>
</filter>

<g id="agdf_0_Layer0_0_FILL">
<path fill="#FF0000" stroke="none" d="
M -48.2 98.05
L -48.2 66.25 -94.65 66.25 -94.65 98.05 -48.2 98.05 Z"/>
</g>

<g id="Layer4_0_FILL">
<path fill="#FFFFFF" stroke="none" d="
M 4.75 21.2
Q 4.5 21.2 4.3 21.2 4.05 21.2 3.8 21.15 3.6 21.15 3.45 21.15
L 3.45 25 4.75 25 4.75 21.2
M 3.65 7.35
L 3.6 7.3 3.6 7.35 3.65 7.35
M 3.45 4.1
Q 3.55 4.1 3.65 4.1 3.85 4.1 4 4.1 4.35 4.1 4.75 4.1
L 4.75 0 3.45 0 3.45 4.1 Z"/>
</g>

<g id="Layer3_0_FILL">
<path fill="#001E3C" stroke="none" d="
M 8.15 5.65
Q 8 4.2 6.95 3.15 5.75 1.95 4.1 1.95 2.35 1.95 1.2 3.15 0.15 4.2 0.05 5.65
L 0.05 6
Q 0 12.3 0.05 18.55 0 18.65 0.05 18.75
L 0.05 19.35 0 19.35
Q 0.1 20.85 1.2 21.9 2.35 23.15 4.1 23.1 5.75 23.15 6.95 21.9 8 20.9 8.15 19.35
L 8.15 5.65 Z"/>
</g>

<g id="Layer2_0_FILL">
<path fill="url(#Gradient_1)" stroke="none" d="
M 7.6 5.8
Q 7.52578125 4.8478515625 7 4.1 6.8119140625 3.8330078125 6.55 3.6 5.5341796875 2.5525390625 4.05 2.55 2.565625 2.5525390625 1.5 3.6 1.14140625 3.981640625 0.9 4.4
L 0.5 5.35
Q 0.487890625 5.581640625 0.45 5.8
L 0.45 19.25
Q 0.5931640625 20.54765625 1.5 21.45 2.565625 22.509765625 4.05 22.5 5.5341796875 22.509765625 6.55 21.45 7.4939453125 20.5478515625 7.6 19.25
L 7.6 18.9
Q 7.6005859375 17.8875 7.6 16.85 7.6001953125 16.4375 7.6 16
L 7.6 16
Q 7.6009765625 14.4498046875 7.6 12.9 7.6001953125 12.7125 7.6 12.5 7.600390625 10.9623046875 7.6 9.4 7.6 9.225 7.6 9.05 7.6001953125 8.8625 7.6 8.65
L 7.6 7.35
Q 7.600390625 6.7396484375 7.6 6.1
L 7.6 5.8 Z"/>

<path fill="url(#Gradient_2)" stroke="none" d="
M 7.6 5.8
Q 7.5544921875 4.8521484375 7 4.1 7.52578125 4.8478515625 7.6 5.8
L 7.6 6.1
Q 7.600390625 6.7396484375 7.6 7.35 7.615234375 6.6986328125 7.6 5.8 Z"/>
</g>

<g id="Layer1_0_FILL">
<path fill="url(#Gradient_3)" stroke="none" d="
M 5.7 8.05
Q 4.95 8.85 4.75 9.85 4.75 9.9 4.8 9.95 4.75 10.05 4.7 10.15 4.65 10.4 4.65 10.65 4.65 11.05 4.75 11.4 4.9 12.4 5.7 13.2 6.5 14 7.55 14.25
L 7.55 7.1
Q 6.5 7.3 5.7 8.05 Z"/>
</g>

<g id="Layer1_1_FILL">
<path fill="url(#Gradient_4)" stroke="none" d="
M 2.85 6.4
Q 2.45 6 1.85 5.9 1.1 6.1 0.5 7.45
L 0.5 18.15
Q 0.65 18.5 0.85 18.85 1.15 18.9 1.45 18.9
L 1.5 18.9
Q 2.3 18.9 2.85 18.35 3.4 17.8 3.4 17
L 3.4 7.75
Q 3.4 6.95 2.85 6.4 Z"/>
</g>
</defs>

<g transform="matrix( 0.332489013671875, 0, 0, 0.918243408203125, -2.75,14.95) ">
<g transform="matrix( 1, 0, 0, 1, 94.65,-82.15) ">
<use filter="url(#Filter_1)" xlink:href="#agdf_0_Layer0_0_FILL"/>
</g>
</g>

<g transform="matrix( 1, 0, 0, 1, 1.25,2.95) ">
<use xlink:href="#Layer4_0_FILL"/>
</g>

<g transform="matrix( 1, 0, 0, 1, 1.25,2.95) ">
<use xlink:href="#Layer3_0_FILL"/>
</g>

<g transform="matrix( 1, 0, 0, 1, 1.25,2.95) ">
<use xlink:href="#Layer2_0_FILL"/>
</g>

<g transform="matrix( 1, 0, 0, 1, 1.25,2.95) ">
<use xlink:href="#Layer1_0_FILL"/>
</g>

<g transform="matrix( 1, 0, 0, 1, 1.25,2.95) ">
<use xlink:href="#Layer1_1_FILL"/>
</g>
</svg>
