
<svg xmlns="http://www.w3.org/2000/svg" version="1.1" xmlns:xlink="http://www.w3.org/1999/xlink" preserveAspectRatio="none" x="0px" y="0px" width="390px" height="525px" viewBox="0 0 390 525">
<defs>
<radialGradient id="Gradient_1" gradientUnits="userSpaceOnUse" cx="0" cy="0" r="342.35" fx="0" fy="0" gradientTransform="matrix( 0.9999999999999999, 0, 0, 0.9999999999999999, 82.75,-23.6) " spreadMethod="pad">
<stop  offset="0%" stop-color="#0273E3"/>

<stop  offset="100%" stop-color="#0152A0"/>
</radialGradient>

<filter id="Filter_1" x="-20%" y="-20%" width="140%" height="140%" color-interpolation-filters="sRGB">
<feColorMatrix in="SourceGraphic" type="matrix" values="1 0 0 0 0 0 1 0 0 0 0 0 1 0 0 0 0 0 0 0" result="result1"/>
</filter>

<filter id="Filter_2" x="-20%" y="-20%" width="140%" height="140%" color-interpolation-filters="sRGB">
<feColorMatrix in="SourceGraphic" type="matrix" values="1 0 0 0 0 0 1 0 0 0 0 0 1 0 0 0 0 0 0.3 0" result="result1"/>
</filter>

<filter id="Filter_3" x="-20%" y="-20%" width="140%" height="140%" color-interpolation-filters="sRGB">
<feColorMatrix in="SourceGraphic" type="matrix" values="1 0 0 0 0 0 1 0 0 0 0 0 1 0 0 0 0 0 0.2 0" result="result1"/>
</filter>

<g id="Mask_earth_masked_1_4_MASK_0_FILL">
<path fill="#FFFFFF" stroke="none" d="
M 407.55 330.5
L 407.85 330.5
Q 407.7017578125 330.433203125 407.55 330.4
L 407.55 330.5
M 922.7 295
L 922.4 295
Q 922.5625 295.0763671875 922.7 295.05
L 922.7 295
M 919.55 127.2
Q 916.4984375 124.1826171875 912.1 124.15
L 418.1 124.15
Q 413.727734375 124.1826171875 410.6 127.2 407.5287109375 130.25234375 407.5 134.55
L 407.5 289.25 407.55 289.25 407.55 330.4
Q 407.7017578125 330.433203125 407.85 330.5
L 407.55 330.5 407.55 419.3 407.5 419.3 407.5 627.95
Q 407.5287109375 632.2611328125 410.6 635.25 413.727734375 638.330859375 418.1 638.3
L 912.1 638.3
Q 916.4984375 638.330859375 919.55 635.25 922.69765625 632.2611328125 922.7 627.95
L 922.7 295.05
Q 922.5625 295.0763671875 922.4 295
L 922.7 295 922.7 134.55
Q 922.69765625 130.25234375 919.55 127.2 Z"/>
</g>

<g id="movies_world_0_Layer12_0_FILL">
<path fill="#FFFFCC" stroke="none" d="
M -0.3 -270.95
Q -1.65 -272.3 -3.5 -272.3 -5.35 -272.3 -6.65 -270.95 -8 -269.65 -8 -267.8
L -8 265.95
Q -8 267.8 -6.65 269.15 -5.35 270.45 -3.5 270.45 -1.65 270.45 -0.3 269.15 1 267.8 1 265.95
L 1 -267.8
Q 1 -269.65 -0.3 -270.95 Z"/>
</g>

<g id="tag_gfx1_0_Layer0_0_FILL">
<path fill="#E7F2F6" stroke="none" d="
M 24.4 4.6
Q 23.048828125 3.250390625 21.25 2.5 19.384375 1.7017578125 17.35 1.7 16.0927734375 1.701171875 14.9 2 14.1626953125 2.194921875 13.45 2.5 11.6634765625 3.250390625 10.3 4.6 8.8953125 6.03125 8.1 7.8 7.3462890625 9.6779296875 7.35 11.7 7.3462890625 13.7482421875 8.1 15.6 8.8953125 17.3810546875 10.3 18.75 11.6634765625 20.1623046875 13.45 20.9 15.3154296875 21.7107421875 17.35 21.7 19.384375 21.7107421875 21.25 20.9 23.048828125 20.1623046875 24.4 18.75 25.815234375 17.3810546875 26.55 15.6 26.582421875 15.525390625 26.6 15.45 27.3517578125 13.6666015625 27.35 11.7 27.3517578125 9.6779296875 26.55 7.8 25.815234375 6.03125 24.4 4.6 Z"/>
</g>

<g id="tag_gfx1_0_Layer0_1_FILL">
<path fill="#CCFFFF" fill-opacity="0.24705882352941178" stroke="none" d="
M 32.2 10.25
L 32.2 10.2
Q 30.9 7.2 28.65 4.9
L 28.6 4.9
Q 26.3 2.6 23.3 1.35 20.2 0 16.75 0 13.35 0 10.25 1.3
L 10.25 1.35
Q 7.25 2.6 4.95 4.9
L 4.9 4.9
Q 2.6 7.2 1.35 10.2
L 1.3 10.25
Q 0 13.3 0 16.75 0 20.15 1.35 23.25 2.6 26.25 4.9 28.6
L 4.95 28.65
Q 7.25 30.9 10.25 32.2 13.35 33.5 16.75 33.5 20.15 33.5 23.3 32.2 26.3 30.9 28.6 28.65
L 28.65 28.6
Q 30.9 26.25 32.2 23.25 33.5 20.15 33.5 16.75 33.5 13.3 32.2 10.25
M 31.25 10.6
L 31.3 10.6
Q 32.5 13.5 32.5 16.75 32.5 19.95 31.3 22.9 30.05 25.7 27.9 27.9 25.7 30.05 22.9 31.25
L 22.9 31.3
Q 19.95 32.5 16.75 32.5 13.55 32.5 10.65 31.3 7.8 30.05 5.65 27.9
L 5.6 27.9
Q 3.45 25.7 2.25 22.9 1 19.95 1 16.75 1 13.5 2.25 10.65
L 2.25 10.6
Q 3.45 7.8 5.6 5.6
L 5.65 5.6
Q 7.8 3.45 10.65 2.25 13.6 1 16.75 1 20 1 22.9 2.25 25.7 3.45 27.9 5.6 30.05 7.8 31.25 10.6 Z"/>

<path fill="#CCFFFF" fill-opacity="0.4980392156862745" stroke="none" d="
M 31.3 10.6
L 31.25 10.6
Q 30.05 7.8 27.9 5.6 25.7 3.45 22.9 2.25 20 1 16.75 1 13.6 1 10.65 2.25 7.8 3.45 5.65 5.6
L 5.6 5.6
Q 3.45 7.8 2.25 10.6
L 2.25 10.65
Q 1 13.5 1 16.75 1 19.95 2.25 22.9 3.45 25.7 5.6 27.9
L 5.65 27.9
Q 7.8 30.05 10.65 31.3 13.55 32.5 16.75 32.5 19.95 32.5 22.9 31.3
L 22.9 31.25
Q 25.7 30.05 27.9 27.9 30.05 25.7 31.3 22.9 32.5 19.95 32.5 16.75 32.5 13.5 31.3 10.6
M 22.5 3.15
Q 25.15 4.25 27.2 6.3
L 27.2 6.35
Q 29.25 8.35 30.35 11 31.5 13.7 31.5 16.75 31.5 19.75 30.35 22.5 29.25 25.1 27.2 27.2 25.15 29.25 22.5 30.35 19.75 31.5 16.75 31.5 13.75 31.5 11.05 30.35 8.4 29.25 6.35 27.2
L 6.3 27.2
Q 4.25 25.1 3.15 22.5 2 19.75 2 16.75 2 13.7 3.15 11 4.25 8.35 6.3 6.35
L 6.35 6.3
Q 8.4 4.25 11.05 3.15 13.75 2 16.75 2 19.8 2 22.5 3.15 Z"/>

<path fill="#CCFFFF" fill-opacity="0.7490196078431373" stroke="none" d="
M 27.2 6.3
Q 25.15 4.25 22.5 3.15 19.8 2 16.75 2 13.75 2 11.05 3.15 8.4 4.25 6.35 6.3
L 6.3 6.35
Q 4.25 8.35 3.15 11 2 13.7 2 16.75 2 19.75 3.15 22.5 4.25 25.1 6.3 27.2
L 6.35 27.2
Q 8.4 29.25 11.05 30.35 13.75 31.5 16.75 31.5 19.75 31.5 22.5 30.35 25.15 29.25 27.2 27.2 29.25 25.1 30.35 22.5 31.5 19.75 31.5 16.75 31.5 13.7 30.35 11 29.25 8.35 27.2 6.35
L 27.2 6.3
M 22.15 4.1
Q 24.55 5.1 26.5 7.05 28.4 8.95 29.45 11.4 30.5 13.9 30.5 16.75 30.5 19.55 29.45 22.1 28.4 24.55 26.5 26.5 24.55 28.4 22.15 29.45 19.55 30.5 16.75 30.5 13.95 30.5 11.45 29.45
L 11.4 29.45
Q 8.95 28.4 7.05 26.5 5.1 24.55 4.1 22.1 3 19.55 3 16.75 3 13.95 4.1 11.4 5.1 8.95 7.05 7.05 8.95 5.1 11.4 4.1
L 11.45 4.1
Q 14 3 16.75 3 19.6 3 22.15 4.1 Z"/>

<path fill="#CCFFFF" stroke="none" d="
M 26.5 7.05
Q 24.55 5.1 22.15 4.1 19.6 3 16.75 3 14 3 11.45 4.1
L 11.4 4.1
Q 8.95 5.1 7.05 7.05 5.1 8.95 4.1 11.4 3 13.95 3 16.75 3 19.55 4.1 22.1 5.1 24.55 7.05 26.5 8.95 28.4 11.4 29.45
L 11.45 29.45
Q 13.95 30.5 16.75 30.5 19.55 30.5 22.15 29.45 24.55 28.4 26.5 26.5 28.4 24.55 29.45 22.1 30.5 19.55 30.5 16.75 30.5 13.9 29.45 11.4 28.4 8.95 26.5 7.05 Z"/>
</g>

<g id="tag_gfx1_0_Layer0_2_FILL">
<path fill="#2F3D73" stroke="none" d="
M 28.2 16.75
Q 28.2 14.45 27.3 12.3 26.45 10.25 24.85 8.65 23.25 7.05 21.25 6.2 19.1 5.3 16.75 5.35 14.45 5.3 12.3 6.2 10.25 7.05 8.7 8.65 7.1 10.25 6.25 12.3 5.35 14.45 5.35 16.75 5.3 19.05 6.25 21.2 7.1 23.25 8.7 24.85 10.25 26.4 12.3 27.3 14.45 28.15 16.75 28.2 19.1 28.2 21.25 27.3 23.25 26.4 24.85 24.85 26.45 23.25 27.3 21.2 28.2 19.05 28.2 16.75 Z"/>
</g>

<g id="tag_gfx1_0_Layer0_3_FILL">
<path fill="#FFFFFF" fill-opacity="0.30196078431372547" stroke="none" d="
M 5.4 16.7
Q 5.4 21.45 8.75 24.75 12.1 28.1 16.8 28.1 21.5 28.1 24.85 24.75 28.15 21.45 28.15 16.7 28.15 12 24.85 8.7 21.5 5.35 16.8 5.35 12.1 5.35 8.75 8.7 5.4 12 5.4 16.7 Z"/>
</g>

<g id="Mask_movies_world_0_10_MASK_0_FILL">
<path fill="#FFFFFF" stroke="none" d="
M 155.7 -155.55
Q 91.25 -220 0.1 -220 -91.05 -220 -155.5 -155.55 -219.95 -91.1 -219.95 0.05 -219.95 91.2 -155.5 155.65 -91.05 220.1 0.1 220.1 91.25 220.1 155.7 155.65 220.15 91.2 220.15 0.05 220.15 -91.1 155.7 -155.55 Z"/>
</g>

<g id="movies_world_0_Layer10_0_FILL">
<path fill="url(#Gradient_1)" stroke="none" d="
M 155.7 -155.55
Q 91.25 -220 0.1 -220 -91.05 -220 -155.5 -155.55 -219.95 -91.1 -219.95 0.05 -219.95 91.2 -155.5 155.65 -91.05 220.1 0.1 220.1 91.25 220.1 155.7 155.65 220.15 91.2 220.15 0.05 220.15 -91.1 155.7 -155.55 Z"/>
</g>

<g id="movies_world_0_Layer9_0_FILL">
<path fill="#4CEB80" stroke="none" d="
M -140.8 -159.65
Q -134.25 -158.35 -132 -167.5
L -143 -159.5
Q -141.9 -159.7 -140.8 -159.65
M -118 -183.5
L -118.1 -184.25
Q -139.35 -172.95 -156 -155.5 -158.25 -153.15 -159.65 -150.4 -153.35 -155.45 -147 -160.5
L -148 -160.5
Q -145.65 -163.05 -142.55 -164.5 -137 -167 -131 -168.5
L -125 -174.5 -128.1 -175.3
Q -123.05 -179.4 -118 -183.5
M -22 -136.95
Q -22 -137.55 -22.45 -137.95 -22.9 -138.4 -23.5 -138.4 -24.1 -138.4 -24.55 -137.95 -25 -137.55 -25 -136.95 -25 -136.35 -24.55 -135.9 -24.1 -135.5 -23.5 -135.5 -22.9 -135.5 -22.45 -135.9 -22 -136.35 -22 -136.95
M -4 -147.5
Q -6.15 -144.95 -7.2 -141.55 -8.85 -136.15 -5 -136.5
L -4 -147.5
M -54.9 -195.95
L -41.6 -197.7
Q -45.25 -198.5 -48.95 -198.75 -52.9 -199.15 -54.9 -195.95
M -38.5 -170.35
L -38.5 -176.45 -47.4 -176.45 -47.4 -170.35 -38.5 -170.35
M -36 -181.5
L -32.7 -175.85 -33 -173.1 -36.75 -169.75
Q -34.65 -169.1 -32.5 -168.65 -26.85 -167.15 -22.45 -170.75
L -22.85 -170.95
Q -27.2 -177.1 -31.05 -183.8
L -30.2 -184.35
Q -33.15 -183 -36 -181.5
M -207 -38.5
L -211.35 -39.15 -215.2 -40.6 -215.85 -36.4 -217.45 -34.6
Q -218.5 -26.65 -219.05 -18.65 -220.05 -4.25 -219.3 10 -217.75 38.25 -208.3 64.95 -207.2 68.05 -206.1 71.2 -205 74.3 -204 77.5
L -202.55 79.05 -202 82.5
Q -200.8 84.8 -199.9 87.25 -196.45 96.25 -192.15 104.75 -178.3 132.25 -156.35 153.85 -149.45 160.6 -142 166.5
L -162.6 139.55 -161.5 139
Q -160.9 138.1 -161.05 136.8 -161.1 136.45 -161.2 136.15 -161.5 135.25 -161.9 134.5 -162.6 132.95 -163.35 131.5 -164.7 129 -166 126.5
L -164.15 124.55 -168 96.5 -167.3 96.45 -166.8 95.85 -167 90.5
Q -166.25 89.85 -165.45 89.2 -164.65 88.6 -163.8 88.1 -162.55 87.4 -161.2 86.8
L -164 57.5
Q -162.8 54.85 -161.5 52.35 -159.85 49.25 -158.05 46.4 -155.5 42.35 -155.35 37.5 -155.1 31 -156.2 24.6 -161.85 19.75 -168.1 16.1 -172.5 13.6 -177.65 13.25
L -179.75 8.9 -183.75 6.3 -190.45 10.45
Q -190.6 10.35 -190.7 10.25 -190.9 10.1 -191 9.95 -191.3 9.65 -191.5 9.35 -191.65 9.2 -191.65 9 -191.7 8.75 -191.7 8.6
L -191.65 8.65 -190.3 8.65 -188.9 3.95 -191.95 1.75 -193 -13.5 -206.55 -28.9 -207 -38.5
M -205.85 -78.95
Q -206.6 -76.7 -206 -74.75 -205.4 -72.65 -206 -76.5
L -204 -84.05
Q -205 -81.55 -205.85 -78.95
M -207 -70.5
Q -209.95 -67.65 -207.7 -66.55 -207.55 -66.5 -207.3 -66.5
L -207 -70.5
M -92 -200.55
L -95.45 -198.3 -88.05 -202 -92 -200.55
M 114.1 66.7
L 113.05 71.5 108 84.5 108 96.5 112 97.5
Q 119.65 95.65 119 87.5
L 120.5 85.5 124 77.5 126 76.5 133.95 62.95 132.9 50.2 129.95 51.5 128.75 54.25 125.95 56 119.85 66.1 114.1 66.7
M 8 -130.55
Q 8 -130.1 8.65 -129.8 9.3 -129.5 10.2 -129.5 11.1 -129.5 11.75 -129.8 12.4 -130.1 12.4 -130.55 12.4 -131 11.75 -131.3 11.1 -131.6 10.2 -131.6 9.3 -131.6 8.65 -131.3 8 -131 8 -130.55
M 50.1 -209.55
Q 48.7 -213.1 48 -211.5 47.65 -210.15 48.7 -209.75 50.3 -209.05 50.1 -209.55
M 36.15 -200.55
L 38.45 -201.4
Q 39.1 -198.6 42 -199.5
L 40 -202.5
Q 23.1 -208.75 8.85 -201.3 8.55 -201.05 8 -200.65 2.8 -198.35 -2.6 -194.55 -4.35 -193.4 -6.5 -192.8 -10.05 -193.15 -8.75 -189.6
L -8.9 -185.15
Q -6.35 -183.6 -5.05 -186.05
L -1.3 -187.4 5 -178.5 10.55 -180.45 11 -185.5 13 -186.5
Q 11.25 -192.95 15.65 -193.45
L 18 -197.5 24.45 -197.25 20.1 -191.9 36.8 -190.3 33.85 -186.95 26 -187.5 28.55 -183.45 24 -183.5 23.75 -178.25 20 -176.5
Q 18.95 -173.25 12 -173.65 6.55 -174.35 0.75 -175.1 -1.2 -174.95 -1.9 -176.55
L -0.4 -182.55 -5 -182.5 -5 -172.1 -12 -172.5 -23.05 -166.1
Q -26.5 -166.05 -26 -163.1
L -31 -162.5
Q -31 -162 -31.05 -161.5 -31.05 -161.25 -31.2 -161.15 -31.6 -160.8 -32.1 -160.65
L -37 -161.5
Q -36 -160.65 -34 -156.3 -32.35 -152.75 -34.85 -149.75 -35.55 -148.9 -36.05 -147.95
L -44.55 -148.4 -53 -149.5 -55.75 -143.2 -56.7 -137.4 -58 -135.5 -57.85 -131.05 -52.15 -129.05 -48 -126.5 -46 -128.5 -38 -129.5 -35 -131.5 -17.45 -148.4
Q -7.6 -151 1.45 -147.4 5.75 -145.65 9.15 -142.55 11.45 -140.35 15 -139.5
L 17.95 -134.05 18 -138.5 21 -140.5 15 -142.5
Q 15.6 -144.45 13.8 -144.35 13.35 -144.15 12.9 -144.25
L 5 -154.5 10.6 -154.55 12 -152.5
Q 26.3 -143.4 34 -128.75 34.2 -128.45 34.85 -128.3 39.65 -129.7 38.5 -135.35 38.05 -137.7 37 -139.5
L 44.85 -138.9 51 -128.5 55.05 -129.6 59.95 -127.95 62.7 -129.15 65.1 -126.7 75 -126.85 75 -110.5 70.1 -109.7 61 -110.5 60 -108.3 54.55 -111.05 39.9 -112.15
Q 40.2 -116.25 34 -113.75 32.05 -113 30.45 -111.85 29.95 -111.5 30.15 -110.6 30.2 -110.3 30.15 -109.95
L 27.25 -108.5 7 -117.5 1.55 -118.05 -1.35 -119.5 -2 -124.5 -0.05 -126.95 -17.7 -127.05 -51.7 -121.8 -54.4 -122.45
Q -61.2 -116.85 -65.55 -110.5 -65.9 -109.95 -65.95 -109.25
L -71 -106.5
Q -76.5 -103.65 -74.8 -100.2
L -76.15 -98.9 -79 -98.5 -82 -96.5 -95 -78.5 -95 -74.5 -93.7 -72.55 -94.25 -61.7 -97.05 -57.95 -100 -55.5
Q -97.8 -49.15 -96.4 -44.7 -96.3 -44.45 -95.55 -44.35
L -91.7 -40.45 -90.9 -37.5 -89.25 -35.25 -87.7 -32.15 -88 -29.5 -86.05 -25.95 -78 -20.5 -73.4 -19.55 -66 -15.5 -56.4 -19.5 -53 -17.5 -43.6 -17 -36 -21.5 -23.1 -22 -20.1 -19.15
Q -18.75 -13.85 -11.1 -15.9 -10.5 -16 -10 -16.5 -3.95 -14.15 -3.85 -7.5 -3.8 -5.6 -5 -5.5
L -5.9 4.1 4.95 24.05 5.3 26.7 7.8 28.75 8 33.5 9.3 35.45 8.9 39.95 10.4 49.5 3 63.5 3 74.5 10.3 89.25 12.9 90.85 14 96.15 20.45 112.05 25 124.5 29 126.5 35 125.5 36 123.5 45 123.5
Q 45.5 123.5 45.6 123.3 46 122.5 46 121.5
L 52.75 121.25 64.75 113.25 65.65 110.15 69.75 109.25 74.75 98.25 76.15 94.3 80.8 91.4 81 87.5 82.5 86.45 84 77.5 92 68.5 100 63.5 104 60.5 104 53.5 105.3 51.75 106 41.5 104.45 40.35 103 26.5 104.45 22.95 105 17.5 109.8 11.4 110 6.5 123.15 -11.25 128.75 -16.75 129 -19.5
Q 140.3 -28.85 139 -43.5
L 132.05 -41.5 130 -41.5 128.8 -39.85 118.2 -38.8 115 -42.5
Q 114.05 -50.8 106.4 -54.4 106 -55.65 105.3 -56.55 104.8 -57.2 103.95 -57.8
L 102 -60.5 98.4 -61.4 71 -107.5 81.1 -101.1 106.4 -68.9 107.25 -64.7 110.9 -58.9 111 -55.5 116.1 -48 118.65 -49.85 123 -50.5 140 -58.5 141 -60.5 145 -61.4 148.95 -64.95 149 -68.5 150.75 -69.8 153 -82.5 141.2 -92.95 137.85 -87.95 130 -90.8 129.8 -91.1
Q 128.9 -90.2 127.85 -90.9
L 116 -108.5
Q 125.3 -106.1 131 -99.5
L 131.25 -100.4
Q 131.3 -100.5 131.65 -100.5
L 133.45 -97.3 140.45 -96.9 145.6 -92.55 158 -92.5 163.65 -92.85
Q 160.3 -91.2 164.85 -91.05
L 173.95 -84.1 174 -81.5 176.15 -77.75 181 -81 199.55 -33.95
Q 204.45 -43.75 199 -57.5
L 203 -79.85
Q 200.9 -81.55 202.6 -81.65 203.05 -81.8 203.55 -81.55
L 211.1 -61.05 211.5 -60.5
Q 196.5 -115.45 156.2 -156.05 118.85 -193.8 69 -208.5
L 67.6 -206.55 72 -203.5
Q 74.35 -204.05 76.35 -203.35 77.75 -202.9 79.1 -202.3
L 75.55 -201.9 72 -203.5 68.6 -203.45 55.4 -199.7
Q 52.4 -201.1 53.25 -199.05 53.5 -198.55 52.6 -198.75 48.8 -200.2 50.6 -195.6 45.3 -197.95 47.25 -194.7
L 36.15 -200.55
M 93.8 -155.4
L 98.2 -159.1 108 -154.5 102 -152.5 115.6 -141.65
Q 115.25 -141.1 114.7 -141.15
L 113.85 -141.45
Q 119.35 -135.65 122 -128.1 121.95 -128.05 121.95 -127.95 113.75 -126.7 109.1 -133
L 93.8 -155.4
M 84.8 -144.4
L 83 -142.5 73.2 -143.65 47.8 -139.55 49.45 -144.4 46.9 -147.7 50.95 -155 65 -154.5
Q 64.3 -157.35 69.1 -158.6
L 73 -152.5 84.8 -144.4 Z"/>
</g>

<g id="movies_world_0_Layer9_1_FILL">
<path fill="#FFFFFF" stroke="none" d="
M -88.8 198.8
L -91 198.5 -94 196.5 -89.3 200.45 -88 202.45 -85 202.5 -83.9 204 -59.05 211.95 -88.8 198.8
M -66.4 -200.55
L -66.65 -200.8
Q -49.1 -201.15 -34.2 -211.75 -33.25 -212.5 -32.25 -213 -26.7 -215.45 -23.4 -216.55
L -20 -218.5
Q -44.5 -218.55 -66.1 -208.95 -82.1 -203.95 -95.6 -192.05 -96.3 -191.45 -95.8 -190.5
L -92 -189.5
Q -92 -190 -91.75 -190.3 -91.35 -190.85 -90.7 -191.2
L -66.4 -200.55
M 92 200.75
L 86.05 201.15
Q 85.5 201.8 85 202.5
L 78.45 204.75 75.75 204.75 73 202.5 70.35 202.8 67 200.5 38.55 205.45
Q 28.15 202.5 16.75 205.6 13.95 206.35 10.95 206.8
L 5.55 204.5 -10.05 206.8 -13.85 204.75 -34 210.5 -30 216.5 -38.4 216.45 -40 215.5 -45 215.5
Q 26.1 229.6 92 200.75
M 7 -217.5
L 9.55 -219.45 14 -219.5 -10 -219.8
Q -6.9 -219.35 -3.25 -218.85 3.1 -218.15 7 -216.5
L 7 -217.5 Z"/>
</g>

<g id="movies_world_0_Layer8_0_FILL">
<path fill="#FFFFCC" stroke="none" d="
M -4.65 -1.05
Q -5.083984375 -1.4947265625 -5.7 -1.5
L -15.7 -1.5
Q -16.316015625 -1.4947265625 -16.75 -1.05 -17.1947265625 -0.616015625 -17.2 0 -17.1947265625 0.616015625 -16.75 1.05 -16.316015625 1.4947265625 -15.7 1.5
L -5.7 1.5
Q -5.083984375 1.4947265625 -4.65 1.05 -4.2052734375 0.616015625 -4.2 0 -4.2052734375 -0.616015625 -4.65 -1.05
M -40.7 -1.5
Q -41.316015625 -1.4947265625 -41.75 -1.05 -42.1947265625 -0.616015625 -42.2 0 -42.1947265625 0.616015625 -41.75 1.05 -41.316015625 1.4947265625 -40.7 1.5
L -30.7 1.5
Q -30.083984375 1.4947265625 -29.65 1.05 -29.2052734375 0.616015625 -29.2 0 -29.2052734375 -0.616015625 -29.65 -1.05 -30.083984375 -1.4947265625 -30.7 -1.5
L -40.7 -1.5
M -54.65 -1.05
Q -55.083984375 -1.4947265625 -55.7 -1.5
L -65.7 -1.5
Q -66.316015625 -1.4947265625 -66.75 -1.05 -67.1947265625 -0.616015625 -67.2 0 -67.1947265625 0.616015625 -66.75 1.05 -66.316015625 1.4947265625 -65.7 1.5
L -55.7 1.5
Q -55.083984375 1.4947265625 -54.65 1.05 -54.2052734375 0.616015625 -54.2 0 -54.2052734375 -0.616015625 -54.65 -1.05
M -90.7 -1.5
Q -91.316015625 -1.4947265625 -91.75 -1.05 -92.1947265625 -0.616015625 -92.2 0 -92.1947265625 0.616015625 -91.75 1.05 -91.316015625 1.4947265625 -90.7 1.5
L -80.7 1.5
Q -80.083984375 1.4947265625 -79.65 1.05 -79.2052734375 0.616015625 -79.2 0 -79.2052734375 -0.616015625 -79.65 -1.05 -80.083984375 -1.4947265625 -80.7 -1.5
L -90.7 -1.5
M -104.65 -1.05
Q -105.083984375 -1.4947265625 -105.7 -1.5
L -115.7 -1.5
Q -116.316015625 -1.4947265625 -116.75 -1.05 -117.1947265625 -0.616015625 -117.2 0 -117.1947265625 0.616015625 -116.75 1.05 -116.316015625 1.4947265625 -115.7 1.5
L -105.7 1.5
Q -105.083984375 1.4947265625 -104.65 1.05 -104.2052734375 0.616015625 -104.2 0 -104.2052734375 -0.616015625 -104.65 -1.05
M -129.65 -1.05
Q -130.083984375 -1.4947265625 -130.7 -1.5
L -140.7 -1.5
Q -141.316015625 -1.4947265625 -141.75 -1.05 -142.1947265625 -0.616015625 -142.2 0 -142.1947265625 0.616015625 -141.75 1.05 -141.316015625 1.4947265625 -140.7 1.5
L -130.7 1.5
Q -130.083984375 1.4947265625 -129.65 1.05 -129.2052734375 0.616015625 -129.2 0 -129.2052734375 -0.616015625 -129.65 -1.05
M -165.7 -1.5
Q -166.316015625 -1.4947265625 -166.75 -1.05 -167.1947265625 -0.616015625 -167.2 0 -167.1947265625 0.616015625 -166.75 1.05 -166.316015625 1.4947265625 -165.7 1.5
L -155.7 1.5
Q -155.083984375 1.4947265625 -154.65 1.05 -154.2052734375 0.616015625 -154.2 0 -154.2052734375 -0.616015625 -154.65 -1.05 -155.083984375 -1.4947265625 -155.7 -1.5
L -165.7 -1.5
M -179.65 -1.05
Q -180.083984375 -1.4947265625 -180.7 -1.5
L -190.7 -1.5
Q -191.316015625 -1.4947265625 -191.75 -1.05 -192.1947265625 -0.616015625 -192.2 0 -192.1947265625 0.616015625 -191.75 1.05 -191.316015625 1.4947265625 -190.7 1.5
L -180.7 1.5
Q -180.083984375 1.4947265625 -179.65 1.05 -179.2052734375 0.616015625 -179.2 0 -179.2052734375 -0.616015625 -179.65 -1.05
M -204.65 -1.05
Q -205.083984375 -1.4947265625 -205.7 -1.5
L -215.7 -1.5
Q -216.316015625 -1.4947265625 -216.75 -1.05 -217.1947265625 -0.616015625 -217.2 0 -217.1947265625 0.616015625 -216.75 1.05 -216.316015625 1.4947265625 -215.7 1.5
L -205.7 1.5
Q -205.083984375 1.4947265625 -204.65 1.05 -204.2052734375 0.616015625 -204.2 0 -204.2052734375 -0.616015625 -204.65 -1.05
M 220.35 -1.05
Q 219.916015625 -1.4947265625 219.3 -1.5
L 209.3 -1.5
Q 208.683984375 -1.4947265625 208.25 -1.05 207.8052734375 -0.616015625 207.8 0 207.8052734375 0.616015625 208.25 1.05 208.683984375 1.4947265625 209.3 1.5
L 219.3 1.5
Q 219.916015625 1.4947265625 220.35 1.05 220.7947265625 0.616015625 220.8 0 220.7947265625 -0.616015625 220.35 -1.05
M 195.35 -1.05
Q 194.916015625 -1.4947265625 194.3 -1.5
L 184.3 -1.5
Q 183.683984375 -1.4947265625 183.25 -1.05 182.8052734375 -0.616015625 182.8 0 182.8052734375 0.616015625 183.25 1.05 183.683984375 1.4947265625 184.3 1.5
L 194.3 1.5
Q 194.916015625 1.4947265625 195.35 1.05 195.7947265625 0.616015625 195.8 0 195.7947265625 -0.616015625 195.35 -1.05
M 159.3 -1.5
Q 158.683984375 -1.4947265625 158.25 -1.05 157.8052734375 -0.616015625 157.8 0 157.8052734375 0.616015625 158.25 1.05 158.683984375 1.4947265625 159.3 1.5
L 169.3 1.5
Q 169.916015625 1.4947265625 170.35 1.05 170.7947265625 0.616015625 170.8 0 170.7947265625 -0.616015625 170.35 -1.05 169.916015625 -1.4947265625 169.3 -1.5
L 159.3 -1.5
M 145.35 -1.05
Q 144.916015625 -1.4947265625 144.3 -1.5
L 134.3 -1.5
Q 133.683984375 -1.4947265625 133.25 -1.05 132.8052734375 -0.616015625 132.8 0 132.8052734375 0.616015625 133.25 1.05 133.683984375 1.4947265625 134.3 1.5
L 144.3 1.5
Q 144.916015625 1.4947265625 145.35 1.05 145.7947265625 0.616015625 145.8 0 145.7947265625 -0.616015625 145.35 -1.05
M 120.35 -1.05
Q 119.916015625 -1.4947265625 119.3 -1.5
L 109.3 -1.5
Q 108.683984375 -1.4947265625 108.25 -1.05 107.8052734375 -0.616015625 107.8 0 107.8052734375 0.616015625 108.25 1.05 108.683984375 1.4947265625 109.3 1.5
L 119.3 1.5
Q 119.916015625 1.4947265625 120.35 1.05 120.7947265625 0.616015625 120.8 0 120.7947265625 -0.616015625 120.35 -1.05
M 95.35 -1.05
Q 94.916015625 -1.4947265625 94.3 -1.5
L 84.3 -1.5
Q 83.683984375 -1.4947265625 83.25 -1.05 82.8052734375 -0.616015625 82.8 0 82.8052734375 0.616015625 83.25 1.05 83.683984375 1.4947265625 84.3 1.5
L 94.3 1.5
Q 94.916015625 1.4947265625 95.35 1.05 95.7947265625 0.616015625 95.8 0 95.7947265625 -0.616015625 95.35 -1.05
M 70.35 -1.05
Q 69.916015625 -1.4947265625 69.3 -1.5
L 59.3 -1.5
Q 58.683984375 -1.4947265625 58.25 -1.05 57.8052734375 -0.616015625 57.8 0 57.8052734375 0.616015625 58.25 1.05 58.683984375 1.4947265625 59.3 1.5
L 69.3 1.5
Q 69.916015625 1.4947265625 70.35 1.05 70.7947265625 0.616015625 70.8 0 70.7947265625 -0.616015625 70.35 -1.05
M 34.3 -1.5
Q 33.683984375 -1.4947265625 33.25 -1.05 32.8052734375 -0.616015625 32.8 0 32.8052734375 0.616015625 33.25 1.05 33.683984375 1.4947265625 34.3 1.5
L 44.3 1.5
Q 44.916015625 1.4947265625 45.35 1.05 45.7947265625 0.616015625 45.8 0 45.7947265625 -0.616015625 45.35 -1.05 44.916015625 -1.4947265625 44.3 -1.5
L 34.3 -1.5
M 20.35 -1.05
Q 19.916015625 -1.4947265625 19.3 -1.5
L 9.3 -1.5
Q 8.683984375 -1.4947265625 8.25 -1.05 7.8052734375 -0.616015625 7.8 0 7.8052734375 0.616015625 8.25 1.05 8.683984375 1.4947265625 9.3 1.5
L 19.3 1.5
Q 19.916015625 1.4947265625 20.35 1.05 20.7947265625 0.616015625 20.8 0 20.7947265625 -0.616015625 20.35 -1.05 Z"/>
</g>

<g id="placeMarker_0_Layer0_0_FILL">
<path fill="#FF0000" stroke="none" d="
M 359 -152.5
Q 359 -159.35 354.45 -164.2 349.9 -169 343.5 -169 337.1 -169 332.55 -164.2 328 -159.35 328 -152.5 328 -145.65 332.55 -140.85 337.1 -136 343.5 -136 349.9 -136 354.45 -140.85 359 -145.65 359 -152.5 Z"/>
</g>

<g id="Mask_theShadow2_0_1_MASK_0_FILL">
<path fill="#FFFFFF" stroke="none" d="
M 69.1 45.8
Q 69.130078125 35.4380859375 61.75 28.1 54.46015625 20.80390625 44.1 20.8 33.790234375 20.80390625 26.4 28.1 19.1201171875 35.4380859375 19.1 45.8 19.1201171875 56.1619140625 26.4 63.45 33.790234375 70.79609375 44.1 70.8 54.46015625 70.79609375 61.75 63.45 69.130078125 56.1619140625 69.1 45.8 Z"/>
</g>

<g id="Mask_Mask_shadow_RK_1_Layer0_0_FILL">
<path fill="#FFFFFF" stroke="none" d="
M 42.65 42.65
Q 49.98046875 35.3712890625 49.95 25 49.98046875 14.6232421875 42.65 7.25 35.312109375 -0.003125 24.95 0 14.644921875 -0.003125 7.3 7.25 -0.03046875 14.6232421875 -0.05 25 -0.03046875 35.3712890625 7.3 42.65 14.644921875 49.99765625 24.95 50 35.312109375 49.99765625 42.65 42.65 Z"/>
</g>

<g id="shadow_mask_RK_4_45_Layer1_0_FILL">
<path fill="#000000" stroke="none" d="
M 25 -10.7
L 24.7 -10.75 -28.85 -10.75 -28.85 58.65 -28.75 59.1 24.3 59.1 25 58.9 25 50.8
Q 25.35 47.35 25.6 42.45 25.85 33.95 25.85 24.85 25.85 15.75 25.6 7.3 25.35 2.75 25 -0.3
L 25 -10.7 Z"/>
</g>

<g id="shadow_mask_RK_4_43_Layer1_0_FILL">
<path fill="#000000" stroke="none" d="
M 25 -10.7
L 24.7 -10.75 -28.85 -10.75 -28.85 58.65 -28.75 59.1 24.3 59.1 25 58.9 25 50.65
Q 24.65 47.25 24.4 42.45 24.15 33.95 24.15 24.85 24.15 15.75 24.4 7.3 24.65 2.85 25 -0.25
L 25 -10.7 Z"/>
</g>

<g id="shadow_mask_RK_4_44_Layer1_0_FILL">
<path fill="#000000" stroke="none" d="
M -28.85 -10.75
L -28.85 59.1 25 59.1 25 -10.75 -28.85 -10.75 Z"/>
</g>

<g id="Symbol_3_0_Layer0_0_FILL">
<path fill="#CCFFFF" stroke="none" d="
M 323.4 55.45
Q 267.95 0 189.45 0 110.95 0 55.45 55.45 0 110.95 0 189.45 0 267.95 55.45 323.4 110.95 378.9 189.45 378.9 267.95 378.9 323.4 323.4 378.9 267.95 378.9 189.45 378.9 110.95 323.4 55.45 Z"/>
</g>

<path id="Symbol_13_0_Layer0_0_1_STROKES" stroke="#FFFF00" stroke-width="3" stroke-linejoin="miter" stroke-linecap="square" stroke-miterlimit="3" fill="none" d="
M 181.60090179443358 -182.29849243164062
L 181.60090179443358 182.31393432617188 -181.5601348876953 182.31393432617188 -181.5601348876953 -182.29849243164062 181.60090179443358 -182.29849243164062 Z"/>

<path id="Symbol_12_0_Layer0_0_1_STROKES" stroke="#FFFF00" stroke-width="8" stroke-linejoin="miter" stroke-linecap="square" stroke-miterlimit="3" fill="none" d="
M 181.60090179443358 -182.29849243164062
L 181.60090179443358 182.31393432617188 -181.5601348876953 182.31393432617188 -181.5601348876953 -182.29849243164062 181.60090179443358 -182.29849243164062 Z"/>

<path id="placeMarker_0_Layer0_0_1_STROKES" stroke="#000000" stroke-width="1" stroke-linejoin="round" stroke-linecap="round" fill="none" d="
M 7.509854125976574 -0.017970275878909092
Q 7.509854125976574 3.095656585693348 5.308238983154297 5.277468109130865 3.10662384033202 7.482006835937497 0.009846496582042619 7.482006835937497 -3.0869308471679346 7.482006835937497 -5.288545989990212 5.277468109130865 -7.490161132812489 3.095656585693348 -7.490161132812489 -0.017970275878909092 -7.490161132812489 -3.131597137451166 -5.288545989990212 -5.3361358642578125 -3.0869308471679346 -7.517947387695315 0.009846496582042619 -7.517947387695315 3.10662384033202 -7.517947387695315 5.308238983154297 -5.3361358642578125 7.509854125976574 -3.131597137451166 7.509854125976574 -0.017970275878909092 Z"/>

<path id="Symbol_3_0_Layer0_0_1_STROKES" stroke="#FFFFFF" stroke-width="2" stroke-linejoin="round" stroke-linecap="round" fill="none" d="
M 323.4 55.45
Q 378.9 110.95 378.9 189.45 378.9 267.95 323.4 323.4 267.95 378.9 189.45 378.9 110.95 378.9 55.45 323.4 0 267.95 0 189.45 0 110.95 55.45 55.45 110.95 0 189.45 0 267.95 0 323.4 55.45 Z"/>
</defs>

<g transform="matrix( 1, 0, 0, 1, -403.55,-122.55) ">
<mask id="Mask_Mask_1">
<g transform="matrix( 1, 0, 0, 1, 0,0) ">
<use xlink:href="#Mask_earth_masked_1_4_MASK_0_FILL"/>
</g>
</mask>

<g mask="url(#Mask_Mask_1)">
<g id="earth" transform="matrix( 1.3163299560546875, 0.6161651611328125, -0.6161651611328125, 1.3163299560546875, 456.2,494) ">
<g id="newFocusRect" transform="matrix( 1.158935546875, -0.5418701171875, 0.5291900634765625, 1.1318206787109375, 0.6,-0.3) ">
<g transform="matrix( 0.907562255859375, 0, 0, 0.9796142578125, -241.55,-292.75) ">
<use filter="url(#Filter_1)" xlink:href="#Symbol_13_0_Layer0_0_1_STROKES" transform="matrix( 1.1018524169921875, 0, 0, 1.0207977294921875, 266.15,298.8) "/>
</g>
</g>

<g id="newFocusRect2" transform="matrix( 1.158935546875, -0.5418701171875, 0.5291900634765625, 1.1318206787109375, 0.6,-0.3) ">
<g transform="matrix( 0.907562255859375, 0, 0, 0.9796142578125, -241.55,-292.75) ">
<use filter="url(#Filter_1)" xlink:href="#Symbol_12_0_Layer0_0_1_STROKES" transform="matrix( 1.1018524169921875, 0, 0, 1.0207977294921875, 266.15,298.8) "/>
</g>
</g>

<g transform="matrix( 1, 0, 0, 1, 0,0) ">
<use xlink:href="#movies_world_0_Layer12_0_FILL"/>
</g>

<g id="halo" transform="matrix( 3.8553466796875, 0, 0, 3.918365478515625, 0,-0.4) ">
<g transform="matrix( 3.7164154052734375, 0, 0, 3.6567230224609375, -62.25,-61.25) ">
<g transform="matrix( 1, 0, 0, 1, -0.5,5.15) ">
<use filter="url(#Filter_1)" xlink:href="#tag_gfx1_0_Layer0_0_FILL"/>
</g>

<g transform="matrix( 1, 0, 0, 1, 0,0) ">
<use filter="url(#Filter_1)" xlink:href="#tag_gfx1_0_Layer0_1_FILL"/>
</g>

<g transform="matrix( 1, 0, 0, 1, 0,0) ">
<use filter="url(#Filter_1)" xlink:href="#tag_gfx1_0_Layer0_2_FILL"/>
</g>

<g transform="matrix( 1, 0, 0, 1, 0,0) ">
<use filter="url(#Filter_1)" xlink:href="#tag_gfx1_0_Layer0_3_FILL"/>
</g>
</g>
</g>

<mask id="Mask_Mask_2">
<g transform="matrix( 1, 0, 0, 1, 0,0) ">
<use xlink:href="#Mask_movies_world_0_10_MASK_0_FILL"/>
</g>
</mask>

<g mask="url(#Mask_Mask_2)">
<g transform="matrix( 1, 0, 0, 1, 0,0) ">
<use xlink:href="#movies_world_0_Layer10_0_FILL"/>
</g>
</g>

<g mask="url(#Mask_Mask_2)">
<g transform="matrix( 1, 0, 0, 1, 0,0) ">
<use xlink:href="#movies_world_0_Layer9_0_FILL"/>
</g>

<g transform="matrix( 1, 0, 0, 1, 0,0) ">
<use xlink:href="#movies_world_0_Layer9_1_FILL"/>
</g>
</g>

<g mask="url(#Mask_Mask_2)">
<g transform="matrix( 1, 0, 0, 1, 0,0) ">
<use xlink:href="#movies_world_0_Layer8_0_FILL"/>
</g>
</g>

<g id="Kisumu" transform="matrix( 1, 0, 0, 1, 88,3.95) ">
<g transform="matrix( 0.4838714599609375, 0, 0, 0.4545440673828125, -166.2,69.3) ">
<use filter="url(#Filter_1)" xlink:href="#placeMarker_0_Layer0_0_FILL"/>

<use filter="url(#Filter_1)" xlink:href="#placeMarker_0_Layer0_0_1_STROKES" transform="matrix( 2.066650390625, 0, 0, 2.1999969482421875, 343.45,-152.45) "/>
</g>
</g>
</g>

<g transform="matrix( 12.824676513671875, 0, 0, 12.825210571289062, -109.5,-93.5) ">
<mask id="Mask_Mask_3">
<g transform="matrix( 1, 0, 0, 1, 0,0) ">
<use xlink:href="#Mask_theShadow2_0_1_MASK_0_FILL"/>
</g>
</mask>

<g mask="url(#Mask_Mask_3)">
<g transform="matrix( 1, 0, 0, 1, 19.25,20.8) ">
<mask id="Mask_Mask_4">
<g transform="matrix( 1, 0, 0, 1, 0,0) ">
<g transform="matrix( 1, 0, 0, 1, 0,0) ">
<use xlink:href="#Mask_Mask_shadow_RK_1_Layer0_0_FILL"/>
</g>
</g>
</mask>

<g mask="url(#Mask_Mask_4)">
<g transform="matrix( 1, 0, 0, 1, 0,-0.05) ">
<g transform="matrix( 1, 0, 0, 1, 0,0) ">
<use filter="url(#Filter_2)" xlink:href="#shadow_mask_RK_4_45_Layer1_0_FILL"/>
</g>
</g>
</g>

<g mask="url(#Mask_Mask_4)">
<g transform="matrix( 1, 0, 0, 1, 0,-0.05) ">
<g transform="matrix( 1, 0, 0, 1, 0,0) ">
<use filter="url(#Filter_2)" xlink:href="#shadow_mask_RK_4_43_Layer1_0_FILL"/>
</g>
</g>
</g>

<g mask="url(#Mask_Mask_4)">
<g transform="matrix( 1, 0, 0, 1, 0,-0.05) ">
<g transform="matrix( 1, 0, 0, 1, 0,0) ">
<use filter="url(#Filter_2)" xlink:href="#shadow_mask_RK_4_44_Layer1_0_FILL"/>
</g>
</g>
</g>
</g>
</g>
</g>

<g transform="matrix( 1.730438232421875, 0, 0, 1.730438232421875, 129.2,165.95) ">
<g transform="matrix( 1, 0, 0, 1, 0,0) ">
<use filter="url(#Filter_3)" xlink:href="#Symbol_3_0_Layer0_0_FILL"/>

<use filter="url(#Filter_3)" xlink:href="#Symbol_3_0_Layer0_0_1_STROKES"/>
</g>
</g>
</g>

<g mask="url(#Mask_Mask_1)"/>

<g mask="url(#Mask_Mask_1)"/>

<g mask="url(#Mask_Mask_1)"/>
</g>
</svg>
