
<svg xmlns="http://www.w3.org/2000/svg" version="1.1" xmlns:xlink="http://www.w3.org/1999/xlink" preserveAspectRatio="none" x="0px" y="0px" width="160px" height="87px" viewBox="0 0 160 87">
<defs>
<g id="Layer0_0_FILL">
<path fill="#FFFFFF" stroke="none" d="
M 61.7 47.25
Q 58.15 43.7 54.65 47.25
L 44.5 57.4 44.5 57.8 3.45 57.8 3.45 85.15 71.95 85.15 71.95 57.8 71.85 57.8 71.85 57.4 61.7 47.25 Z"/>
</g>

<g id="Layer0_1_STROKES_1_FILL">
<path fill="#000000" stroke="none" d="
M 493 215.25
Q 492.8279296875 215.2212890625 492.65 215.3 492.475 215.426953125 492.4 215.6 492.37109375 215.821875 492.45 216 492.576953125 216.1748046875 492.75 216.2
L 498.55 217.8
Q 498.7720703125 217.8787109375 498.95 217.75 499.125 217.6732421875 499.15 217.45 499.22890625 217.278125 499.1 217.1 499.023046875 216.9251953125 498.8 216.85
L 493 215.25
M 510.75 220.65
Q 510.82890625 220.478125 510.7 220.3 510.623046875 220.1251953125 510.4 220.05
L 504.6 218.45
Q 504.4279296875 218.4212890625 504.25 218.5 504.075 218.626953125 504 218.8 503.97109375 219.021875 504.05 219.2 504.176953125 219.3748046875 504.35 219.4
L 510.15 221
Q 510.3720703125 221.0787109375 510.55 220.95 510.725 220.8732421875 510.75 220.65
M 515.65 222.4
Q 515.776953125 222.5748046875 515.95 222.6
L 521.75 224.2
Q 521.9720703125 224.2787109375 522.15 224.15 522.325 224.0732421875 522.35 223.85 522.42890625 223.678125 522.3 223.5 522.223046875 223.3251953125 522 223.25
L 516.2 221.65
Q 516.0279296875 221.6212890625 515.85 221.7 515.675 221.826953125 515.6 222 515.57109375 222.221875 515.65 222.4
M 557.15 233.3
Q 557.22890625 233.128125 557.1 232.95 557.023046875 232.7751953125 556.8 232.7
L 551 231.1
Q 550.8279296875 231.0712890625 550.65 231.15 550.475 231.276953125 550.4 231.45 550.37109375 231.671875 550.45 231.85 550.576953125 232.0248046875 550.75 232.05
L 556.55 233.65
Q 556.7720703125 233.7287109375 556.95 233.6 557.125 233.5232421875 557.15 233.3
M 533.9 226.65
Q 533.82265625 226.4744140625 533.6 226.4
L 527.8 224.85
Q 527.6275390625 224.821484375 527.45 224.9 527.27421875 225.027734375 527.2 225.2 527.1712890625 225.423046875 527.25 225.6 527.3771484375 225.7755859375 527.55 225.8
L 533.35 227.35
Q 533.5724609375 227.428515625 533.75 227.3 533.92578125 227.222265625 533.95 227 534.0287109375 226.8271484375 533.9 226.65
M 539.4 228
Q 539.2279296875 227.9712890625 539.05 228.05 538.875 228.176953125 538.8 228.35 538.77109375 228.571875 538.85 228.75 538.976953125 228.9248046875 539.15 228.95
L 544.95 230.55
Q 545.1720703125 230.6287109375 545.35 230.5 545.525 230.4232421875 545.55 230.2 545.62890625 230.028125 545.5 229.85 545.423046875 229.6751953125 545.2 229.6
L 539.4 228
M 585.8 240.4
Q 585.6279296875 240.3712890625 585.45 240.45 585.275 240.576953125 585.2 240.75 585.17109375 240.971875 585.25 241.15 585.376953125 241.3248046875 585.55 241.35
L 591.35 242.95
Q 591.5720703125 243.0287109375 591.75 242.9 591.925 242.8232421875 591.95 242.6 592.02890625 242.428125 591.9 242.25 591.823046875 242.0751953125 591.6 242
L 585.8 240.4
M 573.65 238.05
Q 573.776953125 238.2248046875 573.95 238.25
L 579.75 239.85
Q 579.9720703125 239.9287109375 580.15 239.8 580.325 239.7232421875 580.35 239.5 580.42890625 239.328125 580.3 239.15 580.223046875 238.9751953125 580 238.9
L 574.2 237.3
Q 574.0279296875 237.2712890625 573.85 237.35 573.675 237.476953125 573.6 237.65 573.57109375 237.871875 573.65 238.05
M 568.7 236.05
Q 568.623046875 235.8751953125 568.4 235.8
L 562.6 234.2
Q 562.4279296875 234.1712890625 562.25 234.25 562.075 234.376953125 562 234.55 561.97109375 234.771875 562.05 234.95 562.176953125 235.1248046875 562.35 235.15
L 568.15 236.75
Q 568.3720703125 236.8287109375 568.55 236.7 568.725 236.6232421875 568.75 236.4 568.82890625 236.228125 568.7 236.05
M 446.6 202.45
Q 446.4279296875 202.4212890625 446.25 202.5 446.075 202.626953125 446 202.8 445.97109375 203.021875 446.05 203.2 446.176953125 203.3748046875 446.35 203.4
L 452.15 205
Q 452.3720703125 205.0787109375 452.55 204.95 452.725 204.8732421875 452.75 204.65 452.82890625 204.478125 452.7 204.3 452.623046875 204.1251953125 452.4 204.05
L 446.6 202.45
M 457.65 206.4
Q 457.776953125 206.5748046875 457.95 206.6
L 463.75 208.2
Q 463.9720703125 208.2787109375 464.15 208.15 464.325 208.0732421875 464.35 207.85 464.42890625 207.678125 464.3 207.5 464.223046875 207.3251953125 464 207.25
L 458.2 205.65
Q 458.0279296875 205.6212890625 457.85 205.7 457.675 205.826953125 457.6 206 457.57109375 206.221875 457.65 206.4
M 480.85 212.8
Q 480.976953125 212.9748046875 481.15 213
L 486.95 214.6
Q 487.1720703125 214.6787109375 487.35 214.55 487.525 214.4732421875 487.55 214.25 487.62890625 214.078125 487.5 213.9 487.423046875 213.7251953125 487.2 213.65
L 481.4 212.05
Q 481.2279296875 212.0212890625 481.05 212.1 480.875 212.226953125 480.8 212.4 480.77109375 212.621875 480.85 212.8
M 469.8 208.85
Q 469.6279296875 208.8212890625 469.45 208.9 469.275 209.026953125 469.2 209.2 469.17109375 209.421875 469.25 209.6 469.376953125 209.7748046875 469.55 209.8
L 475.35 211.4
Q 475.5720703125 211.4787109375 475.75 211.35 475.925 211.2732421875 475.95 211.05 476.02890625 210.878125 475.9 210.7 475.823046875 210.5251953125 475.6 210.45
L 469.8 208.85 Z"/>
</g>

<path id="Layer0_1_1_STROKES" stroke="#000000" stroke-width="2" stroke-linejoin="round" stroke-linecap="round" fill="none" d="
M 454.825 183.025
L 446.725 203.025 443.625 210.7
M 589.525 250.425
L 600.35 223.65"/>
</defs>

<g transform="matrix( 1, 0, 0, 1, 1.05,1.4) ">
<use xlink:href="#Layer0_0_FILL"/>
</g>

<g transform="matrix( 1, 0, 0, 1, -442,-181.65) ">
<use xlink:href="#Layer0_1_1_STROKES"/>

<use xlink:href="#Layer0_1_STROKES_1_FILL"/>
</g>
</svg>
