
<svg xmlns="http://www.w3.org/2000/svg" version="1.1" xmlns:xlink="http://www.w3.org/1999/xlink" preserveAspectRatio="none" x="0px" y="0px" width="102px" height="43px" viewBox="0 0 102 43">
<defs>
<g id="Layer0_0_STROKES_1_FILL">
<path fill="#000000" stroke="none" d="
M 86.8 36.65
Q 86.6517578125 36.7947265625 86.65 37
L 86.65 41.95
Q 86.6517578125 42.1552734375 86.8 42.3 86.9447265625 42.4482421875 87.15 42.45 87.3552734375 42.4482421875 87.5 42.3 87.6482421875 42.1552734375 87.65 41.95
L 87.65 37
Q 87.6482421875 36.7947265625 87.5 36.65 87.3552734375 36.5017578125 87.15 36.5 86.9447265625 36.5017578125 86.8 36.65
M 87.15 24.5
Q 86.9447265625 24.5017578125 86.8 24.65 86.6517578125 24.7947265625 86.65 25
L 86.65 31
Q 86.6517578125 31.2052734375 86.8 31.35 86.9447265625 31.4982421875 87.15 31.5 87.3552734375 31.4982421875 87.5 31.35 87.6482421875 31.2052734375 87.65 31
L 87.65 25
Q 87.6482421875 24.7947265625 87.5 24.65 87.3552734375 24.5017578125 87.15 24.5
M 87.65 13
Q 87.6482421875 12.7947265625 87.5 12.65 87.3552734375 12.5017578125 87.15 12.5 86.9447265625 12.5017578125 86.8 12.65 86.6517578125 12.7947265625 86.65 13
L 86.65 19
Q 86.6517578125 19.2052734375 86.8 19.35 86.9447265625 19.4982421875 87.15 19.5 87.3552734375 19.4982421875 87.5 19.35 87.6482421875 19.2052734375 87.65 19
L 87.65 13
M 87.65 1
Q 87.6482421875 0.7947265625 87.5 0.65 87.3552734375 0.5017578125 87.15 0.5 86.9447265625 0.5017578125 86.8 0.65 86.6517578125 0.7947265625 86.65 1
L 86.65 7
Q 86.6517578125 7.2052734375 86.8 7.35 86.9447265625 7.4982421875 87.15 7.5 87.3552734375 7.4982421875 87.5 7.35 87.6482421875 7.2052734375 87.65 7
L 87.65 1 Z"/>
</g>

<g id="Layer0_0_MEMBER_0_FILL">
<path fill="#FFFFFF" stroke="none" d="
M 754.6 490.3
L 744.45 480.2 675.95 480.2 675.95 507.55 744.45 507.55 754.6 497.4
Q 758.135546875 493.8625 754.6 490.3 Z"/>
</g>

<path id="Layer0_0_1_STROKES" stroke="#000000" stroke-width="2" stroke-linejoin="round" stroke-linecap="round" fill="none" d="
M 81.35 41.95
L 87.15 41.95
M 87.15 1
L 81.35 1
M 87.15 41.95
L 99.9 41.95
M 99.9 1
L 87.15 1"/>
</defs>

<g transform="matrix( 1, 0, 0, 1, 0.55,0) ">
<use xlink:href="#Layer0_0_1_STROKES"/>

<use xlink:href="#Layer0_0_STROKES_1_FILL"/>
</g>

<g transform="matrix( 1, 0, 0, 1, -675.4,-471.9) ">
<use xlink:href="#Layer0_0_MEMBER_0_FILL"/>
</g>
</svg>
