
<svg xmlns="http://www.w3.org/2000/svg" version="1.1" xmlns:xlink="http://www.w3.org/1999/xlink" preserveAspectRatio="none" x="0px" y="0px" width="8px" height="22px" viewBox="0 0 8 22">
<defs>
<g id="Layer0_0_STROKES_1_FILL">
<path fill="#FFFF00" stroke="none" d="
M -79.9 8.3
Q -80.1078125 8.3603515625 -80.25 8.5 -80.328125 8.6998046875 -80.3 8.9 -79.763671875 11.1705078125 -78.85 11.05 -78.2763671875 11.1244140625 -77.85 10.25 -77.7583984375 10.0923828125 -77.85 9.9 -77.890234375 9.6986328125 -78.1 9.6 -78.257421875 9.5080078125 -78.45 9.55 -78.6509765625 9.640234375 -78.75 9.8 -78.8314453125 9.9912109375 -78.85 10.05 -79.0173828125 9.9578125 -79.3 8.7 -79.348046875 8.4921875 -79.55 8.35 -79.6998046875 8.2716796875 -79.9 8.3
M -77.55 4.9
Q -77.71875 5.036328125 -77.75 5.25 -77.900390625 6.423828125 -78.1 7.45
L -78.1 7.45
Q -78.15 7.775 -78.2 8.05 -78.22734375 8.2802734375 -78.1 8.45 -77.97890625 8.6171875 -77.8 8.65 -77.5701171875 8.67734375 -77.4 8.55 -77.2328125 8.428515625 -77.2 8.2 -77.151953125 7.937109375 -77.1 7.65 -76.8998046875 6.57578125 -76.75 5.35 -76.7234375 5.1544921875 -76.85 5 -76.986328125 4.8310546875 -77.2 4.8 -77.3955078125 4.7734375 -77.55 4.9
M -80 3.6
Q -80.01640625 3.4154296875 -80.2 3.25 -80.3248046875 3.1373046875 -80.55 3.15 -80.734375 3.1662109375 -80.9 3.3 -81.0125 3.475 -81 3.65 -80.90078125 5.3013671875 -80.7 6.7 -80.6681640625 6.92734375 -80.5 7.05 -80.331640625 7.176953125 -80.15 7.15 -79.92265625 7.118359375 -79.8 6.95 -79.6732421875 6.781640625 -79.7 6.55 -79.8994140625 5.1986328125 -80 3.6
M -77.4 0
Q -77.5482421875 0.1447265625 -77.55 0.35 -77.5501953125 1.8869140625 -77.6 3.25 -77.6119140625 3.4892578125 -77.5 3.65 -77.332421875 3.797265625 -77.15 3.8 -76.9103515625 3.8119140625 -76.75 3.65 -76.6029296875 3.5328125 -76.6 3.3 -76.5498046875 1.912890625 -76.55 0.35 -76.5517578125 0.1447265625 -76.7 0 -76.8447265625 -0.1482421875 -77.05 -0.15 -77.2552734375 -0.1482421875 -77.4 0
M -80.1 -1.5
Q -80.1017578125 -1.7052734375 -80.25 -1.85 -80.3947265625 -1.9982421875 -80.6 -2 -80.8052734375 -1.9982421875 -80.95 -1.85 -81.0982421875 -1.7052734375 -81.1 -1.5 -81.1 -0.6 -81.1 0.35 -81.1 1 -81.1 1.6 -81.0982421875 1.8052734375 -80.95 1.95 -80.8052734375 2.0982421875 -80.6 2.1 -80.3947265625 2.0982421875 -80.25 1.95 -80.1017578125 1.8052734375 -80.1 1.6 -80.1 1 -80.1 0.35 -80.1 -0.6 -80.1 -1.5
M -77.7 -5.05
Q -77.8134765625 -4.859765625 -77.8 -4.65 -77.65078125 -3.2115234375 -77.6 -1.6 -77.597265625 -1.3685546875 -77.45 -1.25 -77.290234375 -1.08828125 -77.1 -1.1 -76.8681640625 -1.1025390625 -76.75 -1.25 -76.5884765625 -1.409375 -76.6 -1.65 -76.6494140625 -3.2888671875 -76.8 -4.75 -76.8177734375 -4.949609375 -77 -5.1 -77.1404296875 -5.213671875 -77.35 -5.2 -77.549609375 -5.182421875 -77.7 -5.05
M -79.5 -7.9
Q -79.324609375 -7.9775390625 -79.3 -8.2 -78.995703125 -9.2048828125 -78.85 -9.3 -78.5091796875 -9.20546875 -78.1 -6.8
L -78.1 -6.75
Q -78.0982421875 -6.5447265625 -77.95 -6.4 -77.8052734375 -6.2517578125 -77.6 -6.25 -77.3947265625 -6.2517578125 -77.25 -6.4 -77.1017578125 -6.5447265625 -77.1 -6.75 -77.1 -6.8 -77.1 -6.85 -77.096484375 -6.8875 -77.1 -6.95 -77.6951171875 -10.4197265625 -78.85 -10.3 -79.6970703125 -10.422265625 -80.25 -8.45 -80.2787109375 -8.22734375 -80.2 -8.05 -80.0724609375 -7.8744140625 -79.9 -7.85 -79.6775390625 -7.77109375 -79.5 -7.9
M -79.65 -6.4
Q -79.623046875 -6.5814453125 -79.75 -6.75 -79.872265625 -6.9181640625 -80.1 -6.95 -80.28125 -6.976953125 -80.45 -6.85 -80.61796875 -6.7275390625 -80.65 -6.55 -80.850390625 -5.163671875 -81 -3.55 -81.01328125 -3.3396484375 -80.9 -3.2 -80.7490234375 -3.0173828125 -80.55 -3 -80.3396484375 -2.9865234375 -80.2 -3.15 -80.017578125 -3.2509765625 -80 -3.45 -79.8498046875 -5.036328125 -79.65 -6.4 Z"/>
</g>
</defs>

<g transform="matrix( 1.8024139404296875, 0, 0, 1, 146.05,10.6) ">
<use xlink:href="#Layer0_0_STROKES_1_FILL"/>
</g>
</svg>
