
<svg xmlns="http://www.w3.org/2000/svg" version="1.1" xmlns:xlink="http://www.w3.org/1999/xlink" preserveAspectRatio="none" x="0px" y="0px" width="464px" height="42px" viewBox="0 0 464 42">
<defs>
<g id="beam_2_0_Layer4_0_FILL">
<path fill="#FFFF66" fill-opacity="0.8" stroke="none" d="
M -243.6 -9.15
Q -243.837890625 -8.8173828125 -243.75 -8.45 -243.29375 -6.609375 -234.8 -3.3 -224.5853515625 0.6880859375 -208.75 4.45 -200.068359375 6.5513671875 -192.5 7.9 -186.231640625 8.99765625 -180.75 9.6 -177.9177734375 9.91796875 -175.7 10.05 -175.6533203125 10.10625 -175.65 10.15
L -0.05 10.15 -0.05 -10.1 -235.6 -10.1
Q -236.2080078125 -10.128125 -236.8 -10.15
L -239.8 -10.15
Q -242.919140625 -10.001953125 -243.6 -9.15 Z"/>
</g>

<g id="beam_2_0_Layer2_0_FILL">
<path fill="#FFFF66" fill-opacity="0.8" stroke="none" d="
M -243.6 -8.95
Q -243.85 -8.65 -243.75 -8.3 -243.3 -6.45 -234.75 -3.15 -224.6 0.85 -208.75 4.65 -200.05 6.7 -192.45 8.05 -186.25 9.15 -180.7 9.75 -177.9 10.05 -175.65 10.25 -174.95 10.25 -174.25 10.3
L -170.75 10.3
Q -168.55 10.15 -167.6 9.65 -167.4 9.5 -167.2 9.35 -167.2 9.3 -167.15 9.3 -167 9.05 -167 8.75
L -167 8.7
Q -167.05 8.5 -167.2 8.25 -167.25 8.15 -167.3 8.05 -168.7 6.3 -175.95 3.45 -186.15 -0.55 -202 -4.3 -217.8 -8.1 -229.95 -9.45 -233.15 -9.8 -235.55 -9.95 -236.2 -10 -236.8 -10
L -239.8 -10
Q -242.9 -9.85 -243.6 -8.95 Z"/>
</g>
</defs>

<g id="spot1" transform="matrix( 1.89862060546875, 0, 0, 2.0178070068359375, 463.45,20.85) ">
<g transform="matrix( 1, 0, 0, 1, 0,0) ">
<use xlink:href="#beam_2_0_Layer4_0_FILL"/>
</g>

<g transform="matrix( 1, 0, 0, 1, 0,0) ">
<use xlink:href="#beam_2_0_Layer2_0_FILL"/>
</g>
</g>
</svg>
