
<svg xmlns="http://www.w3.org/2000/svg" version="1.1" xmlns:xlink="http://www.w3.org/1999/xlink" preserveAspectRatio="none" x="0px" y="0px" width="151px" height="27px" viewBox="0 0 151 27">
<defs>
<linearGradient id="Gradient_1" gradientUnits="userSpaceOnUse" x1="60.5" y1="-4.700000000000001" x2="60.5" y2="7.4" spreadMethod="pad">
<stop  offset="0%" stop-color="#FFFFFF"/>

<stop  offset="100%" stop-color="#000000"/>
</linearGradient>

<linearGradient id="Gradient_2" gradientUnits="userSpaceOnUse" x1="-1.5" y1="-2.9000000000000004" x2="-1.5" y2="3.9000000000000004" spreadMethod="pad">
<stop  offset="0%" stop-color="#FFFFFF"/>

<stop  offset="100%" stop-color="#FFFFFF" stop-opacity="0"/>
</linearGradient>

<linearGradient id="Gradient_3" gradientUnits="userSpaceOnUse" x1="-35.5" y1="-2.9000000000000004" x2="-35.5" y2="3.9000000000000004" spreadMethod="pad">
<stop  offset="0%" stop-color="#FFFFFF"/>

<stop  offset="100%" stop-color="#FFFFFF" stop-opacity="0"/>
</linearGradient>

<linearGradient id="Gradient_4" gradientUnits="userSpaceOnUse" x1="67" y1="17.7875" x2="67" y2="-0.38750000000000107" spreadMethod="pad">
<stop  offset="0%" stop-color="#FFFFFF"/>

<stop  offset="100%" stop-color="#FFFFFF" stop-opacity="0"/>
</linearGradient>

<filter id="Filter_1" x="-20%" y="-20%" width="140%" height="140%" color-interpolation-filters="sRGB">
<feColorMatrix in="SourceGraphic" type="matrix" values="1 0 0 0 0 0 1 0 0 0 0 0 1 0 0 0 0 0 0.55 0" result="result1"/>
</filter>

<g id="Layer3_0_FILL">
<path fill="url(#Gradient_1)" stroke="none" d="
M 150.6 6.05
Q 150.6 3.85 149.55 2.25 148.5 0.7 147 0.7
L 3.95 0.7
Q 2.45 0.7 1.4 2.25 0.5 3.6 0.4 5.4 0.35 5.7 0.35 6.05
L 0.35 20.9
Q 0.35 23.1 1.4 24.65 2.45 26.25 3.95 26.3
L 147 26.3
Q 148.5 26.25 149.55 24.65 150.6 23.1 150.6 20.9
L 150.6 6.05 Z"/>
</g>

<g id="graphics_colour_fill_0_Layer1_0_FILL">
<path fill="#014B94" stroke="none" d="
M 133.15 21.95
Q 134.350390625 20.4244140625 134.35 18.2
L 134.35 5.4
Q 134.350390625 3.1716796875 133.15 1.55 132.0001953125 0.0001953125 130.35 0
L 4 0
Q 2.3498046875 0.0001953125 1.15 1.55 -0.0005859375 3.1716796875 0 5.4
L 0 18.2
Q -0.0005859375 20.4244140625 1.15 21.95 2.3498046875 23.5958984375 4 23.6
L 130.35 23.6
Q 132.0001953125 23.5958984375 133.15 21.95 Z"/>
</g>

<g id="graphics_top_light_0_Layer0_0_FILL">
<path fill="url(#Gradient_2)" stroke="none" d="
M -62.65 -2.75
Q -64.3 -2.75 -65.5 -1.6 -66.65 -0.4 -66.65 1.25
L -66.65 2.75 -40.4 2.75 -40.4 -2.75 -62.65 -2.75 Z"/>

<path fill="url(#Gradient_3)" stroke="none" d="
M 31.4 -1.6
Q 30.25 -2.75 28.6 -2.75
L -40.4 -2.75 -40.4 2.75 32.6 2.75 32.6 1.25
Q 32.6 -0.4 31.4 -1.6 Z"/>
</g>

<g id="graphics_bottom_light_0_Layer0_0_FILL">
<path fill="url(#Gradient_4)" stroke="none" d="
M 134.25 5.35
L 134.25 0 0 0 0 5.35
Q 0 7.6 1.15 9.15 2.35 10.75 4 10.75
L 130.25 10.75
Q 131.9 10.75 133.05 9.15 134.25 7.6 134.25 5.35 Z"/>
</g>
</defs>

<g transform="matrix( 1, 0, 0, 1, 0,0) ">
<use xlink:href="#Layer3_0_FILL"/>
</g>

<g transform="matrix( 1.103515625, 0, 0, 1, 1.5,1.35) ">
<g transform="matrix( 1, 0, 0, 1, 0,0) ">
<use xlink:href="#graphics_colour_fill_0_Layer1_0_FILL"/>
</g>
</g>

<g transform="matrix( 1.497161865234375, 0, 0, 1.347503662109375, 100.9,5.05) ">
<g transform="matrix( 1, 0, 0, 1, 0,0) ">
<use filter="url(#Filter_1)" xlink:href="#graphics_top_light_0_Layer0_0_FILL"/>
</g>
</g>

<g transform="matrix( 1.10595703125, 0, 0, 1, 1.15,14.15) ">
<g transform="matrix( 1, 0, 0, 1, 0,0) ">
<use filter="url(#Filter_1)" xlink:href="#graphics_bottom_light_0_Layer0_0_FILL"/>
</g>
</g>
</svg>
