
<svg xmlns="http://www.w3.org/2000/svg" version="1.1" xmlns:xlink="http://www.w3.org/1999/xlink" preserveAspectRatio="none" x="0px" y="0px" width="27px" height="33px" viewBox="0 0 27 33">
<defs>
<g id="tag_gfx1b_0_Layer1_0_FILL">
<path fill="#CCFFFF" fill-opacity="0.24705882352941178" stroke="none" d="
M 29.5 4.4
Q 29.5052734375 3.566015625 28.9 2.95 28.3337890625 2.39453125 27.5 2.4
L 5.6 2.4
Q 4.791015625 2.39453125 4.2 2.95 3.61953125 3.566015625 3.6 4.4
L 3.6 22.9
Q 3.61953125 23.7337890625 4.2 24.3
L 12.3 32.45
Q 14.4259765625 34.548046875 16.55 34.45 18.723828125 34.548046875 20.8 32.45
L 20.8 32.4 28.9 24.3
Q 29.504296875 23.7154296875 29.5 22.9
L 29.5 4.4
M 28.55 3.35
Q 28.9947265625 3.783984375 29 4.4
L 29 22.9
Q 28.99375 23.5115234375 28.55 23.95
L 20.45 32.05
Q 18.53046875 34.012890625 16.55 33.95 14.61953125 34.012890625 12.7 32.05
L 4.55 23.95
Q 4.1302734375 23.5158203125 4.1 22.9
L 4.1 4.4
Q 4.1302734375 3.783984375 4.55 3.35 5.008984375 2.9052734375 5.6 2.9
L 27.5 2.9
Q 28.116015625 2.9052734375 28.55 3.35 Z"/>

<path fill="#CCFFFF" fill-opacity="0.4980392156862745" stroke="none" d="
M 29 4.4
Q 28.9947265625 3.783984375 28.55 3.35 28.116015625 2.9052734375 27.5 2.9
L 5.6 2.9
Q 5.008984375 2.9052734375 4.55 3.35 4.1302734375 3.783984375 4.1 4.4
L 4.1 22.9
Q 4.1302734375 23.5158203125 4.55 23.95
L 12.7 32.05
Q 14.61953125 34.012890625 16.55 33.95 18.53046875 34.012890625 20.45 32.05
L 28.55 23.95
Q 28.99375 23.5115234375 29 22.9
L 29 4.4
M 27.5 3.4
Q 27.9107421875 3.403515625 28.2 3.7 28.496484375 3.9892578125 28.5 4.4
L 28.5 22.9
Q 28.4958984375 23.3076171875 28.2 23.6
L 20.1 31.7
Q 18.3494140625 33.48984375 16.55 33.45 14.8005859375 33.48984375 13.05 31.7
L 4.9 23.6
Q 4.628515625 23.3107421875 4.6 22.9
L 4.6 4.4
Q 4.628515625 3.9892578125 4.9 3.7 5.2142578125 3.403515625 5.6 3.4
L 27.5 3.4 Z"/>

<path fill="#CCFFFF" fill-opacity="0.7490196078431373" stroke="none" d="
M 28.2 3.7
Q 27.9107421875 3.403515625 27.5 3.4
L 5.6 3.4
Q 5.2142578125 3.403515625 4.9 3.7 4.628515625 3.9892578125 4.6 4.4
L 4.6 22.9
Q 4.628515625 23.3107421875 4.9 23.6
L 13.05 31.7
Q 14.8005859375 33.48984375 16.55 33.45 18.3494140625 33.48984375 20.1 31.7
L 28.2 23.6
Q 28.4958984375 23.3076171875 28.5 22.9
L 28.5 4.4
Q 28.496484375 3.9892578125 28.2 3.7
M 27.5 3.9
Q 27.7052734375 3.9017578125 27.85 4.05 27.9982421875 4.1947265625 28 4.4
L 28 22.9
Q 27.9978515625 23.10390625 27.85 23.25
L 19.75 31.35
Q 18.168359375 32.9671875 16.55 32.95 14.9814453125 32.9671875 13.4 31.35
L 5.25 23.25
Q 5.1267578125 23.1052734375 5.1 22.9
L 5.1 4.4
Q 5.1267578125 4.1947265625 5.25 4.05 5.4197265625 3.9017578125 5.6 3.9
L 27.5 3.9 Z"/>

<path fill="#CCFFFF" stroke="none" d="
M 27.85 4.05
Q 27.7052734375 3.9017578125 27.5 3.9
L 5.6 3.9
Q 5.4197265625 3.9017578125 5.25 4.05 5.1267578125 4.1947265625 5.1 4.4
L 5.1 22.9
Q 5.1267578125 23.1052734375 5.25 23.25
L 13.4 31.35
Q 14.9814453125 32.9671875 16.55 32.95 18.168359375 32.9671875 19.75 31.35
L 27.85 23.25
Q 27.9978515625 23.10390625 28 22.9
L 28 4.4
Q 27.9982421875 4.1947265625 27.85 4.05 Z"/>
</g>

<g id="tag_gfx1b_0_Layer0_0_FILL">
<path fill="#6D779D" stroke="none" d="
M 43.2 -2.45
L 15.85 -2.45 15.85 20.7 26 30.85
Q 29.5375 34.385546875 33.05 30.85
L 43.2 20.7 43.2 -2.45 Z"/>
</g>
</defs>

<g transform="matrix( -1, 0, 0, -1, 30.05,34.9) ">
<g transform="matrix( 1, 0, 0, 1, 0,0) ">
<use xlink:href="#tag_gfx1b_0_Layer1_0_FILL"/>
</g>

<g transform="matrix( 0.74322509765625, 0, 0, 0.74322509765625, -5.4,7.2) ">
<use xlink:href="#tag_gfx1b_0_Layer0_0_FILL"/>
</g>
</g>
</svg>
