
<svg xmlns="http://www.w3.org/2000/svg" version="1.1" xmlns:xlink="http://www.w3.org/1999/xlink" preserveAspectRatio="none" x="0px" y="0px" width="755px" height="565px" viewBox="0 0 755 565">
<defs>
<filter id="Filter_1" x="-20%" y="-20%" width="140%" height="140%" color-interpolation-filters="sRGB">
<feColorMatrix in="SourceGraphic" type="matrix" values="1 0 0 0 0 0 1 0 0 0 0 0 1 0 0 0 0 0 1 0 " result="result1"/>
</filter>

<g id="graphics_screen_frame_0_Layer4_0_FILL">
<path fill="#243353" stroke="none" d="
M 764.15 1
Q 764.146484375 0.5892578125 763.85 0.3 763.5607421875 0.0037109375 763.15 0
L 1 0
Q 0.5892578125 0.0037109375 0.3 0.3 0.0033203125 0.5892578125 0 1
L 0 573.15
Q 0.0033203125 573.5607421875 0.3 573.85 0.5892578125 574.146484375 1 574.15
L 763.15 574.15
Q 763.5607421875 574.146484375 763.85 573.85 764.146484375 573.5607421875 764.15 573.15
L 764.15 1
M 762.15 2
L 762.15 572.15 2 572.15 2 2 762.15 2 Z"/>

<path fill="#11162B" stroke="none" d="
M 762.15 572.15
L 762.15 2 2 2 2 572.15 762.15 572.15 Z"/>
</g>
</defs>

<g filter="url(#Filter_1)" transform="matrix( 1, 0, 0, 1, 0,0) ">
<g id="frame" transform="matrix( 0.99456787109375, 0, 0, 0.992767333984375, -4,-4.5) ">
<g transform="matrix( 1, 0, 0, 1, 0,0) ">
<use xlink:href="#graphics_screen_frame_0_Layer4_0_FILL"/>
</g>
</g>
</g>
</svg>
