
<svg xmlns="http://www.w3.org/2000/svg" version="1.1" xmlns:xlink="http://www.w3.org/1999/xlink" preserveAspectRatio="none" x="0px" y="0px" width="480px" height="480px" viewBox="0 0 480 480">
<defs>
<radialGradient id="Gradient_1" gradientUnits="userSpaceOnUse" cx="0" cy="0" r="342.35" fx="0" fy="0" gradientTransform="matrix( 0.9999999999999999, 0, 0, 0.9999999999999999, 82.75,-23.6) " spreadMethod="pad">
<stop  offset="0%" stop-color="#0273E3"/>

<stop  offset="100%" stop-color="#0152A0"/>
</radialGradient>

<filter id="Filter_1" x="-20%" y="-20%" width="140%" height="140%" color-interpolation-filters="sRGB">
<feColorMatrix in="SourceGraphic" type="matrix" values="1 0 0 0 0 0 1 0 0 0 0 0 1 0 0 0 0 0 0 0" result="result1"/>
</filter>

<g id="tag_gfx1_0_Layer0_0_FILL">
<path fill="#E7F2F6" stroke="none" d="
M 24.4 4.6
Q 23.048828125 3.250390625 21.25 2.5 19.384375 1.7017578125 17.35 1.7 16.0927734375 1.701171875 14.9 2 14.1626953125 2.194921875 13.45 2.5 11.6634765625 3.250390625 10.3 4.6 8.8953125 6.03125 8.1 7.8 7.3462890625 9.6779296875 7.35 11.7 7.3462890625 13.7482421875 8.1 15.6 8.8953125 17.3810546875 10.3 18.75 11.6634765625 20.1623046875 13.45 20.9 15.3154296875 21.7107421875 17.35 21.7 19.384375 21.7107421875 21.25 20.9 23.048828125 20.1623046875 24.4 18.75 25.815234375 17.3810546875 26.55 15.6 26.582421875 15.525390625 26.6 15.45 27.3517578125 13.6666015625 27.35 11.7 27.3517578125 9.6779296875 26.55 7.8 25.815234375 6.03125 24.4 4.6 Z"/>
</g>

<g id="tag_gfx1_0_Layer0_1_FILL">
<path fill="#CCFFFF" fill-opacity="0.24705882352941178" stroke="none" d="
M 32.2 10.25
L 32.2 10.2
Q 30.9 7.2 28.65 4.9
L 28.6 4.9
Q 26.3 2.6 23.3 1.35 20.2 0 16.75 0 13.35 0 10.25 1.3
L 10.25 1.35
Q 7.25 2.6 4.95 4.9
L 4.9 4.9
Q 2.6 7.2 1.35 10.2
L 1.3 10.25
Q 0 13.3 0 16.75 0 20.15 1.35 23.25 2.6 26.25 4.9 28.6
L 4.95 28.65
Q 7.25 30.9 10.25 32.2 13.35 33.5 16.75 33.5 20.15 33.5 23.3 32.2 26.3 30.9 28.6 28.65
L 28.65 28.6
Q 30.9 26.25 32.2 23.25 33.5 20.15 33.5 16.75 33.5 13.3 32.2 10.25
M 31.25 10.6
L 31.3 10.6
Q 32.5 13.5 32.5 16.75 32.5 19.95 31.3 22.9 30.05 25.7 27.9 27.9 25.7 30.05 22.9 31.25
L 22.9 31.3
Q 19.95 32.5 16.75 32.5 13.55 32.5 10.65 31.3 7.8 30.05 5.65 27.9
L 5.6 27.9
Q 3.45 25.7 2.25 22.9 1 19.95 1 16.75 1 13.5 2.25 10.65
L 2.25 10.6
Q 3.45 7.8 5.6 5.6
L 5.65 5.6
Q 7.8 3.45 10.65 2.25 13.6 1 16.75 1 20 1 22.9 2.25 25.7 3.45 27.9 5.6 30.05 7.8 31.25 10.6 Z"/>

<path fill="#CCFFFF" fill-opacity="0.4980392156862745" stroke="none" d="
M 31.3 10.6
L 31.25 10.6
Q 30.05 7.8 27.9 5.6 25.7 3.45 22.9 2.25 20 1 16.75 1 13.6 1 10.65 2.25 7.8 3.45 5.65 5.6
L 5.6 5.6
Q 3.45 7.8 2.25 10.6
L 2.25 10.65
Q 1 13.5 1 16.75 1 19.95 2.25 22.9 3.45 25.7 5.6 27.9
L 5.65 27.9
Q 7.8 30.05 10.65 31.3 13.55 32.5 16.75 32.5 19.95 32.5 22.9 31.3
L 22.9 31.25
Q 25.7 30.05 27.9 27.9 30.05 25.7 31.3 22.9 32.5 19.95 32.5 16.75 32.5 13.5 31.3 10.6
M 22.5 3.15
Q 25.15 4.25 27.2 6.3
L 27.2 6.35
Q 29.25 8.35 30.35 11 31.5 13.7 31.5 16.75 31.5 19.75 30.35 22.5 29.25 25.1 27.2 27.2 25.15 29.25 22.5 30.35 19.75 31.5 16.75 31.5 13.75 31.5 11.05 30.35 8.4 29.25 6.35 27.2
L 6.3 27.2
Q 4.25 25.1 3.15 22.5 2 19.75 2 16.75 2 13.7 3.15 11 4.25 8.35 6.3 6.35
L 6.35 6.3
Q 8.4 4.25 11.05 3.15 13.75 2 16.75 2 19.8 2 22.5 3.15 Z"/>

<path fill="#CCFFFF" fill-opacity="0.7490196078431373" stroke="none" d="
M 27.2 6.3
Q 25.15 4.25 22.5 3.15 19.8 2 16.75 2 13.75 2 11.05 3.15 8.4 4.25 6.35 6.3
L 6.3 6.35
Q 4.25 8.35 3.15 11 2 13.7 2 16.75 2 19.75 3.15 22.5 4.25 25.1 6.3 27.2
L 6.35 27.2
Q 8.4 29.25 11.05 30.35 13.75 31.5 16.75 31.5 19.75 31.5 22.5 30.35 25.15 29.25 27.2 27.2 29.25 25.1 30.35 22.5 31.5 19.75 31.5 16.75 31.5 13.7 30.35 11 29.25 8.35 27.2 6.35
L 27.2 6.3
M 22.15 4.1
Q 24.55 5.1 26.5 7.05 28.4 8.95 29.45 11.4 30.5 13.9 30.5 16.75 30.5 19.55 29.45 22.1 28.4 24.55 26.5 26.5 24.55 28.4 22.15 29.45 19.55 30.5 16.75 30.5 13.95 30.5 11.45 29.45
L 11.4 29.45
Q 8.95 28.4 7.05 26.5 5.1 24.55 4.1 22.1 3 19.55 3 16.75 3 13.95 4.1 11.4 5.1 8.95 7.05 7.05 8.95 5.1 11.4 4.1
L 11.45 4.1
Q 14 3 16.75 3 19.6 3 22.15 4.1 Z"/>

<path fill="#CCFFFF" stroke="none" d="
M 26.5 7.05
Q 24.55 5.1 22.15 4.1 19.6 3 16.75 3 14 3 11.45 4.1
L 11.4 4.1
Q 8.95 5.1 7.05 7.05 5.1 8.95 4.1 11.4 3 13.95 3 16.75 3 19.55 4.1 22.1 5.1 24.55 7.05 26.5 8.95 28.4 11.4 29.45
L 11.45 29.45
Q 13.95 30.5 16.75 30.5 19.55 30.5 22.15 29.45 24.55 28.4 26.5 26.5 28.4 24.55 29.45 22.1 30.5 19.55 30.5 16.75 30.5 13.9 29.45 11.4 28.4 8.95 26.5 7.05 Z"/>
</g>

<g id="tag_gfx1_0_Layer0_2_FILL">
<path fill="#2F3D73" stroke="none" d="
M 28.2 16.75
Q 28.2 14.45 27.3 12.3 26.45 10.25 24.85 8.65 23.25 7.05 21.25 6.2 19.1 5.3 16.75 5.35 14.45 5.3 12.3 6.2 10.25 7.05 8.7 8.65 7.1 10.25 6.25 12.3 5.35 14.45 5.35 16.75 5.3 19.05 6.25 21.2 7.1 23.25 8.7 24.85 10.25 26.4 12.3 27.3 14.45 28.15 16.75 28.2 19.1 28.2 21.25 27.3 23.25 26.4 24.85 24.85 26.45 23.25 27.3 21.2 28.2 19.05 28.2 16.75 Z"/>
</g>

<g id="tag_gfx1_0_Layer0_3_FILL">
<path fill="#FFFFFF" fill-opacity="0.30196078431372547" stroke="none" d="
M 5.4 16.7
Q 5.4 21.45 8.75 24.75 12.1 28.1 16.8 28.1 21.5 28.1 24.85 24.75 28.15 21.45 28.15 16.7 28.15 12 24.85 8.7 21.5 5.35 16.8 5.35 12.1 5.35 8.75 8.7 5.4 12 5.4 16.7 Z"/>
</g>

<g id="Mask_2_MASK_0_FILL">
<path fill="#FFFFFF" stroke="none" d="
M 376.2 358.15
Q 440.65 293.7 440.65 202.55 440.65 111.4 376.2 46.95 311.75 -17.5 220.6 -17.5 129.45 -17.5 65 46.95 0.55 111.4 0.55 202.55 0.55 293.7 65 358.15 129.45 422.6 220.6 422.6 311.75 422.6 376.2 358.15 Z"/>
</g>

<g id="Layer2_0_FILL">
<path fill="url(#Gradient_1)" stroke="none" d="
M 155.7 -155.55
Q 91.25 -220 0.1 -220 -91.05 -220 -155.5 -155.55 -219.95 -91.1 -219.95 0.05 -219.95 91.2 -155.5 155.65 -91.05 220.1 0.1 220.1 91.25 220.1 155.7 155.65 220.15 91.2 220.15 0.05 220.15 -91.1 155.7 -155.55 Z"/>
</g>

<g id="Layer1_0_FILL">
<path fill="#4CEB80" stroke="none" d="
M 255.35 385.8
L 255.35 392.1 259.85 392.1 263.35 385.8 255.35 385.8
M 219.7 264.35
L 216.4 264.35 216.4 269.3 219.7 269.3 219.7 264.35
M 209.05 271.7
Q 209.05 270.5 208.4 269.7 207.75 268.85 206.85 268.85 205.95 268.85 205.3 269.7 204.65 270.5 204.65 271.7 204.65 272.9 205.3 273.75 205.95 274.55 206.85 274.55 207.75 274.55 208.4 273.75 209.05 272.9 209.05 271.7
M 187.65 257.55
Q 188.3 258.2 189.25 258.2 190.2 258.2 190.85 257.55 191.5 256.9 191.5 256 191.5 255.1 190.85 254.45 190.2 253.8 189.25 253.8 188.3 253.8 187.65 254.45 187 255.1 187 256 187 256.9 187.65 257.55
M 193.95 254.85
Q 195.4 255.8 196.9 256.75 201.4 259.65 206 256.95
L 203.95 253.85 193.95 251.85 193.95 254.85
M 196.1 231.35
L 192.35 234.6 192.95 240.85 190.95 244.85 193.65 248.7 197.9 238.2 196.1 231.35
M 177.95 237.85
L 163.95 237.85 159.95 250.85 163.55 264.85 167.95 263.95 168.65 257.95 173.6 264.3 177.5 263.8 178.1 260.95 171.75 250.65 178.15 245.5 166.95 242.85 166.6 245.85 166.95 241.85 180.95 241.85 183.45 239 183.95 235.5 179.9 236.1 177.95 237.85
M 296.55 268.8
L 299.2 269.8 294.8 263.15 296.55 268.8
M 311.05 277.8
L 312.95 280.85 320.75 284.85 316.95 274.85 311.05 277.8
M 251.95 279.25
L 254.9 273.3 257.95 272.85 265.4 277.95 266.35 280.95 279 283.3 281.7 278.7 277.3 279.95 272.95 276.85 272.4 274.2 269.95 272.85 267.95 263.75
Q 247.3 249.1 222 249.3
L 224.9 250.3 222.05 253.1 217.35 244.25 203.9 241.95 203.95 246.85 200 250.3 206.95 248.85 212.35 258.9 219.95 258.85 221.2 260.65 231.95 264 232.9 267.35 231.15 273.95 232.85 275.85 237.95 274.85 243.95 278.85 251.95 279.25
M 273.95 266.85
L 275.3 267.8 281.55 266.95 289.75 260.15 287.95 256.35
Q 282.5 265.3 267.95 263.75
L 273.95 266.85
M 149.95 324.85
L 150.45 333.75 151.95 334.85 152.95 337.85 151.95 339.85 166.05 366.65 212.95 358.85 216.35 361 220 361.05 226.15 367.45 228.95 367 238.95 372.85 240.6 376.2 242.95 376.85 244.2 378.65 249.9 379.9 251.95 378.85 260 380.3 260.95 378.85 270.65 375.6
Q 284.85 360.55 281.95 334.85
L 281.35 330.45
Q 274.65 324.15 267.95 317.85
L 267.75 315.95 262.95 312.85 262.75 309.1 260.95 307.85 260.4 300.35 256.65 296.2 254.65 295.75 250.85 284.5 246.95 284.85 245.95 293.85 243.95 294.85 244.4 300.6 242.95 301.85 241.6 308.9 224.85 298.7 227.95 288.85 209.35 285.85 204.95 287.85 204.95 289.85 202.95 289.85 200.95 298.85 195.2 298.6 194.15 295.7 190.15 294.75 178.55 306.15 176.2 306.3 173.9 314.3 165.25 317.15 163.95 318.85 157.95 319.85 153.95 324.85 149.95 324.85
M 54.4 207.8
L 53.4 205.9 52.95 205.75
Q 48.9 212.25 52.6 219.45
L 53.4 219.45
Q 56.2 213.95 54.4 207.8
M 150.9 219.3
L 146.95 221.85 146.95 223.85 142.95 225.85 142.45 227.9 135.95 228.85 132.6 234
Q 129.4 232.55 129.6 235.7 130.15 245.15 131.5 254.6
L 134.95 254.95 136.9 256.8 148.6 258.25 156.95 239.85 160.4 239.9 160.85 237.5 158.95 236.85 159.05 231.85 156.75 229.8 157.55 226.65 161.7 222.75 161.35 220.9 154.55 215.1 151.7 216.15 150.9 219.3
M 155.85 209.65
L 158.7 208.4 160.95 205.85 163.5 205.25 165.5 202.8 164.4 197.95 158.95 202.85 158.3 206.2
Q 153.9 206.85 155.85 209.65
M 31.65 167.75
L 32.45 170.85 39 151.5 31.65 167.75
M 171.85 151.65
L 172.45 160.4 177.1 148.25 171.85 151.65
M 175.7 171.1
L 170.2 171.8
Q 169 181.3 167.8 190.85
L 171.95 196.35 172.4 201.7 173.95 202.85 172.25 215.2 178.75 215.4 182.35 220.85 185.9 220.4 188.95 217.25 185.95 193.35 174.6 185.4 173.95 182.85 176.35 179.85 175.7 171.1
M 176.7 189.75
L 181.95 195.85 179.95 198.85 177.45 196 173.9 195.45 172.95 189.85 176.7 189.75
M 249.95 87.85
L 249 86 243.95 85.85 243.45 88.85 238.95 92.85 238.55 103.9 235.95 105.85 235.5 107.95 229.95 109.85 227.75 113.75 205.95 121.85 208.8 129.8
Q 211.35 126.45 215.05 124.3 218.45 122.15 222.5 122.15 225 122.15 227.15 122.65
L 243.4 115.4 244.75 98.2 253.75 93.7 255.45 90.85 249.95 87.85
M 286.55 35.95
L 284.4 37.25 239.95 31.85 226.5 33.8 224.45 30.45 207.25 28.95 210.95 25.85
Q 209.3 25.8 207.65 25.8 205.95 25.75 204.3 25.8 186.5 26.5 170.7 34.7
L 167.95 32.85
Q 166.6 34 165.2 35.1 164.85 35.45 164.4 35.7 160.6 38.55 155.95 37.85
L 153.9 40.3 150.95 38.85
Q 80.45 72.35 43 141.05
L 43.1 146.9 48.45 149.85 47.95 155.85 50.95 158.2 48.25 172.6 46.95 173.85 48.45 208.85
Q 53.65 193.25 63 179.65 69.6 170.1 77.95 161.85
L 83.95 161.25 86.4 158 86.3 164.55 88.05 165.55 90.25 182.8 97.75 179.3 98.95 196.85 96.95 197.85
Q 95.95 203.85 96.8 209.55 98.4 220.05 101.9 230.25
L 99.3 230.6 87.55 219.8 89.05 230.3 92.95 233.85 92.7 239.35 94.95 235.85 99.85 249.95 114.35 265 117.95 264.85 116.35 269.65 118.95 270.85 120.05 272.5 124.95 272.85 126.35 274 143.95 275.85 167.7 282.95 166.95 277.85 180.65 278 178.95 281.85 182.35 282.55 184.9 279.35 191.35 277.35 189.85 270.3 186.7 270.4 184.95 274.85
Q 183.65 274.25 182.3 273.75 181.1 273.15 179.9 272.65 167.25 267.7 154.95 273.15 152.9 274 151.1 275.3
L 141.95 270.85 144.35 269.2 127.05 267.65 123.8 264.3 118.95 263.85 120.75 254.35 118.85 249.35 112.4 245.95 109.95 238.35 112.55 232.25 110.95 230.85
Q 110.8 228.85 110.6 226.85 110.5 225.7 110.2 224.6 108.4 217.55 103.05 212.55
L 102.9 209.5 99.95 205.85 103.95 190.4 105.35 193.7 108.35 195.25 109.55 200.1 115.5 202.8 115.45 207.35 117.7 207.55 123.95 200.85 126.75 200.5 129.6 197.95 129.95 194.85 131.1 193.45 129.35 179.5 125.5 178.3 125.2 173.9 123.05 171.55
Q 123.3 170.45 123.65 169.45 123.8 168.9 124.1 168.4 128.15 162.25 135.95 162.85
L 135.85 166.7 132.5 168.4 131.6 173.85 138.9 169.35 137.95 164.85 139.95 161.85 162.85 154.8 181.1 131.45 175.95 117.85 180.95 112.85 183.65 113.05 186.9 110.15 183.95 107.85 188.95 103.85 195 106.45 197.95 110.85 195.95 116.85 197.2 119.9 206.7 116.6 207.95 112.25 203.95 103.85 205.95 100.85 208.65 100.45 210.45 96.9 217.2 92.5 220.85 93.65
Q 224.05 91.7 227.3 89.75 228.45 89 229.6 88.25 237.85 82.65 242.7 73.95
L 247.6 84.55 248.95 76.85 251.8 76.15 246 65.15 243.95 68.85 229.95 62.85
Q 231.55 61.65 233.15 60.5 234.8 59.45 236.55 58.5 248.75 51.5 262.85 52.35
L 264.25 53.6 269 51.85 268.95 49.85 284.95 48.85 274.9 61.7
Q 275.05 62.85 275.3 64 275.35 64.4 275.5 64.85 276.85 68.5 280.7 69.65 281.7 70 282.75 70.2 283.3 70.25 283.65 70.05 284.75 69.3 285.6 68.15 290.25 61.75 287.85 53.85 287.4 52.35 287.25 50.8
L 307.5 47.05 303.95 42.7 308.95 41.25 305.95 38.85 286.55 35.95
M 332.75 386.3
L 328.95 384.85
Q 321.35 394.2 309.4 396.15
L 307.15 400.2 309.95 402.35 332.75 386.3
M 337.3 366.05
L 335.95 379.85 333.95 380.85 334.8 384.85 346.75 376.45 342.45 376.1 337.3 366.05
M 324.5 42
L 333.95 44.25 335.2 48.6 338.4 48.95 338.95 50.85 355.7 58.6
Q 354.95 57.45 354.2 56.4 340.95 37.75 317.95 34.85
L 317.9 38.4 326.8 41.95 324.5 42 Z"/>
</g>

<g id="Layer1_1_FILL">
<path fill="#FFFFFF" stroke="none" d="
M 22.35 213.8
L 37 208.5
Q -18.45 197.4 -75 200.5
L -75 203.9 -86 202.5
Q -46.1 220.3 -2.1 221.35 28.45 222.05 41 213.75
L 22.35 213.8
M 5.75 -218.35
L 16 -219.5 -1.25 -219.25 5.75 -218.35 Z"/>
</g>
</defs>

<g id="halo" transform="matrix( 3.8553466796875, 0, 0, 3.918365478515625, 239.95,239.95) ">
<g transform="matrix( 3.7164154052734375, 0, 0, 3.6567230224609375, -62.25,-61.25) ">
<g transform="matrix( 1, 0, 0, 1, -0.5,5.15) ">
<use filter="url(#Filter_1)" xlink:href="#tag_gfx1_0_Layer0_0_FILL"/>
</g>

<g transform="matrix( 1, 0, 0, 1, 0,0) ">
<use filter="url(#Filter_1)" xlink:href="#tag_gfx1_0_Layer0_1_FILL"/>
</g>

<g transform="matrix( 1, 0, 0, 1, 0,0) ">
<use filter="url(#Filter_1)" xlink:href="#tag_gfx1_0_Layer0_2_FILL"/>
</g>

<g transform="matrix( 1, 0, 0, 1, 0,0) ">
<use filter="url(#Filter_1)" xlink:href="#tag_gfx1_0_Layer0_3_FILL"/>
</g>
</g>
</g>

<mask id="Mask_Mask_1">
<g transform="matrix( 1, 0, 0, 1, 19.45,37.85) ">
<use xlink:href="#Mask_2_MASK_0_FILL"/>
</g>
</mask>

<g mask="url(#Mask_Mask_1)">
<g transform="matrix( 1, 0, 0, 1, 239.95,240.35) ">
<use xlink:href="#Layer2_0_FILL"/>
</g>
</g>

<g mask="url(#Mask_Mask_1)">
<g transform="matrix( 1, 0, 0, 1, 0,0) ">
<use xlink:href="#Layer1_0_FILL"/>
</g>

<g transform="matrix( 1, 0, 0, 1, 239.95,240.35) ">
<use xlink:href="#Layer1_1_FILL"/>
</g>
</g>
</svg>
