
<svg xmlns="http://www.w3.org/2000/svg" version="1.1" xmlns:xlink="http://www.w3.org/1999/xlink" preserveAspectRatio="none" x="0px" y="0px" width="522px" height="522px" viewBox="0 0 522 522">
<defs>
<linearGradient id="Gradient_1" gradientUnits="userSpaceOnUse" x1="265.6" y1="-0.024999999999977263" x2="265.6" y2="521.125" spreadMethod="pad">
<stop  offset="0%" stop-color="#070912"/>

<stop  offset="25.88235294117647%" stop-color="#232854"/>

<stop  offset="49.80392156862745%" stop-color="#161B36"/>

<stop  offset="100%" stop-color="#070912"/>
</linearGradient>

<linearGradient id="Gradient_2" gradientUnits="userSpaceOnUse" x1="255.6" y1="-0.024999999999977263" x2="255.6" y2="521.125" spreadMethod="pad">
<stop  offset="0%" stop-color="#070912"/>

<stop  offset="25.88235294117647%" stop-color="#232854"/>

<stop  offset="49.80392156862745%" stop-color="#161B36"/>

<stop  offset="100%" stop-color="#070912"/>
</linearGradient>

<g id="graphics_border_0_Layer0_0_FILL">
<path fill="url(#Gradient_1)" stroke="none" d="
M 414.1 -0.05
L 10.55 -0.05
Q 9.0802734375 -0.0224609375 7.7 0.3 5.1146484375 1.008203125 3.05 3 -0.0212890625 6.05234375 -0.05 10.35
L -0.05 510.75
Q -0.0212890625 515.0611328125 3.05 518.05 6.177734375 521.130859375 10.55 521.1
L 414.1 521.1 414.1 -0.05 Z"/>

<path fill="url(#Gradient_2)" stroke="none" d="
M 510.55 -0.05
L 414.1 -0.05 414.1 521.1 510.55 521.1
Q 514.9484375 521.130859375 518 518.05 518.1677734375 517.9373046875 518.3 517.8 521.1478515625 514.8640625 521.15 510.75
L 521.15 10.35
Q 521.14765625 6.05234375 518 3 514.9484375 -0.0173828125 510.55 -0.05 Z"/>
</g>

<g id="graphics_screen_0_Layer0_0_FILL">
<path fill="#000039" stroke="none" d="
M 0 206.2
L 0 206.3 0.3 206.3
Q 0.1517578125 206.233203125 0 206.2
M 515.15 170.85
L 515.15 170.8 514.85 170.8
Q 515.0125 170.8763671875 515.15 170.85 Z"/>

<path fill="#232E54" stroke="none" d="
M 504.55 -0.05
L 10.55 -0.05
Q 6.177734375 -0.0173828125 3.05 3 -0.0212890625 6.05234375 -0.05 10.35
L -0.05 165.05 0 165.05 0 206.2
Q 0.1517578125 206.233203125 0.3 206.3
L 0 206.3 0 295.1 -0.05 295.1 -0.05 503.75
Q -0.0212890625 508.0611328125 3.05 511.05 6.177734375 514.130859375 10.55 514.1
L 504.55 514.1
Q 508.9484375 514.130859375 512 511.05 515.14765625 508.0611328125 515.15 503.75
L 515.15 170.85
Q 515.0125 170.8763671875 514.85 170.8
L 515.15 170.8 515.15 10.35
Q 515.14765625 6.05234375 512 3 508.9484375 -0.0173828125 504.55 -0.05 Z"/>
</g>
</defs>

<g transform="matrix( 1, 0, 0, 1, 0.4,0.4) ">
<g transform="matrix( 1, 0, 0, 1, 0,0) ">
<use xlink:href="#graphics_border_0_Layer0_0_FILL"/>
</g>
</g>

<g transform="matrix( 1, 0, 0, 1, 3.4,4.4) ">
<g transform="matrix( 1, 0, 0, 1, 0,0) ">
<use xlink:href="#graphics_screen_0_Layer0_0_FILL"/>
</g>
</g>
</svg>
