
<svg xmlns="http://www.w3.org/2000/svg" version="1.1" xmlns:xlink="http://www.w3.org/1999/xlink" preserveAspectRatio="none" x="0px" y="0px" width="230px" height="484px" viewBox="0 0 230 484">
<defs>
<linearGradient id="Gradient_1" gradientUnits="userSpaceOnUse" x1="97.05" y1="476.1" x2="97.05" y2="453.6" spreadMethod="pad">
<stop  offset="0%" stop-color="#FFFFFF"/>

<stop  offset="100%" stop-color="#FFFFFF" stop-opacity="0"/>
</linearGradient>

<linearGradient id="Gradient_2" gradientUnits="userSpaceOnUse" x1="-129.9" y1="476.1" x2="-129.9" y2="453.6" spreadMethod="pad">
<stop  offset="0%" stop-color="#FFFFFF"/>

<stop  offset="100%" stop-color="#FFFFFF" stop-opacity="0"/>
</linearGradient>

<linearGradient id="Gradient_3" gradientUnits="userSpaceOnUse" x1="-132.65" y1="476.1" x2="-132.65" y2="453.6" spreadMethod="pad">
<stop  offset="0%" stop-color="#FFFFFF"/>

<stop  offset="100%" stop-color="#FFFFFF" stop-opacity="0"/>
</linearGradient>

<linearGradient id="Gradient_4" gradientUnits="userSpaceOnUse" x1="-48.75" y1="476.1" x2="-48.75" y2="453.6" spreadMethod="pad">
<stop  offset="0%" stop-color="#FFFFFF"/>

<stop  offset="100%" stop-color="#FFFFFF" stop-opacity="0"/>
</linearGradient>

<linearGradient id="Gradient_5" gradientUnits="userSpaceOnUse" x1="123.3" y1="476.1" x2="123.3" y2="453.6" spreadMethod="pad">
<stop  offset="0%" stop-color="#FFFFFF"/>

<stop  offset="100%" stop-color="#FFFFFF" stop-opacity="0"/>
</linearGradient>

<linearGradient id="Gradient_6" gradientUnits="userSpaceOnUse" x1="97.1" y1="0" x2="97.1" y2="25.5" spreadMethod="pad">
<stop  offset="0%" stop-color="#FFFFFF"/>

<stop  offset="100%" stop-color="#FFFFFF" stop-opacity="0"/>
</linearGradient>

<linearGradient id="Gradient_7" gradientUnits="userSpaceOnUse" x1="-129.5" y1="0" x2="-129.5" y2="25.5" spreadMethod="pad">
<stop  offset="0%" stop-color="#FFFFFF"/>

<stop  offset="100%" stop-color="#FFFFFF" stop-opacity="0"/>
</linearGradient>

<linearGradient id="Gradient_8" gradientUnits="userSpaceOnUse" x1="-137.85" y1="0" x2="-137.85" y2="25.5" spreadMethod="pad">
<stop  offset="0%" stop-color="#FFFFFF"/>

<stop  offset="100%" stop-color="#FFFFFF" stop-opacity="0"/>
</linearGradient>

<linearGradient id="Gradient_9" gradientUnits="userSpaceOnUse" x1="-40.4" y1="0" x2="-40.4" y2="25.5" spreadMethod="pad">
<stop  offset="0%" stop-color="#FFFFFF"/>

<stop  offset="100%" stop-color="#FFFFFF" stop-opacity="0"/>
</linearGradient>

<linearGradient id="Gradient_10" gradientUnits="userSpaceOnUse" x1="123.35" y1="0" x2="123.35" y2="25.5" spreadMethod="pad">
<stop  offset="0%" stop-color="#FFFFFF"/>

<stop  offset="100%" stop-color="#FFFFFF" stop-opacity="0"/>
</linearGradient>

<linearGradient id="Gradient_11" gradientUnits="userSpaceOnUse" x1="-195.35" y1="381.5375" x2="-195.35" y2="-322.0375" spreadMethod="pad">
<stop  offset="0%" stop-color="#070912"/>

<stop  offset="25.88235294117647%" stop-color="#232854"/>

<stop  offset="49.80392156862745%" stop-color="#161B36"/>

<stop  offset="100%" stop-color="#070912"/>
</linearGradient>

<linearGradient id="Gradient_12" gradientUnits="userSpaceOnUse" x1="-200.35" y1="381.5375" x2="-200.35" y2="-322.0375" spreadMethod="pad">
<stop  offset="0%" stop-color="#070912"/>

<stop  offset="25.88235294117647%" stop-color="#232854"/>

<stop  offset="49.80392156862745%" stop-color="#161B36"/>

<stop  offset="100%" stop-color="#070912"/>
</linearGradient>

<g id="movies_text_box_0_Layer3_0_FILL">
<path fill="#FFFFFF" fill-opacity="0.7019607843137254" stroke="none" d="
M 215.7 4.4
Q 211.22109375 0 204.85 0
L 16.35 0
Q 10.0287109375 0 5.5 4.4 1.023046875 8.8 1 15
L 1 461.1
Q 1.023046875 467.3 5.5 471.7 10.0287109375 476.1 16.35 476.1
L 204.85 476.1
Q 211.22109375 476.1 215.7 471.7 220.2267578125 467.3 220.2 461.1
L 220.2 15
Q 220.2267578125 8.8 215.7 4.4 Z"/>
</g>

<g id="movies_text_box_0_Layer2_0_FILL">
<path fill="url(#Gradient_1)" stroke="none" d="
M 5.4 471.7
Q 9.8 476.1 16 476.1
L 63.75 476.1 63.75 453.6 1 453.6 1 461.1
Q 1 467.3 5.4 471.7 Z"/>

<path fill="url(#Gradient_2)" stroke="none" d="
M 113.25 476.1
L 113.25 453.6 63.75 453.6 63.75 476.1 113.25 476.1 Z"/>

<path fill="url(#Gradient_3)" stroke="none" d="
M 113.25 453.6
L 113.25 476.1 158.7 476.1 158.7 453.6 113.25 453.6 Z"/>

<path fill="url(#Gradient_4)" stroke="none" d="
M 170.45 476.1
L 170.45 453.6 158.75 453.6 158.75 476.1 170.45 476.1 Z"/>

<path fill="url(#Gradient_5)" stroke="none" d="
M 170.45 453.6
L 170.45 476.1 204.4 476.1
Q 210.6 476.1 215 471.7 219.4 467.3 219.4 461.1
L 219.4 453.6 170.45 453.6 Z"/>

<path fill="url(#Gradient_6)" stroke="none" d="
M 63.75 25.5
L 63.75 0 16 0
Q 9.8 0 5.4 4.4 1 8.8 1 15
L 1 25.5 63.75 25.5 Z"/>

<path fill="url(#Gradient_7)" stroke="none" d="
M 113.25 25.5
L 113.25 0 63.75 0 63.75 25.5 113.25 25.5 Z"/>

<path fill="url(#Gradient_8)" stroke="none" d="
M 159.8 25.5
L 159.8 0 113.3 0 113.3 25.5 159.8 25.5 Z"/>

<path fill="url(#Gradient_9)" stroke="none" d="
M 170.05 25.5
L 170.05 0 159.8 0 159.8 25.5 170.05 25.5 Z"/>

<path fill="url(#Gradient_10)" stroke="none" d="
M 215 4.4
Q 210.6 0 204.4 0
L 170.05 0 170.05 25.5 219.4 25.5 219.4 15
Q 219.4 8.8 215 4.4 Z"/>
</g>

<g id="Mask_graphics_rectangle_2_0_2_MASK_0_FILL">
<path fill="#FFFFFF" stroke="none" d="
M -94.3 -206.65
Q -98.7 -211.05 -104.9 -211.05
L -292.05 -211.05
Q -298.25 -211.05 -302.65 -206.65 -307.05 -202.25 -307.05 -196.05
L -307.05 251.55
Q -307.05 257.75 -302.65 262.15 -298.25 266.55 -292.05 266.55
L -104.9 266.55
Q -98.7 266.55 -94.3 262.15 -89.9 257.75 -89.9 251.55
L -89.9 -196.05
Q -89.9 -202.25 -94.3 -206.65 Z"/>
</g>

<g id="graphics_rectangle_2_0_Layer2_0_FILL">
<path fill="#FFFFFF" fill-opacity="0.10196078431372549" stroke="none" d="
M -64.95 197
L -314.1 197 -314.1 199.6 -64.95 199.6 -64.95 197
M -314.1 248.5
L -314.1 251.05 -64.95 251.05 -64.95 248.5 -314.1 248.5
M -314.1 222.75
L -314.1 225.3 -64.95 225.3 -64.95 222.75 -314.1 222.75
M -314.1 233.05
L -314.1 235.6 -64.95 235.6 -64.95 233.05 -314.1 233.05
M -314.1 238.15
L -314.1 240.75 -64.95 240.75 -64.95 238.15 -314.1 238.15
M -314.1 243.35
L -314.1 245.9 -64.95 245.9 -64.95 243.35 -314.1 243.35
M -314.1 227.9
L -314.1 230.45 -64.95 230.45 -64.95 227.9 -314.1 227.9
M -314.1 202.15
L -314.1 204.7 -64.95 204.7 -64.95 202.15 -314.1 202.15
M -314.1 207.3
L -314.1 209.85 -64.95 209.85 -64.95 207.3 -314.1 207.3
M -314.1 217.6
L -314.1 220.15 -64.95 220.15 -64.95 217.6 -314.1 217.6
M -314.1 212.45
L -314.1 215 -64.95 215 -64.95 212.45 -314.1 212.45
M -314.7 50.3
L -268.2 50.3 -268.2 47.7 -314.7 47.7 -314.7 50.3
M -314.7 52.85
L -314.7 55.45 -268.2 55.45 -268.2 52.85 -314.7 52.85
M -268.2 45.15
L -268.2 42.55 -314.7 42.55 -314.7 45.15 -268.2 45.15
M -268.2 29.7
L -268.2 27.15 -314.7 27.15 -314.7 29.7 -268.2 29.7
M -268.2 34.85
L -268.2 32.3 -314.7 32.3 -314.7 34.85 -268.2 34.85
M -268.2 40
L -268.2 37.4 -314.7 37.4 -314.7 40 -268.2 40
M -268.2 14.3
L -268.2 11.7 -314.7 11.7 -314.7 14.3 -268.2 14.3
M -268.2 19.4
L -268.2 16.85 -314.7 16.85 -314.7 19.4 -268.2 19.4
M -268.2 24.55
L -268.2 22 -314.7 22 -314.7 24.55 -268.2 24.55
M -268.2 9.15
L -268.2 6.6 -314.7 6.6 -314.7 9.15 -268.2 9.15
M -268.2 4
L -268.2 1.45 -314.7 1.45 -314.7 4 -268.2 4
M -64.95 173.85
L -64.95 171.25 -314.1 171.25 -314.1 173.85 -64.95 173.85
M -64.95 189.3
L -64.95 186.7 -314.1 186.7 -314.1 189.3 -64.95 189.3
M -64.95 194.45
L -64.95 191.85 -314.1 191.85 -314.1 194.45 -64.95 194.45
M -64.95 184.15
L -64.95 181.55 -314.1 181.55 -314.1 184.15 -64.95 184.15
M -64.95 179
L -64.95 176.4 -314.1 176.4 -314.1 179 -64.95 179
M -64.95 163.55
L -64.95 161 -314.1 161 -314.1 163.55 -64.95 163.55
M -64.95 168.7
L -64.95 166.15 -314.1 166.15 -314.1 168.7 -64.95 168.7
M -64.95 158.4
L -64.95 155.85 -314.1 155.85 -314.1 158.4 -64.95 158.4
M -64.95 153.25
L -64.95 150.65 -314.1 150.65 -314.1 153.25 -64.95 153.25
M -64.95 132.65
L -64.95 130.1 -314.1 130.1 -314.1 132.65 -64.95 132.65
M -64.95 137.8
L -64.95 135.2 -314.1 135.2 -314.1 137.8 -64.95 137.8
M -64.95 142.95
L -64.95 140.35 -314.1 140.35 -314.1 142.95 -64.95 142.95
M -64.95 148.1
L -64.95 145.5 -314.1 145.5 -314.1 148.1 -64.95 148.1
M -64.95 127.5
L -64.95 124.95 -314.1 124.95 -314.1 127.5 -64.95 127.5
M -64.95 122.35
L -64.95 119.8 -314.1 119.8 -314.1 122.35 -64.95 122.35
M -64.95 117.2
L -64.95 114.65 -314.1 114.65 -314.1 117.2 -64.95 117.2
M -64.95 112.05
L -64.95 109.5 -314.1 109.5 -314.1 112.05 -64.95 112.05
M -64.95 101.75
L -64.95 99.2 -314.1 99.2 -314.1 101.75 -64.95 101.75
M -64.95 106.9
L -64.95 104.35 -314.1 104.35 -314.1 106.9 -64.95 106.9
M -64.95 50.3
L -64.95 47.7 -268.15 47.7 -268.15 50.3 -64.95 50.3
M -64.95 76.05
L -64.95 73.45 -314.1 73.45 -314.1 76.05 -64.95 76.05
M -64.95 96.65
L -64.95 94.05 -314.1 94.05 -314.1 96.65 -64.95 96.65
M -64.95 91.5
L -64.95 88.9 -314.1 88.9 -314.1 91.5 -64.95 91.5
M -64.95 86.35
L -64.95 83.75 -314.1 83.75 -314.1 86.35 -64.95 86.35
M -64.95 81.2
L -64.95 78.6 -314.1 78.6 -314.1 81.2 -64.95 81.2
M -64.95 70.9
L -64.95 68.3 -314.1 68.3 -314.1 70.9 -64.95 70.9
M -64.95 65.75
L -64.95 63.2 -314.1 63.2 -314.1 65.75 -64.95 65.75
M -64.95 60.6
L -64.95 58 -314.1 58 -314.1 60.6 -64.95 60.6
M -64.95 55.45
L -64.95 52.85 -268.15 52.85 -268.15 55.45 -64.95 55.45
M -64.95 45.15
L -64.95 42.55 -268.15 42.55 -268.15 45.15 -64.95 45.15
M -64.95 29.7
L -64.95 27.15 -268.15 27.15 -268.15 29.7 -64.95 29.7
M -64.95 34.85
L -64.95 32.3 -268.15 32.3 -268.15 34.85 -64.95 34.85
M -64.95 40
L -64.95 37.4 -268.15 37.4 -268.15 40 -64.95 40
M -64.95 24.55
L -64.95 22 -268.15 22 -268.15 24.55 -64.95 24.55
M -64.95 19.4
L -64.95 16.85 -268.15 16.85 -268.15 19.4 -64.95 19.4
M -64.95 9.15
L -64.95 6.6 -268.15 6.6 -268.15 9.15 -64.95 9.15
M -64.95 14.3
L -64.95 11.7 -268.15 11.7 -268.15 14.3 -64.95 14.3
M -64.95 4
L -64.95 1.45 -268.15 1.45 -268.15 4 -64.95 4
M -64.95 -199.3
L -314.1 -199.3 -314.1 -196.75 -64.95 -196.75 -64.95 -199.3
M -314.1 -101.5
L -314.1 -98.95 -64.95 -98.95 -64.95 -101.5 -314.1 -101.5
M -314.1 -50.05
L -314.1 -47.5 -64.95 -47.5 -64.95 -50.05 -314.1 -50.05
M -268.15 -14
L -268.15 -11.45 -64.95 -11.45 -64.95 -14 -268.15 -14
M -268.15 -3.7
L -268.15 -1.15 -64.95 -1.15 -64.95 -3.7 -268.15 -3.7
M -268.15 -8.85
L -268.15 -6.3 -64.95 -6.3 -64.95 -8.85 -268.15 -8.85
M -268.15 -19.15
L -268.15 -16.6 -64.95 -16.6 -64.95 -19.15 -268.15 -19.15
M -268.15 -24.3
L -268.15 -21.75 -64.95 -21.75 -64.95 -24.3 -268.15 -24.3
M -268.15 -34.6
L -268.15 -32 -64.95 -32 -64.95 -34.6 -268.15 -34.6
M -268.15 -29.45
L -268.15 -26.85 -64.95 -26.85 -64.95 -29.45 -268.15 -29.45
M -314.7 -3.7
L -314.7 -1.15 -268.2 -1.15 -268.2 -3.7 -314.7 -3.7
M -314.7 -8.85
L -314.7 -6.3 -268.2 -6.3 -268.2 -8.85 -314.7 -8.85
M -314.7 -19.15
L -314.7 -16.6 -268.2 -16.6 -268.2 -19.15 -314.7 -19.15
M -314.7 -14
L -314.7 -11.45 -268.2 -11.45 -268.2 -14 -314.7 -14
M -314.7 -24.3
L -314.7 -21.75 -268.2 -21.75 -268.2 -24.3 -314.7 -24.3
M -314.1 -39.75
L -314.1 -37.15 -64.95 -37.15 -64.95 -39.75 -314.1 -39.75
M -314.7 -34.6
L -314.7 -32 -268.2 -32 -268.2 -34.6 -314.7 -34.6
M -314.7 -29.45
L -314.7 -26.85 -268.2 -26.85 -268.2 -29.45 -314.7 -29.45
M -314.1 -44.9
L -314.1 -42.35 -64.95 -42.35 -64.95 -44.9 -314.1 -44.9
M -314.1 -75.8
L -314.1 -73.2 -64.95 -73.2 -64.95 -75.8 -314.1 -75.8
M -314.1 -65.5
L -314.1 -62.9 -64.95 -62.9 -64.95 -65.5 -314.1 -65.5
M -314.1 -60.35
L -314.1 -57.8 -64.95 -57.8 -64.95 -60.35 -314.1 -60.35
M -314.1 -55.2
L -314.1 -52.65 -64.95 -52.65 -64.95 -55.2 -314.1 -55.2
M -314.1 -70.65
L -314.1 -68.05 -64.95 -68.05 -64.95 -70.65 -314.1 -70.65
M -314.1 -91.25
L -314.1 -88.65 -64.95 -88.65 -64.95 -91.25 -314.1 -91.25
M -314.1 -86.1
L -314.1 -83.5 -64.95 -83.5 -64.95 -86.1 -314.1 -86.1
M -314.1 -80.95
L -314.1 -78.35 -64.95 -78.35 -64.95 -80.95 -314.1 -80.95
M -314.1 -96.35
L -314.1 -93.8 -64.95 -93.8 -64.95 -96.35 -314.1 -96.35
M -314.1 -111.8
L -314.1 -109.25 -64.95 -109.25 -64.95 -111.8 -314.1 -111.8
M -314.1 -106.65
L -314.1 -104.1 -64.95 -104.1 -64.95 -106.65 -314.1 -106.65
M -314.1 -116.95
L -314.1 -114.4 -64.95 -114.4 -64.95 -116.95 -314.1 -116.95
M -314.1 -122.1
L -314.1 -119.55 -64.95 -119.55 -64.95 -122.1 -314.1 -122.1
M -314.1 -137.55
L -314.1 -135 -64.95 -135 -64.95 -137.55 -314.1 -137.55
M -314.1 -127.25
L -314.1 -124.7 -64.95 -124.7 -64.95 -127.25 -314.1 -127.25
M -314.1 -132.4
L -314.1 -129.85 -64.95 -129.85 -64.95 -132.4 -314.1 -132.4
M -314.1 -142.7
L -314.1 -140.15 -64.95 -140.15 -64.95 -142.7 -314.1 -142.7
M -314.1 -147.85
L -314.1 -145.3 -64.95 -145.3 -64.95 -147.85 -314.1 -147.85
M -314.1 -173.6
L -314.1 -171 -64.95 -171 -64.95 -173.6 -314.1 -173.6
M -314.1 -153
L -314.1 -150.45 -64.95 -150.45 -64.95 -153 -314.1 -153
M -314.1 -158.15
L -314.1 -155.6 -64.95 -155.6 -64.95 -158.15 -314.1 -158.15
M -314.1 -163.3
L -314.1 -160.7 -64.95 -160.7 -64.95 -163.3 -314.1 -163.3
M -314.1 -168.45
L -314.1 -165.85 -64.95 -165.85 -64.95 -168.45 -314.1 -168.45
M -314.1 -183.9
L -314.1 -181.3 -64.95 -181.3 -64.95 -183.9 -314.1 -183.9
M -314.1 -178.75
L -314.1 -176.15 -64.95 -176.15 -64.95 -178.75 -314.1 -178.75
M -314.1 -189.05
L -314.1 -186.45 -64.95 -186.45 -64.95 -189.05 -314.1 -189.05
M -314.1 -194.15
L -314.1 -191.6 -64.95 -191.6 -64.95 -194.15 -314.1 -194.15
M -64.95 -212.2
L -64.95 -214.75 -314.1 -214.75 -314.1 -212.2 -64.95 -212.2
M -64.95 -207.05
L -64.95 -209.6 -314.1 -209.6 -314.1 -207.05 -64.95 -207.05
M -64.95 -201.9
L -64.95 -204.45 -314.1 -204.45 -314.1 -201.9 -64.95 -201.9 Z"/>
</g>

<g id="graphics_rectangle_2_0_Layer0_0_FILL">
<path fill="url(#Gradient_11)" stroke="none" d="
M -137.1 -212.55
L -137.1 -209.55 -100.2 -209.55
Q -94.6154296875 -209.5546875 -90.65 -205.6 -86.6955078125 -201.634765625 -86.7 -196.05
L -86.7 251.55
Q -86.6955078125 257.1345703125 -90.65 261.1 -94.6154296875 265.0544921875 -100.2 265.05
L -137.1 265.05 -137.1 268.05 -100.2 268.05
Q -93.3849609375 268.0455078125 -88.55 263.2 -83.7044921875 258.3650390625 -83.7 251.55
L -83.7 -196.05
Q -83.7044921875 -202.865234375 -88.55 -207.7 -93.3849609375 -212.545703125 -100.2 -212.55
L -137.1 -212.55 Z"/>

<path fill="url(#Gradient_12)" stroke="none" d="
M -137.1 -209.55
L -137.1 -212.55 -292.05 -212.55
Q -298.865234375 -212.545703125 -303.7 -207.7 -308.545703125 -202.865234375 -308.55 -196.05
L -308.55 251.55
Q -308.545703125 258.3650390625 -303.7 263.2 -298.865234375 268.0455078125 -292.05 268.05
L -137.1 268.05 -137.1 265.05 -292.05 265.05
Q -297.634765625 265.0544921875 -301.6 261.1 -305.5546875 257.1345703125 -305.55 251.55
L -305.55 -196.05
Q -305.5546875 -201.634765625 -301.6 -205.6 -297.634765625 -209.5546875 -292.05 -209.55
L -137.1 -209.55 Z"/>
</g>
</defs>

<g id="messagePanel" transform="matrix( 1.0006561279296875, 0, 0, 1.0008392333984375, 3.9,4.75) ">
<g transform="matrix( 1, 0, 0, 1, 0,0) ">
<use xlink:href="#movies_text_box_0_Layer3_0_FILL"/>
</g>

<g transform="matrix( 1, 0, 0, 1, 0,0) ">
<use xlink:href="#movies_text_box_0_Layer2_0_FILL"/>
</g>

<g transform="matrix( 1, 0, 0, 1, 306.85,210.45) ">
<mask id="Mask_Mask_1">
<g transform="matrix( 1, 0, 0, 1, 0,0) ">
<use xlink:href="#Mask_graphics_rectangle_2_0_2_MASK_0_FILL"/>
</g>
</mask>

<g mask="url(#Mask_Mask_1)">
<g transform="matrix( 1, 0, 0, 1, 0,0) ">
<use xlink:href="#graphics_rectangle_2_0_Layer2_0_FILL"/>
</g>
</g>

<g transform="matrix( 1, 0, 0, 1, 0,0) ">
<use xlink:href="#graphics_rectangle_2_0_Layer0_0_FILL"/>
</g>
</g>
</g>
</svg>
