
<svg xmlns="http://www.w3.org/2000/svg" version="1.1" xmlns:xlink="http://www.w3.org/1999/xlink" preserveAspectRatio="none" x="0px" y="0px" width="59px" height="59px" viewBox="0 0 59 59">
<defs>
<radialGradient id="Gradient_1" gradientUnits="userSpaceOnUse" cx="0" cy="0" r="22.8125" fx="0" fy="0" gradientTransform="matrix( 0, 1.0000000000000002, -0.9747945205479454, 0, 29.5,29) " spreadMethod="pad">
<stop  offset="27.058823529411764%" stop-color="#F4F4F4" stop-opacity="0.7019607843137254"/>

<stop  offset="100%" stop-color="#2F2F2F"/>
</radialGradient>

<radialGradient id="Gradient_2" gradientUnits="userSpaceOnUse" cx="0" cy="0" r="17.825000000000003" fx="0" fy="0" gradientTransform="matrix( 1, 0, 0, 0.929172510518934, 29.75,23.85) " spreadMethod="pad">
<stop  offset="68.62745098039215%" stop-color="#F4F4F4" stop-opacity="0.4980392156862745"/>

<stop  offset="100%" stop-color="#6F6F6F" stop-opacity="0"/>
</radialGradient>

<g id="Layer5_0_FILL">
<path fill="#D5D5D5" stroke="none" d="
M 50 8.95
Q 45.95 4.95 40.75 2.75 35.35 0.5 29.5 0.5 23.55 0.5 18.2 2.75 13 4.95 8.95 8.95 4.95 13 2.75 18.2 0.5 23.55 0.5 29.5 0.5 35.4 2.75 40.75 4.95 45.95 8.95 50 13 54 18.2 56.2 23.6 58.5 29.5 58.5 35.4 58.45 40.75 56.2 45.95 54 50 50 54 45.95 56.2 40.75 58.5 35.35 58.5 29.5 58.45 23.55 56.2 18.2 54 13 50 8.95 Z"/>
</g>

<g id="Layer4_0_FILL">
<path fill="#6F6F6F" stroke="none" d="
M 53.45 19.35
Q 51.45 14.7 47.85 11.1 44.25 7.5 39.6 5.5 34.75 3.5 29.5 3.5 24.2 3.5 19.35 5.5 14.7 7.5 11.1 11.1 7.5 14.7 5.5 19.35 3.5 24.2 3.5 29.5 3.5 34.75 5.5 39.6 7.5 44.25 11.1 47.85 14.7 51.45 19.35 53.45 24.2 55.5 29.5 55.5 34.75 55.45 39.6 53.45 44.25 51.45 47.85 47.85 51.45 44.25 53.45 39.6 55.5 34.75 55.5 29.5 55.45 24.2 53.45 19.35 Z"/>
</g>

<g id="Layer3_0_FILL">
<path fill="url(#Gradient_1)" stroke="none" d="
M 45.4 45.45
Q 52 38.85 52 29.5 52 20.15 45.4 13.6 38.85 7 29.5 7 20.15 7 13.5 13.6 7 20.15 7 29.5 7 38.85 13.5 45.45 20.15 52 29.5 52 38.85 52 45.4 45.45 Z"/>
</g>

<g id="Layer2_0_FILL">
<path fill="url(#Gradient_2)" stroke="none" d="
M 41.85 45.65
Q 47 39.8 47 31.5 47 23.15 41.85 17.35 36.8 11.5 29.5 11.5 22.2 11.5 17.05 17.35 12 23.15 12 31.5 12 39.8 17.05 45.65 22.2 51.5 29.5 51.5 36.8 51.5 41.85 45.65 Z"/>
</g>

<g id="Layer1_0_FILL">
<path fill="#333333" stroke="none" d="
M 26.45 17.7
L 26.45 23.5 20.45 23.5 20.45 36.5 26.45 36.55 26.45 42.6 43.8 30.05 26.45 17.7 Z"/>
</g>
</defs>

<g transform="matrix( 1, 0, 0, 1, 0,0) ">
<use xlink:href="#Layer5_0_FILL"/>
</g>

<g transform="matrix( 1, 0, 0, 1, 0,0) ">
<use xlink:href="#Layer4_0_FILL"/>
</g>

<g transform="matrix( 1, 0, 0, 1, 0,0) ">
<use xlink:href="#Layer3_0_FILL"/>
</g>

<g transform="matrix( 1, 0, 0, 1, 0,0) ">
<use xlink:href="#Layer2_0_FILL"/>
</g>

<g transform="matrix( 1, 0, 0, 1, 0,0) ">
<use xlink:href="#Layer1_0_FILL"/>
</g>
</svg>
