
<svg xmlns="http://www.w3.org/2000/svg" version="1.1" xmlns:xlink="http://www.w3.org/1999/xlink" preserveAspectRatio="none" x="0px" y="0px" width="30px" height="30px" viewBox="0 0 30 30">
<defs>
<radialGradient id="Gradient_1" gradientUnits="userSpaceOnUse" cx="0" cy="0" r="22.8125" fx="0" fy="0" gradientTransform="matrix( 0, 1.0000000000000002, -0.9747945205479454, 0, -7.3,-9.8) " spreadMethod="pad">
<stop  offset="27.058823529411764%" stop-color="#F4F4F4" stop-opacity="0.7019607843137254"/>

<stop  offset="100%" stop-color="#2F2F2F"/>
</radialGradient>

<radialGradient id="Gradient_2" gradientUnits="userSpaceOnUse" cx="0" cy="0" r="17.825" fx="0" fy="0" gradientTransform="matrix( 1.0000000000000002, 0, 0, 0.9291725105189342, -7.05,-14.95) " spreadMethod="pad">
<stop  offset="68.62745098039215%" stop-color="#F4F4F4" stop-opacity="0.4980392156862745"/>

<stop  offset="100%" stop-color="#6F6F6F" stop-opacity="0"/>
</radialGradient>

<filter id="Filter_1" x="-20%" y="-20%" width="140%" height="140%" color-interpolation-filters="sRGB">
<feColorMatrix in="SourceGraphic" type="matrix" values="1 0 0 0 0 0 1 0 0 0 0 0 1 0 0 0 0 0 0 0" result="result1"/>
</filter>

<filter id="Filter_2" x="-20%" y="-20%" width="140%" height="140%" color-interpolation-filters="sRGB">
<feColorMatrix in="SourceGraphic" type="matrix" values="1 0 0 0 0 0 1 0 0 0 0 0 1 0 0 0 0 0 0.4 0" result="result1"/>
</filter>

<g id="selectionRect_0_Layer0_0_FILL">
<path fill="#FFFF00" stroke="none" d="
M 62 14
L 62 -15 -18 -15 -18 14 62 14 Z"/>
</g>

<g id="buttons_next_0_Layer5_0_FILL">
<path fill="#D5D5D5" stroke="none" d="
M 21.7 -9.3
Q 21.65 -15.25 19.4 -20.6 17.2 -25.8 13.2 -29.85 9.15 -33.85 3.95 -36.05 -1.45 -38.3 -7.3 -38.3 -13.25 -38.3 -18.6 -36.05 -23.8 -33.85 -27.85 -29.85 -31.85 -25.8 -34.05 -20.6 -36.3 -15.25 -36.3 -9.3 -36.3 -3.4 -34.05 1.95 -31.85 7.15 -27.85 11.2 -23.8 15.2 -18.6 17.4 -13.2 19.7 -7.3 19.7 -1.4 19.65 3.95 17.4 9.15 15.2 13.2 11.2 17.2 7.15 19.4 1.95 21.7 -3.45 21.7 -9.3 Z"/>
</g>

<g id="buttons_next_0_Layer4_0_FILL">
<path fill="#6F6F6F" stroke="none" d="
M 18.7 -9.3
Q 18.65 -14.6 16.65 -19.45 14.65 -24.1 11.05 -27.7 7.45 -31.3 2.8 -33.3 -2.05 -35.3 -7.3 -35.3 -12.6 -35.3 -17.45 -33.3 -22.1 -31.3 -25.7 -27.7 -29.3 -24.1 -31.3 -19.45 -33.3 -14.6 -33.3 -9.3 -33.3 -4.05 -31.3 0.8 -29.3 5.45 -25.7 9.05 -22.1 12.65 -17.45 14.65 -12.6 16.7 -7.3 16.7 -2.05 16.65 2.8 14.65 7.45 12.65 11.05 9.05 14.65 5.45 16.65 0.8 18.7 -4.05 18.7 -9.3 Z"/>
</g>

<g id="buttons_next_0_Layer3_0_FILL">
<path fill="url(#Gradient_1)" stroke="none" d="
M 15.2 -9.3
Q 15.2 -18.65 8.6 -25.2 2.05 -31.8 -7.3 -31.8 -16.65 -31.8 -23.3 -25.2 -29.8 -18.65 -29.8 -9.3 -29.8 0.05 -23.3 6.65 -16.65 13.2 -7.3 13.2 2.05 13.2 8.6 6.65 15.2 0.05 15.2 -9.3 Z"/>
</g>

<g id="buttons_next_0_Layer2_0_FILL">
<path fill="url(#Gradient_2)" stroke="none" d="
M 10.2 -7.3
Q 10.2 -15.65 5.05 -21.45 0 -27.3 -7.3 -27.3 -14.6 -27.3 -19.75 -21.45 -24.8 -15.65 -24.8 -7.3 -24.8 1 -19.75 6.85 -14.6 12.7 -7.3 12.7 0 12.7 5.05 6.85 10.2 1 10.2 -7.3 Z"/>
</g>

<g id="buttons_next_0_Layer1_0_FILL">
<path fill="#333333" stroke="none" d="
M -16.35 -15.3
L -16.35 -2.3 -10.35 -2.25 -10.35 3.8 7 -8.75 -10.35 -21.1 -10.35 -15.3 -16.35 -15.3 Z"/>
</g>
</defs>

<g id="nextButton" transform="matrix( 0.5, 0, 0, 0.5, 18.45,19.45) ">
<g transform="matrix( 0.888824462890625, 0, 0, 2.556732177734375, -7.3,-9.25) ">
<g transform="matrix( 1, 0, 0, 1, -22,0.5) ">
<use filter="url(#Filter_1)" xlink:href="#selectionRect_0_Layer0_0_FILL"/>
</g>
</g>

<g transform="matrix( 1, 0, 0, 1, 0,0) ">
<use filter="url(#Filter_2)" xlink:href="#buttons_next_0_Layer5_0_FILL"/>
</g>

<g transform="matrix( 1, 0, 0, 1, 0,0) ">
<use filter="url(#Filter_2)" xlink:href="#buttons_next_0_Layer4_0_FILL"/>
</g>

<g transform="matrix( 1, 0, 0, 1, 0,0) ">
<use filter="url(#Filter_2)" xlink:href="#buttons_next_0_Layer3_0_FILL"/>
</g>

<g transform="matrix( 1, 0, 0, 1, 0,0) ">
<use filter="url(#Filter_2)" xlink:href="#buttons_next_0_Layer2_0_FILL"/>
</g>

<g transform="matrix( 1, 0, 0, 1, 0,0) ">
<use filter="url(#Filter_2)" xlink:href="#buttons_next_0_Layer1_0_FILL"/>
</g>
</g>
</svg>
