
<svg xmlns="http://www.w3.org/2000/svg" version="1.1" xmlns:xlink="http://www.w3.org/1999/xlink" preserveAspectRatio="none" x="0px" y="0px" width="240px" height="72px" viewBox="0 0 240 72">
<defs>
<g id="ground_surface_0_Layer4_0_FILL">
<path fill="#45DA77" stroke="none" d="
M 117.65 37.95
Q 117.6744140625 23.2734375 82.65 12.85 47.686328125 2.4748046875 -1.85 2.45 -51.348828125 2.4748046875 -86.4 12.85 -121.349609375 23.2734375 -121.35 37.95 -121.349609375 52.676171875 -86.4 63.05 -51.348828125 73.474609375 -1.85 73.45 47.686328125 73.474609375 82.65 63.05 117.6744140625 52.676171875 117.65 37.95 Z"/>
</g>

<g id="dude_0_Layer0_0_FILL">
<path fill="#333333" stroke="none" d="
M -3.45 -1.25
L -3.45 -2.3
Q -3.508984375 -1.89609375 -3.6 -1.5 -3.52578125 -1.3744140625 -3.45 -1.25
M 3.55 -0.3
L 3.2 -2.55 3.5 -5.95
Q 3.3349609375 -6.762890625 2.85 -6.85 2.366015625 -6.9390625 2.15 -7 1.9302734375 -7.00703125 1.45 -7 1.0603515625 -7.9337890625 1.45 -7.95 1.8552734375 -7.9650390625 1.8 -9.55 1.7310546875 -11.1431640625 0.3 -11.15 -1.07578125 -11.1462890625 -1.05 -9.7 -1.0154296875 -8.20234375 -0.5 -7.85 -0.5 -7.7876953125 -0.5 -7.75 -0.33828125 -7.308984375 -0.35 -6.95 -1.5716796875 -6.8564453125 -2.1 -6.45 -2.6 -5.85 -2.85 -5 -3 -4.55 -3.1 -4.05 -3.25 -3.5 -3.35 -2.95 -3.397265625 -2.6197265625 -3.45 -2.3
L -3.45 -1.25
Q -3.174609375 -0.7314453125 -2.55 -0.05
L -2.55 -0.05
Q -2.0900390625 1.053125 -1.45 1 -1.52890625 2.225390625 -1.5 3.5 -1.4673828125 4.8208984375 -1.4 5.2 -1.2939453125 5.587890625 -1.3 5.85 -1.1208984375 9.5802734375 -0.95 11.2 -1.3150390625 11.22421875 -1.6 11.85 -1.8365234375 12.465234375 -0.5 12.45 0.891796875 12.44375 0.9 11.95 0.951953125 11.4453125 1.05 11.2 0.766796875 10.5287109375 0.75 8.9 0.7333984375 7.318359375 0.6 6.45 0.9568359375 5.8412109375 0.85 3.5
L 2 6.45
Q 2.114453125 6.132421875 2.1 8.05 2.146484375 9.9646484375 2.3 10.6 2.44921875 11.2876953125 2.45 11.55 2.39453125 12.204296875 3 12.2 3.6130859375 12.23671875 3.8 12.2 3.9908203125 12.163671875 5 12.2 6.049609375 12.2439453125 6.05 11.65 6.05078125 11.0556640625 4.4 10.75 4.136328125 9.555078125 4.05 8.35 3.949609375 7.155078125 3.8 6.35 3.6607421875 5.5837890625 3.65 5.4 3.6341796875 5.2310546875 3.45 3.8 3.25859375 2.37265625 2.8 0.85 3.5265625 0.6564453125 3.55 -0.3 Z"/>
</g>

<path id="ground_surface_0_Layer3_0_1_STROKES" stroke="#333333" stroke-width="1" stroke-linejoin="round" stroke-linecap="round" fill="none" d="
M -53.05 70.25
L 40.8 4.1"/>

<path id="ground_surface_0_Layer2_0_1_STROKES" stroke="#333333" stroke-width="1" stroke-linejoin="round" stroke-linecap="round" fill="none" d="
M -108.15 21
L 112.85 48.4"/>
</defs>

<g transform="matrix( 1, 0, 0, 1, 121.8,-2) ">
<g transform="matrix( 1, 0, 0, 1, 0,0) ">
<use xlink:href="#ground_surface_0_Layer4_0_FILL"/>
</g>

<g transform="matrix( 1, 0, 0, 1, 0,0) ">
<use xlink:href="#ground_surface_0_Layer3_0_1_STROKES"/>
</g>

<g transform="matrix( 1, 0, 0, 1, 0,0) ">
<use xlink:href="#ground_surface_0_Layer2_0_1_STROKES"/>
</g>

<g id="dude" transform="matrix( -1.30084228515625, 0, 0, 1.30084228515625, -0.55,18.6) ">
<g transform="matrix( 1, 0, 0, 1, 0,0) ">
<use xlink:href="#dude_0_Layer0_0_FILL"/>
</g>
</g>
</g>
</svg>
