
<svg xmlns="http://www.w3.org/2000/svg" version="1.1" xmlns:xlink="http://www.w3.org/1999/xlink" preserveAspectRatio="none" x="0px" y="0px" width="33px" height="30px" viewBox="0 0 33 30">
<defs>
<filter id="Filter_1" x="-20%" y="-20%" width="140%" height="140%" color-interpolation-filters="sRGB">
<feColorMatrix in="SourceGraphic" type="matrix" values="1 0 0 0 0 0 1 0 0 0 0 0 1 0 0 0 0 0 0 0" result="result1"/>
</filter>

<g id="selectionRect_0_Layer0_0_FILL">
<path fill="#FFFF00" stroke="none" d="
M 62 14
L 62 -15 -18 -15 -18 14 62 14 Z"/>
</g>

<g id="Layer3_0_FILL">
<path fill="#E7F2F6" stroke="none" d="
M 25.9 11.45
Q 25.15 9.65 23.8 8.25 22.4 6.85 20.6 6.1 18.75 5.3 16.7 5.3 14.65 5.3 12.8 6.1 11 6.85 9.65 8.25 8.25 9.65 7.5 11.45 6.7 13.3 6.7 15.35 6.7 17.35 7.5 19.2 8.25 21 9.65 22.4 11 23.75 12.8 24.55 14.65 25.3 16.7 25.3 18.75 25.3 20.6 24.55 22.4 23.75 23.8 22.4 25.15 21 25.9 19.2 26.7 17.35 26.7 15.35 26.7 13.3 25.9 11.45 Z"/>
</g>

<g id="Layer1_0_FILL">
<path fill="#000000" stroke="none" d="
M 13.7 10.3
L 13.7 20.3 21.7 15.3 13.7 10.3 Z"/>
</g>
</defs>

<g transform="matrix( 0.414215087890625, 0, 0, 1.0508270263671875, 16.55,15.25) ">
<g transform="matrix( 1, 0, 0, 1, -22,0.5) ">
<use filter="url(#Filter_1)" xlink:href="#selectionRect_0_Layer0_0_FILL"/>
</g>
</g>

<g transform="matrix( 1, 0, 0, 1, 0,0) ">
<use xlink:href="#Layer3_0_FILL"/>
</g>

<g transform="matrix( 1, 0, 0, 1, 0,0) ">
<use xlink:href="#Layer1_0_FILL"/>
</g>
</svg>
