
<svg xmlns="http://www.w3.org/2000/svg" version="1.1" xmlns:xlink="http://www.w3.org/1999/xlink" preserveAspectRatio="none" x="0px" y="0px" width="33px" height="30px" viewBox="0 0 33 30">
<defs>
<filter id="Filter_1" x="-20%" y="-20%" width="140%" height="140%" color-interpolation-filters="sRGB">
<feColorMatrix in="SourceGraphic" type="matrix" values="1 0 0 0 0 0 1 0 0 0 0 0 1 0 0 0 0 0 0 0" result="result1"/>
</filter>

<g id="selectionRect_0_Layer0_0_FILL">
<path fill="#FFFF00" stroke="none" d="
M 62 14
L 62 -15 -18 -15 -18 14 62 14 Z"/>
</g>

<g id="Layer4_0_FILL">
<path fill="#FFFFFF" stroke="none" d="
M 25.75 6.05
Q 23.95 4.25 21.6 3.25 19.15 2.25 16.55 2.25 13.9 2.25 11.5 3.25 9.1 4.25 7.35 6.05 5.55 7.85 4.55 10.2 3.55 12.6 3.55 15.25 3.55 17.85 4.55 20.3 5.55 22.65 7.35 24.45 9.1 26.25 11.5 27.25 13.9 28.25 16.55 28.25 19.15 28.25 21.6 27.3
L 21.6 27.25
Q 23.95 26.25 25.75 24.45 27.5 22.65 28.55 20.3
L 28.6 20.3
Q 29.55 17.85 29.55 15.25 29.55 12.6 28.55 10.2 27.5 7.85 25.75 6.05
M 21.2 4.15
Q 23.35 5.05 25.05 6.75 26.7 8.45 27.65 10.6 28.55 12.8 28.55 15.25 28.55 17.65 27.65 19.95
L 27.65 19.9
Q 26.7 22.05 25.05 23.75 23.35 25.45 21.2 26.35
L 21.25 26.35
Q 18.95 27.25 16.55 27.25 14.1 27.25 11.9 26.35 9.7 25.45 8.05 23.75 6.35 22.05 5.45 19.9
L 5.5 19.95
Q 4.55 17.65 4.55 15.25 4.55 12.8 5.45 10.6 6.35 8.45 8.05 6.75 9.7 5.05 11.9 4.15 14.1 3.25 16.55 3.25 18.95 3.25 21.25 4.2
L 21.2 4.15 Z"/>
</g>

<g id="Layer3_0_FILL">
<path fill="#FFFFFF" stroke="none" d="
M 38.15 -7.1
Q 36.7453125 -5.66875 35.95 -3.9 35.1962890625 -2.0220703125 35.2 0 35.1962890625 2.0482421875 35.95 3.9 36.7453125 5.6810546875 38.15 7.05 39.5134765625 8.4623046875 41.3 9.2 43.1654296875 10.0107421875 45.2 10 47.234375 10.0107421875 49.1 9.2 50.898828125 8.4623046875 52.25 7.05 53.665234375 5.6810546875 54.4 3.9 55.2017578125 2.0482421875 55.2 0 55.2017578125 -2.0220703125 54.4 -3.9 53.665234375 -5.66875 52.25 -7.1 50.898828125 -8.449609375 49.1 -9.2 47.234375 -9.9982421875 45.2 -10 43.1654296875 -9.9982421875 41.3 -9.2 39.5134765625 -8.449609375 38.15 -7.1 Z"/>
</g>

<g id="Layer2_0_FILL">
<path fill="#E7F2F6" stroke="none" d="
M 26.2 11.15
Q 25.4 9.25 23.95 7.85 22.55 6.4 20.65 5.6 18.65 4.75 16.55 4.75 14.4 4.75 12.45 5.6 10.55 6.4 9.15 7.85 7.7 9.25 6.9 11.15 6.05 13.1 6.05 15.25 6.05 17.4 6.9 19.35 7.7 21.25 9.15 22.65 10.55 24.1 12.45 24.9 14.4 25.75 16.55 25.75 18.65 25.75 20.65 24.9 22.55 24.1 23.95 22.65 25.4 21.25 26.2 19.35 27.05 17.4 27.05 15.25 27.05 13.1 26.2 11.15
M 23.25 8.55
Q 24.6 9.85 25.3 11.55 26.05 13.3 26.05 15.25 26.05 17.2 25.3 18.95 24.6 20.65 23.25 21.95 21.95 23.3 20.25 24 18.45 24.75 16.55 24.75 14.6 24.75 12.85 24 11.15 23.3 9.85 21.95 8.5 20.65 7.8 18.95 7.05 17.2 7.05 15.25 7.05 13.3 7.8 11.55 8.5 9.85 9.85 8.55 11.15 7.2 12.85 6.5 14.6 5.75 16.55 5.75 18.45 5.75 20.25 6.5 21.95 7.2 23.25 8.55 Z"/>

<path fill="#66FFFF" stroke="none" d="
M 25.3 11.55
Q 24.6 9.85 23.25 8.55 21.95 7.2 20.25 6.5 18.45 5.75 16.55 5.75 14.6 5.75 12.85 6.5 11.15 7.2 9.85 8.55 8.5 9.85 7.8 11.55 7.05 13.3 7.05 15.25 7.05 17.2 7.8 18.95 8.5 20.65 9.85 21.95 11.15 23.3 12.85 24 14.6 24.75 16.55 24.75 18.45 24.75 20.25 24 21.95 23.3 23.25 21.95 24.6 20.65 25.3 18.95 26.05 17.2 26.05 15.25 26.05 13.3 25.3 11.55 Z"/>
</g>

<g id="Layer1_0_FILL">
<path fill="#000000" stroke="none" d="
M 13.7 10.3
L 13.7 20.3 21.7 15.3 13.7 10.3 Z"/>
</g>
</defs>

<g transform="matrix( 0.414215087890625, 0, 0, 1.0508270263671875, 16.55,15.25) ">
<g transform="matrix( 1, 0, 0, 1, -22,0.5) ">
<use filter="url(#Filter_1)" xlink:href="#selectionRect_0_Layer0_0_FILL"/>
</g>
</g>

<g transform="matrix( 1, 0, 0, 1, -0.05,0.05) ">
<use xlink:href="#Layer4_0_FILL"/>
</g>

<g transform="matrix( 1, 0, 0, 1, -28.5,15.3) ">
<use xlink:href="#Layer3_0_FILL"/>
</g>

<g transform="matrix( 1, 0, 0, 1, -0.05,0.05) ">
<use xlink:href="#Layer2_0_FILL"/>
</g>

<g transform="matrix( 1, 0, 0, 1, 0,0) ">
<use xlink:href="#Layer1_0_FILL"/>
</g>
</svg>
