
<svg xmlns="http://www.w3.org/2000/svg" version="1.1" xmlns:xlink="http://www.w3.org/1999/xlink" preserveAspectRatio="none" x="0px" y="0px" width="33px" height="30px" viewBox="0 0 33 30">
<defs>
<filter id="Filter_1" x="-20%" y="-20%" width="140%" height="140%" color-interpolation-filters="sRGB">
<feColorMatrix in="SourceGraphic" type="matrix" values="1 0 0 0 0 0 1 0 0 0 0 0 1 0 0 0 0 0 0 0" result="result1"/>
</filter>

<g id="selectionRect_0_Layer0_0_FILL">
<path fill="#FFFF00" stroke="none" d="
M 62 14
L 62 -15 -18 -15 -18 14 62 14 Z"/>
</g>

<g id="Layer4_0_FILL">
<path fill="#2D8BB2" stroke="none" d="
M 28.5 10.2
Q 27.5 7.85 25.75 6.05 23.9 4.2 21.6 3.3 19.15 2.25 16.55 2.25 13.9 2.25 11.5 3.3
L 11.55 3.3
Q 9.1 4.2 7.35 6.05 6.2 7.2 5.4 8.55 4.95 9.35 4.6 10.25
L 4.6 10.2
Q 3.55 12.6 3.55 15.25 3.55 17.85 4.6 20.3 4.95 21.15 5.4 21.95 6.2 23.3 7.35 24.45 9.1 26.2 11.5 27.2 13.9 28.25 16.55 28.25 19.15 28.2 21.6 27.25
L 21.6 27.2
Q 23.95 26.2 25.75 24.45 27.5 22.65 28.5 20.3 29.55 17.85 29.55 15.25 29.5 12.6 28.5 10.2
M 25.05 6.75
Q 26.7 8.45 27.6 10.6 28.5 12.8 28.55 15.25 28.55 17.65 27.6 19.9 26.7 22.05 25.05 23.75 23.35 25.4 21.2 26.3
L 21.25 26.3
Q 18.95 27.2 16.55 27.25 14.1 27.25 11.9 26.3 9.7 25.4 8.05 23.75 6.4 22.1 5.55 19.95
L 5.5 19.9
Q 5.45 19.8 5.4 19.65 4.55 17.5 4.55 15.25 4.55 12.95 5.4 10.85 5.45 10.7 5.5 10.6
L 5.55 10.6
Q 6.4 8.4 8.05 6.75 9.7 5.1 11.9 4.25
L 11.9 4.2
Q 14.1 3.25 16.55 3.25 18.95 3.25 21.2 4.2
L 21.25 4.25
Q 23.4 5.1 25.05 6.75 Z"/>
</g>

<g id="Layer3_0_FILL">
<path fill="#2D8BB2" stroke="none" d="
M 25.75 11.4
Q 25 9.6 23.65 8.2 22.25 6.8 20.45 6.05 18.6 5.25 16.55 5.25 14.5 5.25 12.65 6.05 10.85 6.8 9.5 8.2 8.1 9.6 7.35 11.4 6.55 13.25 6.55 15.3 6.55 17.3 7.35 19.15 8.1 20.95 9.5 22.35 10.85 23.7 12.65 24.5 14.5 25.25 16.55 25.25 18.6 25.25 20.45 24.5 22.25 23.7 23.65 22.35 25 20.95 25.75 19.15 26.55 17.3 26.55 15.3 26.55 13.25 25.75 11.4 Z"/>
</g>

<g id="Layer2_0_FILL">
<path fill="#E7F2F6" stroke="none" d="
M 26.2 11.15
Q 25.4 9.25 23.95 7.85 22.55 6.4 20.65 5.6 18.65 4.75 16.55 4.75 14.4 4.75 12.45 5.6 10.55 6.4 9.15 7.85 7.7 9.25 6.9 11.15 6.05 13.1 6.05 15.25 6.05 17.4 6.9 19.35 7.7 21.25 9.15 22.65 10.55 24.1 12.45 24.9 14.4 25.75 16.55 25.75 18.65 25.75 20.65 24.9 22.55 24.1 23.95 22.65 25.4 21.25 26.2 19.35 27.05 17.4 27.05 15.25 27.05 13.1 26.2 11.15
M 23.25 8.55
Q 24.6 9.85 25.3 11.55 26.05 13.3 26.05 15.25 26.05 17.2 25.3 18.95 24.6 20.65 23.25 21.95 21.95 23.3 20.25 24 18.45 24.75 16.55 24.75 14.6 24.75 12.85 24 11.15 23.3 9.85 21.95 8.5 20.65 7.8 18.95 7.05 17.2 7.05 15.25 7.05 13.3 7.8 11.55 8.5 9.85 9.85 8.55 11.15 7.2 12.85 6.5 14.6 5.75 16.55 5.75 18.45 5.75 20.25 6.5 21.95 7.2 23.25 8.55 Z"/>
</g>

<g id="Layer1_0_FILL">
<path fill="#FFFFFF" stroke="none" d="
M 13.55 20.25
L 21.55 15.25 13.55 10.25 13.55 20.25 Z"/>
</g>
</defs>

<g transform="matrix( 0.414215087890625, 0, 0, 1.0508270263671875, 16.55,15.25) ">
<g transform="matrix( 1, 0, 0, 1, -22,0.5) ">
<use filter="url(#Filter_1)" xlink:href="#selectionRect_0_Layer0_0_FILL"/>
</g>
</g>

<g transform="matrix( 1, 0, 0, 1, -0.05,0.05) ">
<use xlink:href="#Layer4_0_FILL"/>
</g>

<g transform="matrix( 1, 0, 0, 1, -0.05,0.05) ">
<use xlink:href="#Layer3_0_FILL"/>
</g>

<g transform="matrix( 1, 0, 0, 1, -0.05,0.05) ">
<use xlink:href="#Layer2_0_FILL"/>
</g>

<g transform="matrix( 1, 0, 0, 1, -0.05,0.05) ">
<use xlink:href="#Layer1_0_FILL"/>
</g>
</svg>
