
<svg xmlns="http://www.w3.org/2000/svg" version="1.1" xmlns:xlink="http://www.w3.org/1999/xlink" preserveAspectRatio="none" x="0px" y="0px" width="33px" height="30px" viewBox="0 0 33 30">
<defs>
<filter id="Filter_1" x="-20%" y="-20%" width="140%" height="140%" color-interpolation-filters="sRGB">
<feColorMatrix in="SourceGraphic" type="matrix" values="1 0 0 0 0 0 1 0 0 0 0 0 1 0 0 0 0 0 0 0" result="result1"/>
</filter>

<g id="selectionRect_0_Layer0_0_FILL">
<path fill="#FFFF00" stroke="none" d="
M 62 14
L 62 -15 -18 -15 -18 14 62 14 Z"/>
</g>

<g id="Layer4_0_FILL">
<path fill="#FFFFFF" stroke="none" d="
M 35.6 -9.2
Q 33.7841796875 -7.384765625 32.8 -5.05 31.806640625 -2.6548828125 31.8 0 31.7939453125 2.5904296875 32.75 5
L 32.8 5.05
Q 33.7841796875 7.384765625 35.6 9.2 37.3623046875 11.0169921875 39.75 12 42.1451171875 12.993359375 44.8 13 47.3904296875 13.005859375 49.8 12
L 49.85 12
Q 52.184765625 11.0158203125 54 9.2 55.7626953125 7.3841796875 56.8 5.05
L 56.8 5
Q 57.805859375 2.5904296875 57.8 0 57.793359375 -2.6548828125 56.8 -5.05 55.7626953125 -7.3841796875 54 -9.2 52.184765625 -11.0158203125 49.85 -12
L 49.8 -12.05
Q 47.3904296875 -13.0060546875 44.8 -13 42.1451171875 -12.993359375 39.75 -12 37.3623046875 -11.0169921875 35.6 -9.2
M 36.3 -8.5
Q 37.9376953125 -10.1830078125 40.15 -11.1 42.3546875 -12.006640625 44.8 -12 47.209375 -11.994140625 49.45 -11.1
L 49.45 -11.1
Q 51.615234375 -10.1841796875 53.3 -8.5 54.937109375 -6.8158203125 55.9 -4.65 56.806640625 -2.4453125 56.8 0 56.7939453125 2.409375 55.85 4.65
L 55.9 4.65
Q 54.937109375 6.8158203125 53.3 8.5 51.615234375 10.1841796875 49.45 11.1
L 49.45 11.05
Q 47.209375 11.9939453125 44.8 12 42.3546875 12.006640625 40.15 11.1 37.9376953125 10.1830078125 36.3 8.5 34.6158203125 6.815234375 33.7 4.65
L 33.7 4.65
Q 32.805859375 2.409375 32.8 0 32.793359375 -2.4453125 33.7 -4.65 34.6158203125 -6.815234375 36.3 -8.5 Z"/>
</g>

<g id="Layer3_0_FILL">
<path fill="#FFFFFF" stroke="none" d="
M 37.75 -7.1
Q 36.3453125 -5.66875 35.55 -3.9 34.7962890625 -2.0220703125 34.8 0 34.7962890625 2.0482421875 35.55 3.9 36.3453125 5.6810546875 37.75 7.05 39.1134765625 8.4623046875 40.9 9.2 42.7654296875 10.0107421875 44.8 10 46.834375 10.0107421875 48.7 9.2 50.498828125 8.4623046875 51.85 7.05 53.265234375 5.6810546875 54 3.9 54.8017578125 2.0482421875 54.8 0 54.8017578125 -2.0220703125 54 -3.9 53.265234375 -5.66875 51.85 -7.1 50.498828125 -8.449609375 48.7 -9.2 46.834375 -9.9982421875 44.8 -10 42.7654296875 -9.9982421875 40.9 -9.2 39.1134765625 -8.449609375 37.75 -7.1 Z"/>
</g>

<g id="Layer2_0_FILL">
<path fill="#E7F2F6" stroke="none" d="
M 37.4 -7.4
Q 35.9326171875 -5.9869140625 35.15 -4.1 34.3048828125 -2.155078125 34.3 0 34.3048828125 2.155078125 35.15 4.1 35.9326171875 5.9869140625 37.4 7.4 38.8130859375 8.8673828125 40.7 9.65 42.644921875 10.4951171875 44.8 10.5 46.9025390625 10.4951171875 48.9 9.65 50.7869140625 8.8673828125 52.2 7.4 53.6673828125 5.9869140625 54.45 4.1 55.2951171875 2.155078125 55.3 0 55.2951171875 -2.155078125 54.45 -4.1 53.6673828125 -5.9869140625 52.2 -7.4 50.7869140625 -8.8673828125 48.9 -9.65 46.9025390625 -10.4953125 44.8 -10.5 42.644921875 -10.4951171875 40.7 -9.65 38.8130859375 -8.8673828125 37.4 -7.4
M 36.05 -3.7
Q 36.7673828125 -5.4130859375 38.1 -6.7 39.3869140625 -8.0326171875 41.1 -8.75 42.855078125 -9.5046875 44.8 -9.5 46.697265625 -9.5048828125 48.5 -8.75 50.2130859375 -8.0326171875 51.5 -6.7 52.8326171875 -5.4130859375 53.55 -3.7 54.3046875 -1.944921875 54.3 0 54.3046875 1.944921875 53.55 3.7 52.8326171875 5.4130859375 51.5 6.7 50.2130859375 8.0326171875 48.5 8.75 46.697265625 9.5046875 44.8 9.5 42.855078125 9.5046875 41.1 8.75 39.3869140625 8.0326171875 38.1 6.7 36.7673828125 5.4130859375 36.05 3.7 35.2953125 1.944921875 35.3 0 35.2953125 -1.944921875 36.05 -3.7 Z"/>

<path fill="#66FFFF" stroke="none" d="
M 38.1 -6.7
Q 36.7673828125 -5.4130859375 36.05 -3.7 35.2953125 -1.944921875 35.3 0 35.2953125 1.944921875 36.05 3.7 36.7673828125 5.4130859375 38.1 6.7 39.3869140625 8.0326171875 41.1 8.75 42.855078125 9.5046875 44.8 9.5 46.697265625 9.5046875 48.5 8.75 50.2130859375 8.0326171875 51.5 6.7 52.8326171875 5.4130859375 53.55 3.7 54.3046875 1.944921875 54.3 0 54.3046875 -1.944921875 53.55 -3.7 52.8326171875 -5.4130859375 51.5 -6.7 50.2130859375 -8.0326171875 48.5 -8.75 46.697265625 -9.5048828125 44.8 -9.5 42.855078125 -9.5046875 41.1 -8.75 39.3869140625 -8.0326171875 38.1 -6.7 Z"/>
</g>

<g id="Layer1_0_FILL">
<path fill="#000000" stroke="none" d="
M 15.6 11.3
L 13.6 11.3 13.6 19.3 15.6 19.3 15.6 11.3
M 19.6 11.3
L 17.6 11.3 17.6 19.3 19.6 19.3 19.6 11.3 Z"/>
</g>
</defs>

<g transform="matrix( 0.414215087890625, 0, 0, 1.0508270263671875, 16.55,15.25) ">
<g transform="matrix( 1, 0, 0, 1, -22,0.5) ">
<use filter="url(#Filter_1)" xlink:href="#selectionRect_0_Layer0_0_FILL"/>
</g>
</g>

<g transform="matrix( 1, 0, 0, 1, -28.2,15.3) ">
<use xlink:href="#Layer4_0_FILL"/>
</g>

<g transform="matrix( 1, 0, 0, 1, -28.2,15.3) ">
<use xlink:href="#Layer3_0_FILL"/>
</g>

<g transform="matrix( 1, 0, 0, 1, -28.2,15.3) ">
<use xlink:href="#Layer2_0_FILL"/>
</g>

<g transform="matrix( 1, 0, 0, 1, 0,0) ">
<use xlink:href="#Layer1_0_FILL"/>
</g>
</svg>
