
<svg xmlns="http://www.w3.org/2000/svg" version="1.1" xmlns:xlink="http://www.w3.org/1999/xlink" preserveAspectRatio="none" x="0px" y="0px" width="31px" height="33px" viewBox="0 0 31 33">
<defs>
<filter id="Filter_1" x="-20%" y="-20%" width="140%" height="140%" color-interpolation-filters="sRGB">
<feColorMatrix in="SourceGraphic" type="matrix" values="1 0 0 0 0 0 1 0 0 0 0 0 1 0 0 0 0 0 0 0" result="result1"/>
</filter>

<g id="selectionRect_0_Layer0_0_FILL">
<path fill="#FFFF00" stroke="none" d="
M 62 14
L 62 -15 -18 -15 -18 14 62 14 Z"/>
</g>

<g id="Layer3_0_FILL">
<path fill="#7B8490" stroke="none" d="
M 24.05 17.05
Q 24.05 15 23.25 13.15 22.5 11.35 21.15 9.95 19.75 8.55 17.95 7.8 16.1 7 14.05 7 12 7 10.15 7.8 8.35 8.55 7 9.95 5.6 11.35 4.85 13.15 4.05 15 4.05 17.05 4.05 19.05 4.85 20.9 5.6 22.7 7 24.1 8.35 25.45 10.15 26.25 12 27 14.05 27 16.1 27 17.95 26.25 19.75 25.45 21.15 24.1 22.5 22.7 23.25 20.9 24.05 19.05 24.05 17.05 Z"/>
</g>

<g id="Layer1_0_FILL">
<path fill="#3D414B" stroke="none" d="
M 11.05 12
L 11.05 22 19.05 17 11.05 12 Z"/>
</g>
</defs>

<g transform="matrix( 0.3909454345703125, 0, 0, 1.1379241943359375, 15.65,16.5) ">
<g transform="matrix( 1, 0, 0, 1, -22,0.5) ">
<use filter="url(#Filter_1)" xlink:href="#selectionRect_0_Layer0_0_FILL"/>
</g>
</g>

<g transform="matrix( 1, 0, 0, 1, 0,0) ">
<use xlink:href="#Layer3_0_FILL"/>
</g>

<g transform="matrix( 1, 0, 0, 1, 0,0) ">
<use xlink:href="#Layer1_0_FILL"/>
</g>
</svg>
