
<svg xmlns="http://www.w3.org/2000/svg" version="1.1" xmlns:xlink="http://www.w3.org/1999/xlink" preserveAspectRatio="none" x="0px" y="0px" width="24px" height="24px" viewBox="0 0 24 24">
<defs>
<radialGradient id="Gradient_1" gradientUnits="userSpaceOnUse" cx="0" cy="0" r="14.351012594935593" fx="0" fy="0" gradientTransform="matrix( 0.2586925469851601, -0.9659597124799412, 1.339626724791839, 0.3588596948076968, 12.3,5.7) " spreadMethod="pad">
<stop  offset="0%" stop-color="#FFFF99"/>

<stop  offset="46.666666666666664%" stop-color="#FFCC00"/>

<stop  offset="100%" stop-color="#FF9900"/>
</radialGradient>

<linearGradient id="Gradient_2" gradientUnits="userSpaceOnUse" x1="9.2" y1="0.9999999999999982" x2="9.2" y2="17.4" spreadMethod="pad">
<stop  offset="0%" stop-color="#FFFFFF" stop-opacity="0.24705882352941178"/>

<stop  offset="56.86274509803921%" stop-color="#FFFFFF" stop-opacity="0"/>
</linearGradient>

<linearGradient id="Gradient_3" gradientUnits="userSpaceOnUse" x1="9.2" y1="0.9999999999999982" x2="9.2" y2="17.4" spreadMethod="pad">
<stop  offset="0%" stop-color="#FFFFFF" stop-opacity="0.4980392156862745"/>

<stop  offset="56.86274509803921%" stop-color="#FFFFFF" stop-opacity="0"/>
</linearGradient>

<linearGradient id="Gradient_4" gradientUnits="userSpaceOnUse" x1="9.2" y1="0.9999999999999982" x2="9.2" y2="17.4" spreadMethod="pad">
<stop  offset="0%" stop-color="#FFFFFF" stop-opacity="0.7490196078431373"/>

<stop  offset="56.86274509803921%" stop-color="#FFFFFF" stop-opacity="0"/>
</linearGradient>

<linearGradient id="Gradient_5" gradientUnits="userSpaceOnUse" x1="9.2" y1="0.9999999999999982" x2="9.2" y2="17.4" spreadMethod="pad">
<stop  offset="0%" stop-color="#FFFFFF"/>

<stop  offset="56.86274509803921%" stop-color="#FFFFFF" stop-opacity="0"/>
</linearGradient>

<filter id="Filter_1" x="-24.712536854274717%" y="-24.712536854274717%" width="149.42507370854943%" height="149.42507370854943%" color-interpolation-filters="sRGB">
<feFlood flood-color="#000000" flood-opacity="1" in="SourceGraphic" result="result1"/>

<feComposite in2="SourceGraphic" in="result1" operator="in" result="result2"/>

<feGaussianBlur in="result2" stdDeviation="0.6666666666666666,0.6666666666666666" result="result3"/>

<feOffset dx="0.7071067811865476" dy="0.7071067811865476" in="result3" result="result4"/>

<feComposite in2="result4" in="SourceGraphic" operator="over" result="result5"/>
</filter>

<g id="Symbol_1_0_Layer0_0_FILL">
<path fill="url(#Gradient_1)" stroke="none" d="
M 0 5
L 0 13.4
Q 0 18.4 5 18.4
L 13.4 18.4
Q 18.4 18.4 18.4 13.4
L 18.4 5
Q 18.4 0 13.4 0
L 5 0
Q 0 0 0 5 Z"/>
</g>

<g id="graphics_highlight4_0_Layer0_0_FILL">
<path fill="url(#Gradient_2)" stroke="none" d="
M 17.9 6
Q 17.9 0.5 12.4 0.5
L 6 0.5
Q 0.5 0.5 0.5 6
L 0.5 12.4
Q 0.5 17.9 6 17.9
L 12.4 17.9
Q 17.9 17.9 17.9 12.4
L 17.9 6
M 12.4 0.6
Q 17.775 0.625 17.75 6
L 17.75 12.4
Q 17.775 17.775 12.4 17.75
L 6 17.75
Q 0.625 17.775 0.6 12.4
L 0.6 6
Q 0.625 0.625 6 0.6
L 12.4 0.6 Z"/>

<path fill="url(#Gradient_3)" stroke="none" d="
M 17.75 6
Q 17.775 0.625 12.4 0.6
L 6 0.6
Q 0.625 0.625 0.6 6
L 0.6 12.4
Q 0.625 17.775 6 17.75
L 12.4 17.75
Q 17.775 17.775 17.75 12.4
L 17.75 6
M 12.4 0.75
Q 17.65 0.75 17.65 6
L 17.65 12.4
Q 17.65 17.65 12.4 17.65
L 6 17.65
Q 0.75 17.65 0.75 12.4
L 0.75 6
Q 0.75 0.75 6 0.75
L 12.4 0.75 Z"/>

<path fill="url(#Gradient_4)" stroke="none" d="
M 17.65 6
Q 17.65 0.75 12.4 0.75
L 6 0.75
Q 0.75 0.75 0.75 6
L 0.75 12.4
Q 0.75 17.65 6 17.65
L 12.4 17.65
Q 17.65 17.65 17.65 12.4
L 17.65 6
M 12.4 0.85
Q 17.525 0.875 17.5 6
L 17.5 12.4
Q 17.525 17.525 12.4 17.5
L 6 17.5
Q 0.875 17.525 0.85 12.4
L 0.85 6
Q 0.875 0.875 6 0.85
L 12.4 0.85 Z"/>

<path fill="url(#Gradient_5)" stroke="none" d="
M 17.5 6
Q 17.525 0.875 12.4 0.85
L 6 0.85
Q 0.875 0.875 0.85 6
L 0.85 12.4
Q 0.875 17.525 6 17.5
L 12.4 17.5
Q 17.525 17.525 17.5 12.4
L 17.5 6 Z"/>
</g>

<g id="Layer0_0_FILL">
<path fill="#000000" stroke="none" d="
M 15.15 5.35
L 12.05 9.9 9.2 6.15
Q 8.9 5.75 8.45 5.7 8 5.65 7.65 6 7.25 6.35 7.2 6.85 7.2 7.35 7.55 7.75
L 10.75 11.95 7.15 17.45
Q 6.9 17.85 6.95 18.4 7 18.9 7.4 19.2 7.75 19.5 8.2 19.4 8.65 19.3 8.95 18.9
L 12.25 13.85 15.55 18
Q 15.8 18.4 16.25 18.4 16.7 18.45 17.1 18.15 17.4 17.8 17.45 17.3 17.5 16.75 17.2 16.4
L 13.55 11.8 16.9 6.85
Q 17.15 6.4 17.15 5.9 17.05 5.4 16.7 5.1 16.35 4.75 15.9 4.85 15.45 4.9 15.15 5.35 Z"/>
</g>
</defs>

<g filter="url(#Filter_1)" transform="matrix( 1, 0, 0, 1, 0,0) ">
<g transform="matrix( 1, 0, 0, 1, 2.75,3.4) ">
<g transform="matrix( 1, 0, 0, 1, 0,0) ">
<use xlink:href="#Symbol_1_0_Layer0_0_FILL"/>
</g>

<g transform="matrix( 1, 0, 0, 1, 0.5,0.5) ">
<g transform="matrix( 1, 0, 0, 1, -0.5,-0.5) ">
<use xlink:href="#graphics_highlight4_0_Layer0_0_FILL"/>
</g>
</g>
</g>
</g>

<g transform="matrix( 1, 0, 0, 1, 0,0) ">
<use xlink:href="#Layer0_0_FILL"/>
</g>
</svg>
