
<svg xmlns="http://www.w3.org/2000/svg" version="1.1" xmlns:xlink="http://www.w3.org/1999/xlink" preserveAspectRatio="none" x="0px" y="0px" width="92px" height="91px" viewBox="0 0 92 91">
<defs>
<radialGradient id="Gradient_1" gradientUnits="userSpaceOnUse" cx="0" cy="0" r="25.925000000000004" fx="0" fy="0" gradientTransform="matrix( 0.9999999999999999, 0, 0, 0.9999999999999999, 44.6,46.1) " spreadMethod="pad">
<stop  offset="0%" stop-color="#6B91FE"/>

<stop  offset="100%" stop-color="#0033CC"/>
</radialGradient>

<radialGradient id="Gradient_2" gradientUnits="userSpaceOnUse" cx="0" cy="0" r="47.4375" fx="0" fy="0" gradientTransform="matrix( 1.0000000000000002, 0, 0, 1.0000000000000002, 45.25,45.85) " spreadMethod="pad">
<stop  offset="0%" stop-color="#0033CC" stop-opacity="0.8"/>

<stop  offset="100%" stop-color="#0033CC" stop-opacity="0"/>
</radialGradient>

<filter id="Filter_1" x="-20%" y="-20%" width="140%" height="140%" color-interpolation-filters="sRGB">
<feColorMatrix in="SourceGraphic" type="matrix" values="1 0 0 0 0 0 1 0 0 0 0 0 1 0 0 0 0 0 0 0" result="result1"/>
</filter>

<g id="tag_gfx1_0_Layer0_0_FILL">
<path fill="#E7F2F6" stroke="none" d="
M 24.4 4.6
Q 23.048828125 3.250390625 21.25 2.5 19.384375 1.7017578125 17.35 1.7 16.0927734375 1.701171875 14.9 2 14.1626953125 2.194921875 13.45 2.5 11.6634765625 3.250390625 10.3 4.6 8.8953125 6.03125 8.1 7.8 7.3462890625 9.6779296875 7.35 11.7 7.3462890625 13.7482421875 8.1 15.6 8.8953125 17.3810546875 10.3 18.75 11.6634765625 20.1623046875 13.45 20.9 15.3154296875 21.7107421875 17.35 21.7 19.384375 21.7107421875 21.25 20.9 23.048828125 20.1623046875 24.4 18.75 25.815234375 17.3810546875 26.55 15.6 26.582421875 15.525390625 26.6 15.45 27.3517578125 13.6666015625 27.35 11.7 27.3517578125 9.6779296875 26.55 7.8 25.815234375 6.03125 24.4 4.6 Z"/>
</g>

<g id="tag_gfx1_0_Layer0_1_FILL">
<path fill="#CCFFFF" fill-opacity="0.24705882352941178" stroke="none" d="
M 5.4 -0.3
L 5.35 -0.25
Q 3.082421875 2.069140625 1.8 5.05
L 1.8 5.05
Q 0.520703125 8.153125 0.5 11.55
L 0.5 11.6
Q 0.496484375 14.980078125 1.8 18.1 3.0833984375 21.092578125 5.35 23.4
L 5.4 23.45
Q 7.757421875 25.7666015625 10.75 27
L 10.75 27.05
Q 13.8296875 28.33046875 17.2 28.35
L 17.25 28.35
Q 20.65703125 28.3515625 23.75 27
L 23.8 27
Q 26.780859375 25.767578125 29.1 23.45
L 29.1 23.4
Q 31.41640625 21.0923828125 32.65 18.1 33.985546875 15.0083984375 34 11.6 33.9837890625 8.1646484375 32.65 5.05
L 32.65 5.05
Q 31.4173828125 2.0689453125 29.1 -0.25
L 29.1 -0.3
Q 26.780859375 -2.567578125 23.8 -3.85
L 23.75 -3.85
Q 20.68515625 -5.133984375 17.25 -5.15 13.8705078125 -5.148046875 10.75 -3.85
L 10.75 -3.85
Q 7.757421875 -2.5666015625 5.4 -0.3
M 11.1 -2.95
L 11.15 -2.95
Q 14.078125 -4.147265625 17.25 -4.15 20.4875 -4.1458984375 23.4 -2.95
L 23.4 -2.9
Q 26.211328125 -1.7123046875 28.4 0.45 30.5619140625 2.638671875 31.75 5.45
L 31.75 5.45
Q 32.9958984375 8.3623046875 33 11.6 32.9970703125 14.8115234375 31.75 17.7 30.5734375 20.5357421875 28.4 22.7
L 28.4 22.75
Q 26.211328125 24.912109375 23.4 26.1
L 23.4 26.1
Q 20.4607421875 27.3619140625 17.25 27.35
L 17.2 27.35
Q 14.0388671875 27.33125 11.15 26.1
L 11.1 26.1
Q 8.3142578125 24.923828125 6.1 22.75
L 6.1 22.7
Q 3.9259765625 20.535546875 2.7 17.7 1.4865234375 14.784765625 1.5 11.6
L 1.5 11.55
Q 1.51953125 8.362890625 2.7 5.45
L 2.75 5.45
Q 3.9376953125 2.6384765625 6.1 0.45
L 6.1 0.45
Q 8.3142578125 -1.7240234375 11.1 -2.95 Z"/>

<path fill="#CCFFFF" fill-opacity="0.4980392156862745" stroke="none" d="
M 11.15 -2.95
L 11.1 -2.95
Q 8.3142578125 -1.7240234375 6.1 0.45
L 6.1 0.45
Q 3.9376953125 2.6384765625 2.75 5.45
L 2.7 5.45
Q 1.51953125 8.362890625 1.5 11.55
L 1.5 11.6
Q 1.4865234375 14.784765625 2.7 17.7 3.9259765625 20.535546875 6.1 22.7
L 6.1 22.75
Q 8.3142578125 24.923828125 11.1 26.1
L 11.15 26.1
Q 14.0388671875 27.33125 17.2 27.35
L 17.25 27.35
Q 20.4607421875 27.3619140625 23.4 26.1
L 23.4 26.1
Q 26.211328125 24.912109375 28.4 22.75
L 28.4 22.7
Q 30.5734375 20.5357421875 31.75 17.7 32.9970703125 14.8115234375 33 11.6 32.9958984375 8.3623046875 31.75 5.45
L 31.75 5.45
Q 30.5619140625 2.638671875 28.4 0.45 26.211328125 -1.7123046875 23.4 -2.9
L 23.4 -2.95
Q 20.4875 -4.1458984375 17.25 -4.15 14.078125 -4.147265625 11.15 -2.95
M 11.5 -2
Q 14.2732421875 -3.1462890625 17.25 -3.15 20.27734375 -3.1455078125 23 -2 25.629296875 -0.8818359375 27.65 1.15
L 27.7 1.15
Q 29.7314453125 3.2205078125 30.85 5.85 31.9955078125 8.57265625 32 11.6 31.99609375 14.6021484375 30.85 17.3 29.730859375 19.96640625 27.7 22
L 27.65 22.05
Q 25.629296875 24.081640625 23 25.2 20.2521484375 26.359765625 17.25 26.35
L 17.2 26.35
Q 14.235546875 26.33203125 11.5 25.2 8.88359375 24.0810546875 6.8 22.05
L 6.8 22
Q 4.76875 19.96640625 3.65 17.3 2.4892578125 14.576953125 2.5 11.6 2.518359375 8.5728515625 3.65 5.85 4.7681640625 3.2205078125 6.8 1.15
L 6.8 1.15
Q 8.88359375 -0.88125 11.5 -2 Z"/>

<path fill="#CCFFFF" fill-opacity="0.7490196078431373" stroke="none" d="
M 17.25 -3.15
Q 14.2732421875 -3.1462890625 11.5 -2 8.88359375 -0.88125 6.8 1.15
L 6.8 1.15
Q 4.7681640625 3.2205078125 3.65 5.85 2.518359375 8.5728515625 2.5 11.6 2.4892578125 14.576953125 3.65 17.3 4.76875 19.96640625 6.8 22
L 6.8 22.05
Q 8.88359375 24.0810546875 11.5 25.2 14.235546875 26.33203125 17.2 26.35
L 17.25 26.35
Q 20.2521484375 26.359765625 23 25.2 25.629296875 24.081640625 27.65 22.05
L 27.7 22
Q 29.730859375 19.96640625 30.85 17.3 31.99609375 14.6021484375 32 11.6 31.9955078125 8.57265625 30.85 5.85 29.7314453125 3.2205078125 27.7 1.15
L 27.65 1.15
Q 25.629296875 -0.8818359375 23 -2 20.27734375 -3.1455078125 17.25 -3.15
M 11.9 -1.1
Q 14.4810546875 -2.1455078125 17.25 -2.15 20.0796875 -2.1451171875 22.6 -1.1 25.072265625 -0.026171875 26.95 1.85 28.8759765625 3.7775390625 29.9 6.2 30.994921875 8.7701171875 31 11.6 30.9953125 14.4052734375 29.9 16.95 28.8880859375 19.409375 27 21.3
L 26.95 21.3
Q 25.072265625 23.226171875 22.6 24.25 20.0560546875 25.3576171875 17.25 25.35 14.457421875 25.3328125 11.9 24.25
L 11.9 24.25
Q 9.4404296875 23.2259765625 7.5 21.3 5.6240234375 19.4095703125 4.55 16.95 3.4916015625 14.3814453125 3.5 11.6 3.5173828125 8.7830078125 4.55 6.25
L 4.55 6.2
Q 5.623828125 3.777734375 7.5 1.85 9.4404296875 -0.0259765625 11.9 -1.1
L 11.9 -1.1 Z"/>

<path fill="#CCFFFF" stroke="none" d="
M 17.25 -2.15
Q 14.4810546875 -2.1455078125 11.9 -1.1
L 11.9 -1.1
Q 9.4404296875 -0.0259765625 7.5 1.85 5.623828125 3.777734375 4.55 6.2
L 4.55 6.25
Q 3.5173828125 8.7830078125 3.5 11.6 3.4916015625 14.3814453125 4.55 16.95 5.6240234375 19.4095703125 7.5 21.3 9.4404296875 23.2259765625 11.9 24.25
L 11.9 24.25
Q 14.457421875 25.3328125 17.25 25.35 20.0560546875 25.3576171875 22.6 24.25 25.072265625 23.226171875 26.95 21.3
L 27 21.3
Q 28.8880859375 19.409375 29.9 16.95 30.9953125 14.4052734375 31 11.6 30.994921875 8.7701171875 29.9 6.2 28.8759765625 3.7775390625 26.95 1.85 25.072265625 -0.026171875 22.6 -1.1 20.0796875 -2.1451171875 17.25 -2.15 Z"/>
</g>

<g id="tag_gfx1_0_Layer0_2_FILL">
<path fill="#2F3D73" stroke="none" d="
M 28.65 11.6
Q 28.6771484375 9.276171875 27.8 7.15 26.9265625 5.094140625 25.35 3.5 23.7681640625 1.9232421875 21.7 1.05 19.586328125 0.1728515625 17.25 0.15 14.9369140625 0.1728515625 12.8 1.05 10.756640625 1.9232421875 9.15 3.5 7.5982421875 5.094140625 6.7 7.15 5.8462890625 9.276171875 5.8 11.6 5.8244140625 13.912890625 6.7 16.05 7.5982421875 18.0931640625 9.15 19.65 10.756640625 21.2517578125 12.8 22.1 14.9369140625 23.0037109375 17.25 23 19.586328125 23.0255859375 21.7 22.1 23.7681640625 21.2517578125 25.35 19.65 26.9265625 18.0931640625 27.8 16.05 28.6771484375 13.912890625 28.65 11.6 Z"/>
</g>

<g id="tag_gfx1_0_Layer0_3_FILL">
<path fill="#FFFFFF" fill-opacity="0.30196078431372547" stroke="none" d="
M 10 18.85
Q 13 21.85 17.25 21.85 21.5 21.85 24.5 18.85 27.5 15.85 27.5 11.6 27.5 7.35 24.5 4.35 21.5 1.35 17.25 1.35 13 1.35 10 4.35 7 7.35 7 11.6 7 15.85 10 18.85 Z"/>
</g>

<g id="Layer1_0_FILL">
<path fill="url(#Gradient_1)" stroke="none" d="
M 62.45 27.9
Q 54.9841796875 20.4171875 44.4 20.4 33.8158203125 20.4171875 26.3 27.9 18.8296875 35.3908203125 18.8 45.95 18.8296875 56.558984375 26.3 64.05 33.8158203125 71.5451171875 44.4 71.55 54.9841796875 71.5451171875 62.45 64.05 69.9576171875 56.558984375 69.95 45.95 69.9576171875 35.3908203125 62.45 27.9 Z"/>
</g>

<g id="Layer0_0_FILL">
<path fill="url(#Gradient_2)" stroke="none" d="
M 13.25 13.2
Q -0.0017578125 26.4734375 0 45.2 -0.0017578125 63.9265625 13.25 77.15 26.4984375 90.4388671875 45.2 90.45 63.9638671875 90.4388671875 77.2 77.15 90.476171875 63.9265625 90.45 45.2 90.476171875 26.4734375 77.2 13.2 63.9638671875 -0.0265625 45.2 -0.05 26.4984375 -0.0265625 13.25 13.2 Z"/>
</g>
</defs>

<g id="halo" transform="matrix( 0.6907501220703125, 0, 0, 0.7020416259765625, 45.25,45.65) ">
<g transform="matrix( 3.7164154052734375, 0, 0, 3.6567230224609375, -62.25,-61.25) ">
<g transform="matrix( 1, 0, 0, 1, -0.5,5.15) ">
<use filter="url(#Filter_1)" xlink:href="#tag_gfx1_0_Layer0_0_FILL"/>
</g>

<g transform="matrix( 1, 0, 0, 1, -0.5,5.15) ">
<use filter="url(#Filter_1)" xlink:href="#tag_gfx1_0_Layer0_1_FILL"/>
</g>

<g transform="matrix( 1, 0, 0, 1, -0.5,5.15) ">
<use filter="url(#Filter_1)" xlink:href="#tag_gfx1_0_Layer0_2_FILL"/>
</g>

<g transform="matrix( 1.109710693359375, 0, 0, 1.109710693359375, -2.35,3.85) ">
<use filter="url(#Filter_1)" xlink:href="#tag_gfx1_0_Layer0_3_FILL"/>
</g>
</g>
</g>

<g transform="matrix( 1, 0, 0, 1, 0.75,0.25) ">
<use xlink:href="#Layer1_0_FILL"/>
</g>

<g transform="matrix( 1, 0, 0, 1, 0.75,0.25) ">
<use xlink:href="#Layer0_0_FILL"/>
</g>
</svg>
