
<svg xmlns="http://www.w3.org/2000/svg" version="1.1" xmlns:xlink="http://www.w3.org/1999/xlink" preserveAspectRatio="none" x="0px" y="0px" width="90px" height="90px" viewBox="0 0 90 90">
<defs>
<radialGradient id="Gradient_1" gradientUnits="userSpaceOnUse" cx="0" cy="0" r="25.924999999999997" fx="0" fy="0" gradientTransform="matrix( 1.0000000000000002, 0, 0, 1.0000000000000002, 45.25,45.35) " spreadMethod="pad">
<stop  offset="0%" stop-color="#6B91FE"/>

<stop  offset="100%" stop-color="#0033CC"/>
</radialGradient>

<linearGradient id="Gradient_2" gradientUnits="userSpaceOnUse" x1="11.600000000000001" y1="-0.4" x2="-43.7" y2="-0.4" spreadMethod="pad">
<stop  offset="0%" stop-color="#000000" stop-opacity="0.4"/>

<stop  offset="100%" stop-color="#000000" stop-opacity="0.8"/>
</linearGradient>

<radialGradient id="Gradient_3" gradientUnits="userSpaceOnUse" cx="0" cy="0" r="25.925000000000004" fx="0" fy="0" gradientTransform="matrix( 0.9999999999999999, 0, 0, 0.9999999999999999, 44.4,46) " spreadMethod="pad">
<stop  offset="0%" stop-color="#6B91FE"/>

<stop  offset="100%" stop-color="#0033CC"/>
</radialGradient>

<g id="Layer3_0_MEMBER_0_FILL">
<path fill="#CCFFFF" fill-opacity="0.24705882352941178" stroke="none" d="
M 32.2 10.25
L 32.2 10.2
Q 30.9 7.2 28.65 4.9
L 28.6 4.9
Q 26.3 2.6 23.3 1.35 20.2 0 16.75 0 13.35 0 10.25 1.3
L 10.25 1.35
Q 7.25 2.6 4.95 4.9
L 4.9 4.9
Q 2.6 7.2 1.35 10.2
L 1.3 10.25
Q 0 13.3 0 16.75 0 20.15 1.35 23.25 2.6 26.25 4.9 28.6
L 4.95 28.65
Q 7.25 30.9 10.25 32.2 13.35 33.5 16.75 33.5 20.15 33.5 23.3 32.2 26.3 30.9 28.6 28.65
L 28.65 28.6
Q 30.9 26.25 32.2 23.25 33.5 20.15 33.5 16.75 33.5 13.3 32.2 10.25
M 31.25 10.6
L 31.3 10.6
Q 32.5 13.5 32.5 16.75 32.5 19.95 31.3 22.9 30.05 25.7 27.9 27.9 25.7 30.05 22.9 31.25
L 22.9 31.3
Q 19.95 32.5 16.75 32.5 13.55 32.5 10.65 31.3 7.8 30.05 5.65 27.9
L 5.6 27.9
Q 3.45 25.7 2.25 22.9 1 19.95 1 16.75 1 13.5 2.25 10.65
L 2.25 10.6
Q 3.45 7.8 5.6 5.6
L 5.65 5.6
Q 7.8 3.45 10.65 2.25 13.6 1 16.75 1 20 1 22.9 2.25 25.7 3.45 27.9 5.6 30.05 7.8 31.25 10.6 Z"/>

<path fill="#CCFFFF" fill-opacity="0.4980392156862745" stroke="none" d="
M 31.3 10.6
L 31.25 10.6
Q 30.05 7.8 27.9 5.6 25.7 3.45 22.9 2.25 20 1 16.75 1 13.6 1 10.65 2.25 7.8 3.45 5.65 5.6
L 5.6 5.6
Q 3.45 7.8 2.25 10.6
L 2.25 10.65
Q 1 13.5 1 16.75 1 19.95 2.25 22.9 3.45 25.7 5.6 27.9
L 5.65 27.9
Q 7.8 30.05 10.65 31.3 13.55 32.5 16.75 32.5 19.95 32.5 22.9 31.3
L 22.9 31.25
Q 25.7 30.05 27.9 27.9 30.05 25.7 31.3 22.9 32.5 19.95 32.5 16.75 32.5 13.5 31.3 10.6
M 27.2 6.3
L 27.2 6.35
Q 29.25 8.35 30.35 11 31.5 13.7 31.5 16.75 31.5 19.75 30.35 22.5 29.25 25.1 27.2 27.2 25.15 29.25 22.5 30.35 19.75 31.5 16.75 31.5 13.75 31.5 11.05 30.35 8.4 29.25 6.35 27.2
L 6.3 27.2
Q 4.25 25.1 3.15 22.5 2 19.75 2 16.75 2 13.7 3.15 11 4.25 8.35 6.3 6.35
L 6.35 6.3
Q 8.4 4.25 11.05 3.15 13.75 2 16.75 2 19.8 2 22.5 3.15 25.15 4.25 27.2 6.3 Z"/>

<path fill="#CCFFFF" fill-opacity="0.7490196078431373" stroke="none" d="
M 27.2 6.35
L 27.2 6.3
Q 25.15 4.25 22.5 3.15 19.8 2 16.75 2 13.75 2 11.05 3.15 8.4 4.25 6.35 6.3
L 6.3 6.35
Q 4.25 8.35 3.15 11 2 13.7 2 16.75 2 19.75 3.15 22.5 4.25 25.1 6.3 27.2
L 6.35 27.2
Q 8.4 29.25 11.05 30.35 13.75 31.5 16.75 31.5 19.75 31.5 22.5 30.35 25.15 29.25 27.2 27.2 29.25 25.1 30.35 22.5 31.5 19.75 31.5 16.75 31.5 13.7 30.35 11 29.25 8.35 27.2 6.35
M 26.5 7.05
Q 28.4 8.95 29.45 11.4 30.5 13.9 30.5 16.75 30.5 19.55 29.45 22.1 28.4 24.55 26.5 26.5 24.55 28.4 22.15 29.45 19.55 30.5 16.75 30.5 13.95 30.5 11.45 29.45
L 11.4 29.45
Q 8.95 28.4 7.05 26.5 5.1 24.55 4.1 22.1 3 19.55 3 16.75 3 13.95 4.1 11.4 5.1 8.95 7.05 7.05 8.95 5.1 11.4 4.1
L 11.45 4.1
Q 14 3 16.75 3 19.6 3 22.15 4.1 24.55 5.1 26.5 7.05 Z"/>

<path fill="#CCFFFF" stroke="none" d="
M 29.45 11.4
Q 28.4 8.95 26.5 7.05 24.55 5.1 22.15 4.1 19.6 3 16.75 3 14 3 11.45 4.1
L 11.4 4.1
Q 8.95 5.1 7.05 7.05 5.1 8.95 4.1 11.4 3 13.95 3 16.75 3 19.55 4.1 22.1 5.1 24.55 7.05 26.5 8.95 28.4 11.4 29.45
L 11.45 29.45
Q 13.95 30.5 16.75 30.5 19.55 30.5 22.15 29.45 24.55 28.4 26.5 26.5 28.4 24.55 29.45 22.1 30.5 19.55 30.5 16.75 30.5 13.9 29.45 11.4 Z"/>
</g>

<g id="Layer2_0_FILL">
<path fill="url(#Gradient_1)" stroke="none" d="
M 63.35 27.25
Q 55.85 19.75 45.25 19.8 34.65 19.75 27.2 27.25 19.7 34.75 19.7 45.35 19.7 55.9 27.2 63.4 34.65 70.9 45.25 70.9 55.85 70.9 63.35 63.4 70.8 55.9 70.8 45.35 70.8 34.75 63.35 27.25 Z"/>
</g>

<g id="shadowb_bob_0_Layer0_0_FILL">
<path fill="url(#Gradient_2)" stroke="none" d="
M 0 79.05
L 0 -79.05
Q -31.9470703125 -78.5849609375 -54.65 -55.9 -77.7576171875 -32.762109375 -77.75 0 -77.7576171875 32.812109375 -54.65 55.95 -40.86796875 69.70390625 -23.7 75.25 -12.5669921875 78.8970703125 0 79.05 Z"/>
</g>

<g id="Layer0_1_FILL">
<path fill="url(#Gradient_3)" stroke="none" d="
M 62.45 27.9
Q 54.9841796875 20.4171875 44.4 20.4 33.8158203125 20.4171875 26.3 27.9 18.8296875 35.3908203125 18.8 45.95 18.8296875 56.558984375 26.3 64.05 33.8158203125 71.5451171875 44.4 71.55 54.9841796875 71.5451171875 62.45 64.05 69.9576171875 56.558984375 69.95 45.95 69.9576171875 35.3908203125 62.45 27.9 Z"/>
</g>
</defs>

<g transform="matrix( 2.3025970458984375, 0, 0.0143280029296875, 2.279388427734375, 6.05,7.5) ">
<use xlink:href="#Layer3_0_MEMBER_0_FILL"/>
</g>

<g transform="matrix( 1, 0, 0, 1, 0,0) ">
<use xlink:href="#Layer2_0_FILL"/>
</g>

<g id="shadow" transform="matrix( 0.3542938232421875, 0, 0, 0.341552734375, 46.4,45.9) ">
<g transform="matrix( 1, 0, 0, 1, 0,0) ">
<use xlink:href="#shadowb_bob_0_Layer0_0_FILL"/>
</g>
</g>

<g transform="matrix( 1, 0, 0, 1, 0,0.15) ">
<use xlink:href="#Layer0_1_FILL"/>
</g>

<g id="shadow_FL" transform="matrix( 0.3542938232421875, 0, 0, 0.341552734375, 46.4,46.05) ">
<g transform="matrix( 1, 0, 0, 1, 0,0) ">
<use xlink:href="#shadowb_bob_0_Layer0_0_FILL"/>
</g>
</g>
</svg>
