
<svg xmlns="http://www.w3.org/2000/svg" version="1.1" xmlns:xlink="http://www.w3.org/1999/xlink" preserveAspectRatio="none" x="0px" y="0px" width="285px" height="10px" viewBox="0 0 285 10">
<defs>
<filter id="Filter_1" x="-20%" y="-20%" width="140%" height="140%" color-interpolation-filters="sRGB">
<feColorMatrix in="SourceGraphic" type="matrix" values="1 0 0 0 0 0 1 0 0 0 0 0 1 0 0 0 0 0 0.71 0" result="result1"/>
</filter>

<g id="graphics_play_bar_long_0_Layer0_0_FILL">
<path fill="#004477" stroke="none" d="
M 56 -6.1
Q 54.55 -7.55 52.5 -7.55
L -329.95 -7.55
Q -332 -7.55 -333.5 -6.1 -334.95 -4.6 -334.95 -2.55
L -334.95 2.6
Q -334.95 4.65 -333.5 6.1 -332 7.6 -329.95 7.6
L 52.5 7.6
Q 54.55 7.6 56 6.1 57.5 4.65 57.5 2.6
L 57.5 -2.55
Q 57.5 -4.6 56 -6.1 Z"/>
</g>

<g id="buttons_play_bar_0_Layer0_0_MEMBER_1_FILL">
<path fill="#FFFFFF" fill-opacity="0.5019607843137255" stroke="none" d="
M 392.3 1.75
L 392.3 1.7
Q 390.504296875 -0.00546875 388.05 0
L 7.35 0
Q 4.895703125 -0.00546875 3.1 1.7
L 3.05 1.75
Q 1.4201171875 3.4671875 1.35 5.75 1.3498046875 5.8927734375 1.35 6
L 1.35 11.15
Q 1.353515625 13.610546875 3.1 15.35 4.8943359375 17.1513671875 7.35 17.15
L 388.05 17.15
Q 390.5056640625 17.1513671875 392.3 15.35 394.046484375 13.610546875 394.05 11.15
L 394.05 6
Q 394.0501953125 5.8927734375 394.05 5.75 393.9798828125 3.4671875 392.3 1.75
M 390.85 3.15
L 390.9 3.15
Q 392.0447265625 4.3716796875 392.05 6
L 392.05 11.15
Q 392.053515625 12.789453125 390.9 13.95 389.6943359375 15.1486328125 388.05 15.15
L 7.35 15.15
Q 5.7056640625 15.1486328125 4.5 13.95 3.346484375 12.789453125 3.35 11.15
L 3.35 6
Q 3.3552734375 4.3716796875 4.5 3.15
L 4.5 3.15
Q 5.7216796875 2.0052734375 7.35 2
L 77.2 2
Q 82.2 2 87.2 2
L 87.2 2.1 89.2 2.1 89.2 2 306.2 2 306.2 2.1 308.2 2.1 308.2 2 388.05 2
Q 389.6783203125 2.0052734375 390.85 3.15 Z"/>
</g>
</defs>

<g id="sliderBar2" transform="matrix( 0.7191925048828125, 0, 0, 0.502349853515625, 0.8,0.7) ">
<g transform="matrix( 1, 0, 0, 1, 334.95,8.55) ">
<g transform="matrix( 1, 0, 0, 1, 0,0) ">
<use filter="url(#Filter_1)" xlink:href="#graphics_play_bar_long_0_Layer0_0_FILL"/>
</g>
</g>

<g transform="matrix( 1, 0, 0, 1, 0,0) ">
<use xlink:href="#buttons_play_bar_0_Layer0_0_MEMBER_1_FILL"/>
</g>
</g>
</svg>
