
<svg xmlns="http://www.w3.org/2000/svg" version="1.1" xmlns:xlink="http://www.w3.org/1999/xlink" preserveAspectRatio="none" x="0px" y="0px" width="90px" height="90px" viewBox="0 0 90 90">
<defs>
<radialGradient id="Gradient_1" gradientUnits="userSpaceOnUse" cx="0" cy="0" r="33.512499999999996" fx="0" fy="0" gradientTransform="matrix( 1.0000000000000002, 0, 0, 1.0000000000000002, 57.4,59.4) " spreadMethod="pad">
<stop  offset="0%" stop-color="#FFFF00"/>

<stop  offset="100%" stop-color="#FFCC00"/>
</radialGradient>

<radialGradient id="Gradient_2" gradientUnits="userSpaceOnUse" cx="0" cy="0" r="61.325" fx="0" fy="0" gradientTransform="matrix( 1, 0, 0, 1, 58.45,59.3) " spreadMethod="pad">
<stop  offset="0%" stop-color="#FFFF00" stop-opacity="0.8"/>

<stop  offset="100%" stop-color="#FFFF00" stop-opacity="0"/>
</radialGradient>

<g id="movies_sun_0_Layer0_0_MEMBER_0_FILL">
<path fill="url(#Gradient_1)" stroke="none" d="
M 80.8 36.05
Q 71.1 26.4 57.45 26.4 43.75 26.4 34.05 36.05 24.4 45.75 24.4 59.45 24.4 73.1 34.05 82.8 43.75 92.5 57.45 92.5 71.1 92.5 80.8 82.8 90.5 73.1 90.5 59.45 90.5 45.75 80.8 36.05 Z"/>
</g>

<g id="movies_sun_0_Layer0_0_MEMBER_1_FILL">
<path fill="url(#Gradient_2)" stroke="none" d="
M 116.95 58.45
Q 116.95 34.25 99.85 17.1 82.7 -0.05 58.45 0 34.25 -0.05 17.15 17.1 0 34.25 0 58.45 0 82.65 17.15 99.8 34.25 116.9 58.45 116.95 82.7 116.9 99.85 99.8 116.95 82.65 116.95 58.45 Z"/>
</g>
</defs>

<g transform="matrix( 0.77349853515625, 0, 0, 0.77349853515625, 0,0) ">
<g transform="matrix( 1, 0, 0, 1, 0,0) ">
<use xlink:href="#movies_sun_0_Layer0_0_MEMBER_0_FILL"/>
</g>

<g transform="matrix( 1, 0, 0, 1, 0,0) ">
<use xlink:href="#movies_sun_0_Layer0_0_MEMBER_1_FILL"/>
</g>
</g>
</svg>
